<svg width="60" height="60" viewBox="0 0 60 60" fill="none" xmlns="http://www.w3.org/2000/svg">
<g filter="url(#filter0_d_207_8495)">
<path d="M11.4893 27.3327C12.1188 26.8431 12.7399 26.3452 13.3787 25.8664C18.5263 22.0072 23.6768 18.1521 28.8272 14.297C29.2776 13.9598 29.4371 13.9573 29.8838 14.292C31.9969 15.8715 34.1082 17.4527 36.2204 19.033C36.3324 19.1171 36.4489 19.1971 36.6186 19.3195V18.9031C36.6186 17.501 36.6186 16.0988 36.6186 14.6967C36.6186 14.2163 36.7921 14.0589 37.3199 14.0581C39.0759 14.0581 40.8328 14.0581 42.5888 14.0581C43.1474 14.0581 43.318 14.2096 43.318 14.7034C43.318 17.8082 43.3218 20.9139 43.3115 24.0188C43.3115 24.2619 43.3973 24.4168 43.6015 24.5675C44.6777 25.361 45.7417 26.1662 46.8123 26.9647C47.2898 27.321 47.3215 27.4226 47.0855 27.9513C46.7675 28.6632 46.4393 29.371 46.1315 30.0862C46.001 30.3893 45.7884 30.5217 45.4209 30.5158C44.5499 30.5025 43.6789 30.5117 42.7837 30.5117V41.9803C43.1287 41.9803 43.4738 41.9803 43.8188 41.9803C44.7374 41.9803 45.6569 41.9786 46.5754 41.9803C47.0352 41.9811 47.2254 42.1543 47.2263 42.5698C47.2282 43.484 47.2151 44.3974 47.2338 45.3116C47.2394 45.6014 47.1443 45.8129 46.8785 45.9678H11.4893C11.4893 44.7421 11.4893 43.5165 11.4893 42.2909C11.6628 42.0527 11.8997 41.9686 12.2242 41.9736C13.3405 41.9895 14.4567 41.9795 15.572 41.9795C15.6942 41.9795 15.8173 41.9795 15.9311 41.9795V30.5108C15.0694 30.5108 14.2329 30.5108 13.3964 30.5108C12.835 30.5108 12.7567 30.4609 12.5441 29.9971C12.1953 29.2327 11.8409 28.4701 11.4893 27.7065C11.4893 27.5816 11.4893 27.4576 11.4893 27.3327ZM44.0398 29.5142C39.0983 25.7107 34.2379 21.9689 29.3606 18.2154C24.4806 21.9722 19.6174 25.7157 14.7337 29.4742C14.8036 29.4984 14.8241 29.5117 14.8437 29.5117C15.3324 29.5133 15.821 29.5133 16.3097 29.5142C16.9149 29.5142 17.0725 29.6541 17.0725 30.1919C17.0725 33.9937 17.0725 37.7947 17.0725 41.5965V41.9562H41.6441C41.6441 41.8096 41.6441 41.6855 41.6441 41.5623C41.6441 37.7714 41.6441 33.9804 41.6441 30.1886C41.6441 29.6524 41.8017 29.5142 42.4097 29.5142C42.918 29.5142 43.4272 29.5142 44.038 29.5142H44.0398ZM12.6224 44.9495H46.0849V42.9911H12.6224V44.9495ZM13.3955 29.1645C13.8841 28.789 14.3336 28.4451 14.7822 28.1004C19.4691 24.4934 24.1552 20.8856 28.8421 17.2795C29.2683 16.9515 29.4492 16.9523 29.8698 17.2754C34.3721 20.7391 38.8735 24.2037 43.3759 27.6674C44.0165 28.1603 44.6581 28.6516 45.3212 29.1611C45.5515 28.6482 45.7669 28.1695 45.9907 27.6699C40.4449 23.5167 34.9056 19.3694 29.3634 15.2188C29.1928 15.3437 29.0482 15.4477 28.9065 15.5535C24.7623 18.6559 20.619 21.7582 16.4747 24.8606C15.2988 25.7415 14.1201 26.6191 12.9506 27.5084C12.863 27.575 12.7781 27.739 12.8089 27.8214C12.9768 28.2611 13.1829 28.6899 13.3936 29.1636L13.3955 29.1645ZM37.7358 17.5468C37.7358 18.332 37.7452 19.0872 37.7302 19.8423C37.7256 20.0705 37.7974 20.222 37.9979 20.3702C39.324 21.3494 40.6388 22.3411 41.9584 23.3277C42.0227 23.376 42.0992 23.4118 42.1785 23.4576V15.0697H37.7582V16.5501C37.9056 16.5501 38.0314 16.5501 38.1573 16.5501C38.9481 16.5501 39.7389 16.5451 40.5307 16.5526C40.8627 16.556 41.0809 16.7591 41.0865 17.0389C41.0921 17.3195 40.8766 17.5251 40.5521 17.5451C40.4477 17.5518 40.3432 17.5468 40.2378 17.5468C39.4153 17.5468 38.5928 17.5468 37.7368 17.5468H37.7358Z" fill="black"/>
<path d="M44.0398 29.5141C43.429 29.5141 42.9208 29.5141 42.4116 29.5141C41.8026 29.5141 41.646 29.6523 41.646 30.1885C41.646 33.9795 41.646 37.7704 41.646 41.5622C41.646 41.6863 41.646 41.8095 41.646 41.9561H17.0734V41.5964C17.0734 37.7946 17.0734 33.9936 17.0734 30.1919C17.0734 29.654 16.9158 29.5149 16.3106 29.5141C15.8219 29.5141 15.3333 29.5133 14.8446 29.5116C14.8241 29.5116 14.8045 29.4983 14.7346 29.4741C19.6174 25.7156 24.4806 21.9721 29.3616 18.2153C34.2388 21.9688 39.0992 25.7106 44.0408 29.5141H44.0398Z" fill="#F94FAF"/>
<path d="M12.6224 44.9494V42.991H46.085V44.9494H12.6224Z" fill="#F94FAF"/>
<path d="M13.3964 29.1652C13.1856 28.6915 12.9795 28.2627 12.8117 27.823C12.78 27.7406 12.8648 27.5766 12.9534 27.51C14.1219 26.6216 15.3006 25.7431 16.4775 24.8622C20.6208 21.7598 24.765 18.6566 28.9093 15.5551C29.051 15.4485 29.1956 15.3453 29.3662 15.2204C34.9093 19.371 40.4477 23.5184 45.9935 27.6715C45.7688 28.1711 45.5543 28.6498 45.3239 29.1627C44.6609 28.6532 44.0184 28.1619 43.3786 27.669C38.8763 24.2053 34.3749 20.7407 29.8726 17.277C29.452 16.9539 29.2711 16.9531 28.8449 17.2811C24.158 20.8872 19.471 24.495 14.785 28.102C14.3364 28.4475 13.8869 28.7914 13.3983 29.1661L13.3964 29.1652Z" fill="#F94FAF"/>
<path d="M37.7357 17.5467C38.5918 17.5467 39.4143 17.5467 40.2368 17.5467C40.3413 17.5467 40.4467 17.5517 40.5511 17.545C40.8756 17.5251 41.091 17.3194 41.0854 17.0388C41.0808 16.7599 40.8616 16.5559 40.5296 16.5525C39.7389 16.5451 38.9481 16.55 38.1563 16.55C38.0304 16.55 37.9036 16.55 37.7572 16.55V15.0696H42.1775V23.4584C42.0982 23.4117 42.0217 23.3768 41.9574 23.3285C40.6378 22.3418 39.3229 21.3502 37.9969 20.371C37.7964 20.2228 37.7246 20.0712 37.7292 19.8431C37.7451 19.0879 37.7348 18.3327 37.7348 17.5475L37.7357 17.5467Z" fill="#F94FAF"/>
<path d="M36.0471 29.7637L36.0465 29.7631C35.7714 29.5178 35.4124 29.3904 35.0511 29.3904C34.6899 29.3904 34.3309 29.5178 34.0557 29.7631L34.0554 29.7634L27.2459 35.8433L24.7427 33.6083L24.7344 33.6009L24.7258 33.5938C24.4491 33.3636 24.0962 33.2473 23.7428 33.2529C23.3895 33.2584 23.04 33.3859 22.7711 33.626C22.4999 33.8681 22.3291 34.2105 22.3216 34.5866C22.3142 34.9629 22.4717 35.3121 22.7348 35.5643L22.7429 35.572L22.7513 35.5795L26.2502 38.7035L26.2505 38.7038C26.5256 38.9492 26.8846 39.0765 27.2459 39.0765C27.6072 39.0765 27.9661 38.9492 28.2413 38.7038L28.2416 38.7035L36.0468 31.7346L36.0471 31.7343C36.3244 31.4865 36.4962 31.134 36.4962 30.749C36.4962 30.364 36.3244 30.0115 36.0471 29.7637Z" fill="black" stroke="black" stroke-width="1.2766"/>
</g>
<defs>
<filter id="filter0_d_207_8495" x="6.38297" y="14.0426" width="45.9575" height="42.138" filterUnits="userSpaceOnUse" color-interpolation-filters="sRGB">
<feFlood flood-opacity="0" result="BackgroundImageFix"/>
<feColorMatrix in="SourceAlpha" type="matrix" values="0 0 0 0 0 0 0 0 0 0 0 0 0 0 0 0 0 0 127 0" result="hardAlpha"/>
<feOffset dy="5.10638"/>
<feGaussianBlur stdDeviation="2.55319"/>
<feComposite in2="hardAlpha" operator="out"/>
<feColorMatrix type="matrix" values="0 0 0 0 0 0 0 0 0 0 0 0 0 0 0 0 0 0 0.25 0"/>
<feBlend mode="normal" in2="BackgroundImageFix" result="effect1_dropShadow_207_8495"/>
<feBlend mode="normal" in="SourceGraphic" in2="effect1_dropShadow_207_8495" result="shape"/>
</filter>
</defs>
</svg>
