<svg width="60" height="60" viewBox="0 0 60 60" fill="none" xmlns="http://www.w3.org/2000/svg">
<g filter="url(#filter0_d_207_8600)">
<path d="M47.2341 23.9373C47.1798 25.1822 46.703 25.9779 45.8046 26.5239C44.7917 27.1409 44.1421 28.0215 43.9624 29.1973C43.7038 30.8944 44.3425 32.2094 45.775 33.1285C46.5075 33.5984 47.01 34.2095 47.1749 35.0723C47.2766 35.6035 47.2193 36.1237 47.0179 36.6282C46.3624 38.2729 45.4877 39.7943 44.3919 41.1823C43.4945 42.3186 42.0936 42.5703 40.7451 41.8645C39.0984 41.0026 37.269 41.285 36.0518 42.596C35.3873 43.3118 35.0586 44.1707 35.024 45.1391C34.9688 46.7039 34.1158 47.7405 32.5658 47.9833C30.8056 48.2588 29.0335 48.2667 27.2733 47.9567C25.8813 47.7119 24.9977 46.6338 24.9691 45.2122C24.9237 42.9958 23.2108 41.3077 21.0004 41.3906C20.4199 41.4123 19.8098 41.6048 19.2826 41.8615C17.7939 42.5842 16.4562 42.3137 15.4601 41.0105C14.461 39.7034 13.6515 38.2887 13.0275 36.7674C12.4401 35.3359 12.8676 33.9785 14.1865 33.1561C15.3712 32.4177 16.0445 31.3544 16.087 29.9683C16.1314 28.5062 15.4966 27.3492 14.2458 26.5683C13.5103 26.1092 12.9969 25.506 12.8232 24.6412C12.7166 24.1091 12.758 23.5869 12.9574 23.0834C13.6139 21.4258 14.4926 19.8936 15.5983 18.4957C16.4996 17.3564 17.8926 17.1057 19.2441 17.8125C20.8918 18.6734 22.7231 18.3911 23.9374 17.083C24.6018 16.3672 24.9286 15.5074 24.9661 14.5399C25.0264 12.9682 25.8724 11.9395 27.4233 11.6957C29.1964 11.4173 30.9803 11.4143 32.7524 11.7272C34.0882 11.9622 34.9984 13.0659 35.0221 14.4273C35.0616 16.6881 36.7872 18.3881 39.0253 18.2884C39.5939 18.2627 40.1902 18.0702 40.7075 17.8185C42.2121 17.0859 43.5271 17.3604 44.5508 18.6971C45.5519 20.0032 46.3624 21.4199 46.9715 22.9471C47.1196 23.3174 47.1789 23.7221 47.2341 23.9383V23.9373ZM17.9479 41.0816C18.1463 41.0036 18.4761 40.9039 18.7772 40.7489C19.8967 40.1743 21.0705 40.0184 22.2858 40.3086C24.5693 40.8536 26.0975 42.7836 26.1508 45.1431C26.1706 46.0296 26.68 46.6456 27.5408 46.7858C29.1076 47.0415 30.6812 47.0336 32.2499 46.8174C33.3576 46.6654 33.8078 46.0967 33.8433 44.9703C33.8818 43.755 34.334 42.6928 35.1544 41.8013C36.7389 40.0815 39.1754 39.6827 41.2634 40.7815C42.1499 41.2484 42.9081 41.128 43.4718 40.4103C44.4798 39.1249 45.2972 37.726 45.8846 36.2017C45.9892 35.9292 46.01 35.5995 45.9804 35.3053C45.9241 34.7456 45.54 34.4069 45.0859 34.1137C43.611 33.163 42.7788 31.8115 42.7156 30.0483C42.6435 28.0541 43.5251 26.5486 45.1965 25.4863C45.9665 24.9966 46.2114 24.2463 45.8718 23.4131C45.3031 22.0162 44.5449 20.7308 43.6692 19.5027C43.0502 18.6359 42.1607 18.3684 41.1725 18.9331C40.0955 19.5481 38.9078 19.6577 37.7034 19.3704C35.4229 18.8254 33.8976 16.9023 33.8384 14.5359C33.8167 13.6484 33.3082 13.0334 32.4484 12.8932C30.8816 12.6385 29.308 12.6434 27.7393 12.8606C26.6286 13.0146 26.1962 13.5783 26.1429 14.7067C26.0659 16.3603 25.3403 17.699 23.968 18.6191C22.2799 19.7515 20.4989 19.8038 18.6923 18.8797C17.8304 18.4384 17.0722 18.5589 16.5174 19.2677C15.5104 20.5541 14.69 21.952 14.1046 23.4773C14 23.7498 13.9763 24.0795 14.0069 24.3727C14.0651 24.9305 14.4432 25.277 14.9033 25.5633C16.6724 26.6651 17.5629 28.6464 17.2094 30.6939C16.9468 32.2143 16.1255 33.3575 14.8243 34.172C14.0424 34.6616 13.7788 35.3843 14.0947 36.1938C14.694 37.728 15.5163 39.1368 16.5302 40.434C16.854 40.8486 17.2884 41.0461 17.9479 41.0816Z" fill="black"/>
<path d="M17.9479 41.0817C17.2895 41.0451 16.8541 40.8487 16.5303 40.434C15.5164 39.1368 14.695 37.728 14.0948 36.1939C13.7789 35.3843 14.0415 34.6617 14.8243 34.172C16.1255 33.3575 16.9469 32.2143 17.2095 30.694C17.5629 28.6465 16.6724 26.6651 14.9033 25.5634C14.4433 25.2771 14.0652 24.9305 14.0069 24.3728C13.9763 24.0786 14 23.7498 14.1046 23.4773C14.6911 21.9521 15.5105 20.5541 16.5174 19.2678C17.0723 18.5599 17.8295 18.4395 18.6923 18.8798C20.4989 19.8038 22.2809 19.7525 23.9681 18.6192C25.3403 17.6981 26.0659 16.3604 26.1429 14.7068C26.1953 13.5784 26.6287 13.0146 27.7393 12.8606C29.308 12.6434 30.8817 12.6375 32.4484 12.8932C33.3083 13.0334 33.8167 13.6484 33.8384 14.536C33.8977 16.9024 35.4229 18.8255 37.7034 19.3704C38.9069 19.6577 40.0955 19.5491 41.1726 18.9331C42.1608 18.3684 43.0503 18.6359 43.6693 19.5027C44.5459 20.7309 45.3031 22.0172 45.8718 23.4132C46.2114 24.2464 45.9656 24.9967 45.1965 25.4863C43.5251 26.5486 42.6435 28.0541 42.7156 30.0483C42.7788 31.8115 43.612 33.1631 45.086 34.1138C45.5401 34.407 45.9241 34.7466 45.9804 35.3054C46.01 35.5996 45.9893 35.9293 45.8846 36.2018C45.2982 37.727 44.4798 39.1259 43.4718 40.4103C42.9091 41.129 42.1509 41.2485 41.2634 40.7815C39.1754 39.6827 36.7389 40.0816 35.1544 41.8013C34.333 42.6918 33.8819 43.7551 33.8434 44.9704C33.8078 46.0968 33.3576 46.6654 32.25 46.8175C30.6813 47.0337 29.1076 47.0416 27.5409 46.7859C26.68 46.6457 26.1706 46.0297 26.1508 45.1431C26.0975 42.7836 24.5693 40.8536 22.2858 40.3087C21.0706 40.0184 19.8957 40.1744 18.7772 40.749C18.4761 40.903 18.1464 41.0027 17.9479 41.0817ZM23.3511 29.8154C23.3471 33.476 26.3434 36.4881 29.9862 36.4851C33.6311 36.4821 36.6283 33.4977 36.6343 29.8667C36.6402 26.2041 33.6479 23.195 30.0001 23.197C26.3582 23.1989 23.354 26.1883 23.3501 29.8154H23.3511Z" fill="#ED2484"/>
<path d="M23.3521 29.8154C23.356 26.1883 26.3601 23.1989 30.002 23.197C33.6489 23.195 36.6422 26.2041 36.6362 29.8667C36.6303 33.4977 33.6321 36.4821 29.9882 36.4851C26.3444 36.4881 23.3491 33.476 23.353 29.8154H23.3521ZM29.9428 35.2718C32.8936 35.334 35.3528 32.9439 35.417 29.9506C35.4812 26.9307 33.1148 24.4744 30.0869 24.4172C27.0877 24.3609 24.6473 26.7135 24.5733 29.7324C24.4992 32.7474 26.8844 35.2076 29.9438 35.2728L29.9428 35.2718Z" fill="black"/>
</g>
<defs>
<filter id="filter0_d_207_8600" x="7.65967" y="11.4896" width="44.6808" height="46.9128" filterUnits="userSpaceOnUse" color-interpolation-filters="sRGB">
<feFlood flood-opacity="0" result="BackgroundImageFix"/>
<feColorMatrix in="SourceAlpha" type="matrix" values="0 0 0 0 0 0 0 0 0 0 0 0 0 0 0 0 0 0 127 0" result="hardAlpha"/>
<feOffset dy="5.10638"/>
<feGaussianBlur stdDeviation="2.55319"/>
<feComposite in2="hardAlpha" operator="out"/>
<feColorMatrix type="matrix" values="0 0 0 0 0 0 0 0 0 0 0 0 0 0 0 0 0 0 0.25 0"/>
<feBlend mode="normal" in2="BackgroundImageFix" result="effect1_dropShadow_207_8600"/>
<feBlend mode="normal" in="SourceGraphic" in2="effect1_dropShadow_207_8600" result="shape"/>
</filter>
</defs>
</svg>
