<svg width="60" height="60" viewBox="0 0 60 60" fill="none" xmlns="http://www.w3.org/2000/svg">
<g filter="url(#filter0_d_207_8620)">
<path d="M29.8767 47.137C26.6556 47.1168 23.6648 46.2787 20.9257 44.577C20.6293 44.3925 20.4203 44.3691 20.109 44.5535C18.5395 45.4833 16.8324 45.9898 15.0092 46.0591C14.4814 46.0793 13.9493 46.0079 13.4205 45.962C13.1049 45.9343 12.8586 45.7786 12.7861 45.4492C12.7061 45.0899 12.8703 44.8404 13.1774 44.6548C14.3972 43.9202 15.4602 43.0086 16.3228 41.8688C16.8751 41.1384 16.8772 41.1459 16.3324 40.4283C14.3246 37.783 13.1401 34.8146 12.85 31.4996C12.1143 23.0775 17.4594 15.3515 25.7024 13.3449C32.5796 11.6709 38.4674 13.6488 43.1353 18.9981C45.3893 21.5805 46.6166 24.6555 47.0026 28.0557C47.992 36.7594 42.1821 44.8585 33.5936 46.7191C32.3802 46.9824 31.1285 47.0666 29.8948 47.234C29.8895 47.2021 29.8831 47.169 29.8778 47.137H29.8767ZM13.895 45.1975C14.0815 45.2167 14.2212 45.2391 14.3609 45.2455C16.2588 45.3244 18.0266 44.8521 19.6462 43.8893C20.3009 43.5001 20.7956 43.5438 21.43 43.9341C24.5914 45.881 28.0439 46.638 31.7288 46.2297C34.9509 45.8725 37.8628 44.6836 40.3119 42.5544C45.5408 38.0079 47.4408 32.2801 45.6836 25.5874C43.4285 17.001 34.6982 11.9673 26.0585 14.0507C22.5154 14.9059 19.5918 16.7792 17.2898 19.5888C14.3662 23.1585 13.1731 27.2763 13.6806 31.8547C14.0346 35.047 15.2704 37.8917 17.3154 40.3782C17.7334 40.8868 17.7441 41.2024 17.3847 41.7472C16.7802 42.6631 16.0679 43.4852 15.215 44.1772C14.797 44.5162 14.3641 44.8372 13.896 45.1975H13.895Z" fill="black"/>
<path d="M15.3713 44.3713L15.3714 44.3712C16.2467 43.66 16.9766 42.8191 17.5922 41.8848C17.7806 41.5992 17.9041 41.3286 17.8905 41.0374C17.8768 40.7453 17.7279 40.4871 17.5073 40.2193C15.4919 37.7689 14.2764 34.9683 13.9279 31.8271C13.4277 27.3146 14.6017 23.2641 17.4831 19.7472L17.4831 19.7471C19.7505 16.9786 22.6273 15.1357 26.117 14.2938C34.6278 12.2412 43.2213 17.2005 45.4406 25.6519C46.3088 28.9581 46.2708 32.0143 45.3782 34.8001C44.4855 37.5864 42.7327 40.1182 40.1467 42.3667C37.7392 44.4598 34.8761 45.6312 31.7001 45.9822L31.7 45.9822C28.0698 46.3845 24.6733 45.6385 21.5601 43.7223C21.2232 43.5145 20.8983 43.3834 20.5541 43.3702C20.2072 43.3569 19.8722 43.4644 19.5173 43.6754C17.993 44.5812 16.336 45.0412 14.561 45.0028C14.8389 44.7909 15.109 44.584 15.3713 44.3713Z" fill="#AAE23B" stroke="black" stroke-width="0.5"/>
<path d="M26.3079 28.367V26.9362H31.3789V27.4117C31.3789 30.829 31.3714 34.2463 31.3821 37.6635C31.3885 39.6521 31.107 39.3578 33.0763 39.3802C33.2352 39.3823 33.3941 39.3802 33.5828 39.3802V40.8292H26.3132V39.3812C26.8549 39.3812 27.3944 39.3834 27.9339 39.3812C28.3785 39.3791 28.5022 39.2597 28.5022 38.8204C28.5033 35.5225 28.5033 32.2257 28.5022 28.9279C28.5022 28.5025 28.3625 28.3702 27.9232 28.3681C27.3944 28.3649 26.8645 28.3681 26.3079 28.3681V28.367Z" fill="black"/>
<path d="M29.3062 19.0738C30.3543 19.077 31.2019 19.8905 31.1849 20.9343C31.1667 22.0453 30.4001 22.8002 29.2966 22.8408C28.273 22.8781 27.3901 21.943 27.4125 20.9247C27.4349 19.8756 28.2591 19.0706 29.3072 19.0738H29.3062Z" fill="black"/>
</g>
<defs>
<filter id="filter0_d_207_8620" x="7.65958" y="12.766" width="44.559" height="44.6808" filterUnits="userSpaceOnUse" color-interpolation-filters="sRGB">
<feFlood flood-opacity="0" result="BackgroundImageFix"/>
<feColorMatrix in="SourceAlpha" type="matrix" values="0 0 0 0 0 0 0 0 0 0 0 0 0 0 0 0 0 0 127 0" result="hardAlpha"/>
<feOffset dy="5.10638"/>
<feGaussianBlur stdDeviation="2.55319"/>
<feComposite in2="hardAlpha" operator="out"/>
<feColorMatrix type="matrix" values="0 0 0 0 0 0 0 0 0 0 0 0 0 0 0 0 0 0 0.25 0"/>
<feBlend mode="normal" in2="BackgroundImageFix" result="effect1_dropShadow_207_8620"/>
<feBlend mode="normal" in="SourceGraphic" in2="effect1_dropShadow_207_8620" result="shape"/>
</filter>
</defs>
</svg>
