<svg width="60" height="60" viewBox="0 0 60 60" fill="none" xmlns="http://www.w3.org/2000/svg">
<g filter="url(#filter0_d_303_27043)">
<path d="M44.0249 15.993C44.8514 15.993 45.5214 15.323 45.5214 14.4965C45.5214 13.67 44.8514 13 44.0249 13C43.1984 13 42.5284 13.67 42.5284 14.4965C42.5284 15.323 43.1984 15.993 44.0249 15.993Z" fill="#3A95DF" stroke="black" stroke-width="0.855137" stroke-linecap="round" stroke-linejoin="round"/>
<path d="M28.7607 47.7186C38.0174 47.7186 45.5214 40.2145 45.5214 30.9579C45.5214 21.7012 38.0174 14.1972 28.7607 14.1972C19.504 14.1972 12 21.7012 12 30.9579C12 40.2145 19.504 47.7186 28.7607 47.7186Z" fill="#3A95DF"/>
<path d="M28.7607 47.7186C38.0174 47.7186 45.5214 40.2145 45.5214 30.9579C45.5214 21.7012 38.0174 14.1972 28.7607 14.1972C19.504 14.1972 12 21.7012 12 30.9579C12 40.2145 19.504 47.7186 28.7607 47.7186Z" fill="#3A95DF" stroke="black" stroke-width="0.855137" stroke-linecap="round" stroke-linejoin="round"/>
<path d="M22.324 42.9011C22.4477 42.9011 22.5687 42.8646 22.6718 42.7963L23.7241 42.0918C23.8273 42.0235 23.9482 41.987 24.0719 41.987H24.6238C24.7061 41.987 24.7876 41.9708 24.8636 41.9393C24.9396 41.9078 25.0086 41.8616 25.0668 41.8034C25.1249 41.7452 25.171 41.6761 25.2025 41.6001C25.2339 41.524 25.25 41.4426 25.25 41.3603V41.2477C25.25 41.0815 25.316 40.9221 25.4335 40.8046C25.5511 40.687 25.7105 40.621 25.8767 40.621H29.0954C29.1776 40.621 29.2591 40.6371 29.3351 40.6685C29.4111 40.7 29.4801 40.7461 29.5383 40.8042L30.7229 41.9894V42.4449H31.6023C31.742 42.4449 31.8777 42.4917 31.9878 42.5777C32.0979 42.6637 32.1761 42.7841 32.2098 42.9196L32.4289 44.2509C32.4627 44.3865 32.5409 44.5068 32.651 44.5929C32.7611 44.6789 32.8968 44.7256 33.0365 44.7256H33.9847C34.1011 44.7256 34.2151 44.6932 34.3141 44.632C34.4131 44.5707 34.493 44.4831 34.545 44.379L34.6545 44.1599C34.7065 44.0558 34.7864 43.9682 34.8854 43.907C34.9844 43.8458 35.0984 43.8133 35.2148 43.8133H35.8326C36.057 43.8133 36.2647 43.2369 36.3767 43.0417L37.9701 40.2529C38.0034 40.1944 38.027 40.1309 38.0402 40.0649L38.4305 38.1147C38.46 37.9663 38.435 37.8121 38.3598 37.6807L36.7712 34.8996C36.6945 34.766 36.5714 34.6652 36.4252 34.6165L35.6643 34.3627C35.5508 34.3248 35.4505 34.2553 35.3752 34.1623C35.2999 34.0693 35.2527 33.9567 35.2393 33.8377L35.0933 32.5208C35.0818 32.4168 35.0445 32.3173 34.9847 32.2315C34.9249 32.1456 34.8445 32.0762 34.7509 32.0294L34.4899 31.8989C34.3859 31.8468 34.2985 31.7668 34.2374 31.6678C34.1763 31.5689 34.1439 31.4549 34.1439 31.3386V30.3593H33.6878L32.6181 32.1419C32.5371 32.2775 32.4078 32.3775 32.2562 32.4219C32.1046 32.4663 31.9418 32.4518 31.8004 32.3813L30.9809 31.9719C30.846 31.9043 30.74 31.7904 30.6823 31.651C30.6246 31.5116 30.619 31.356 30.6667 31.2129L30.6762 31.1853C30.7079 31.0911 30.7166 30.9906 30.7017 30.8923C30.6869 30.794 30.6489 30.7007 30.5908 30.62C30.5327 30.5393 30.4563 30.4735 30.3678 30.4282C30.2793 30.3829 30.1813 30.3592 30.0818 30.3593H28.6021C28.4857 30.3592 28.3716 30.3916 28.2726 30.4528C28.1737 30.5141 28.0937 30.6017 28.0418 30.7059L27.5276 31.7361C27.4636 31.8635 27.3582 31.9653 27.2286 32.0248C27.099 32.0843 26.9531 32.098 26.8147 32.0635L25.8923 31.833C25.7702 31.8024 25.6418 31.8093 25.5237 31.8527C25.4056 31.8962 25.3033 31.9742 25.2302 32.0767L23.2884 34.7949C23.229 34.8782 23.1501 34.9457 23.0585 34.9912L20.1098 36.465C19.9618 36.5392 19.8492 36.6691 19.7967 36.8261C19.7442 36.9832 19.7561 37.1547 19.8297 37.303L21.7422 41.128C21.799 41.242 21.8199 41.3706 21.8021 41.4968L21.7039 42.1846C21.6909 42.2735 21.6972 42.3642 21.7225 42.4506C21.7477 42.5369 21.7912 42.6167 21.85 42.6847C21.9089 42.7527 21.9817 42.8072 22.0635 42.8445C22.1452 42.8819 22.2341 42.9012 22.324 42.9011Z" fill="#10BC10" stroke="black" stroke-width="0.855137" stroke-linecap="round" stroke-linejoin="round"/>
<path d="M13.7042 24.0076L14.3943 26.7677L17.3873 27.3663L19.7817 29.7607H23.3733V27.9649L20.3803 27.3663L17.3873 24.9719V21.3803L20.9789 22.5775L22.7747 20.7817L20.8412 16.4317" fill="#10BC10"/>
<path d="M13.7042 24.0076L14.3943 26.7677L17.3873 27.3663L19.7817 29.7607H23.3733V27.9649L20.3803 27.3663L17.3873 24.9719V21.3803L20.9789 22.5775L22.7747 20.7817L20.8412 16.4317" stroke="black" stroke-width="0.855137" stroke-linecap="round" stroke-linejoin="round"/>
<path d="M27.585 28.1044L30.0482 27.9511L32.3307 27.2268" fill="#10BC10"/>
<path d="M27.585 28.1044L30.0482 27.9511L32.3307 27.2268" stroke="black" stroke-width="0.855137" stroke-linecap="round" stroke-linejoin="round"/>
<path d="M23.3733 22.5775L22.7747 23.1761Z" fill="#10BC10"/>
<path d="M23.3733 22.5775L22.7747 23.1761" stroke="black" stroke-width="0.855137" stroke-linecap="round" stroke-linejoin="round"/>
<path d="M30.5565 45.3242L31.1551 45.9228Z" fill="#3A95DF"/>
<path d="M30.5565 45.3242L31.1551 45.9228" stroke="black" stroke-width="0.855137" stroke-linecap="round" stroke-linejoin="round"/>
<path d="M37.7396 31.5565L37.1411 29.7607L34.7467 28.5635L34.1481 26.7677L38.3382 27.9649L38.9368 30.9579L37.7396 31.5565Z" fill="#10BC10" stroke="black" stroke-width="0.855137" stroke-linecap="round" stroke-linejoin="round"/>
<path d="M22.7747 25.5705L23.9719 26.1691Z" fill="#10BC10"/>
<path d="M22.7747 25.5705L23.9719 26.1691" stroke="black" stroke-width="0.855137" stroke-linecap="round" stroke-linejoin="round"/>
<path d="M26.3663 25.5705L26.9649 24.9719Z" fill="#10BC10"/>
<path d="M26.3663 25.5705L26.9649 24.9719" stroke="black" stroke-width="0.855137" stroke-linecap="round" stroke-linejoin="round"/>
<path d="M35.5854 14.2798C35.9388 14.2798 36.2253 13.9933 36.2253 13.6399C36.2253 13.2865 35.9388 13 35.5854 13C35.232 13 34.9455 13.2865 34.9455 13.6399C34.9455 13.9933 35.232 14.2798 35.5854 14.2798Z" fill="black"/>
<path d="M43.9657 22.6602C44.3191 22.6602 44.6056 22.3737 44.6056 22.0203C44.6056 21.6669 44.3191 21.3804 43.9657 21.3804C43.6123 21.3804 43.3258 21.6669 43.3258 22.0203C43.3258 22.3737 43.6123 22.6602 43.9657 22.6602Z" fill="black"/>
<path d="M46.3601 17.8714C46.7135 17.8714 47 17.5849 47 17.2315C47 16.8781 46.7135 16.5916 46.3601 16.5916C46.0067 16.5916 45.7202 16.8781 45.7202 17.2315C45.7202 17.5849 46.0067 17.8714 46.3601 17.8714Z" fill="black"/>
</g>
<defs>
<filter id="filter0_d_303_27043" x="6.46604" y="12.5724" width="45.6403" height="45.7865" filterUnits="userSpaceOnUse" color-interpolation-filters="sRGB">
<feFlood flood-opacity="0" result="BackgroundImageFix"/>
<feColorMatrix in="SourceAlpha" type="matrix" values="0 0 0 0 0 0 0 0 0 0 0 0 0 0 0 0 0 0 127 0" result="hardAlpha"/>
<feOffset dy="5.10638"/>
<feGaussianBlur stdDeviation="2.55319"/>
<feComposite in2="hardAlpha" operator="out"/>
<feColorMatrix type="matrix" values="0 0 0 0 0 0 0 0 0 0 0 0 0 0 0 0 0 0 0.25 0"/>
<feBlend mode="normal" in2="BackgroundImageFix" result="effect1_dropShadow_303_27043"/>
<feBlend mode="normal" in="SourceGraphic" in2="effect1_dropShadow_303_27043" result="shape"/>
</filter>
</defs>
</svg>
