<svg width="20" height="20" viewBox="0 0 20 20" fill="none" xmlns="http://www.w3.org/2000/svg">
<path d="M19.9986 9.99928C19.9986 4.47646 15.5221 0 9.99928 0C4.47646 0 0 4.47646 0 9.99928C0 14.9903 3.65658 19.1271 8.43691 19.8767V12.889H5.89839V9.99785H8.43691V7.79474C8.43691 5.28918 9.92904 3.90454 12.2139 3.90454C13.3075 3.90454 14.4528 4.09948 14.4528 4.09948V6.5606H13.1914C11.9487 6.5606 11.5617 7.33176 11.5617 8.12155V9.99785H14.3353L13.8923 12.889H11.5631V19.8767C16.3434 19.1271 20 14.9903 20 9.99928H19.9986Z" fill="#AAE23B"/>
<path d="M13.891 12.8904L14.3339 9.9993H11.5603V8.123C11.5603 7.33177 11.9473 6.56204 13.1901 6.56204H14.4515V4.10092C14.4515 4.10092 13.3076 3.90598 12.2125 3.90598C9.92768 3.90598 8.43555 5.29063 8.43555 7.79619V9.9993H5.89703V12.8904H8.43555V19.8782C8.9444 19.9584 9.46614 20 9.99792 20C10.5297 20 11.0515 19.9584 11.5603 19.8782V12.8904H13.8896H13.891Z" fill="white"/>
</svg>
