<svg width="21" height="21" viewBox="0 0 21 21" fill="none" xmlns="http://www.w3.org/2000/svg">
<path d="M19.9932 17.5489L12.9424 10.5L19.9932 3.45115C19.9932 3.45109 19.9933 3.45103 19.9933 3.45098C20.1538 3.29066 20.2811 3.10032 20.3681 2.89082C20.455 2.68124 20.4999 2.45658 20.5 2.22968C20.5001 2.00277 20.4556 1.77806 20.3689 1.56838C20.2822 1.35869 20.155 1.16814 19.9947 1.00759V1.00759C19.8343 0.847041 19.6439 0.71965 19.4344 0.632687C19.2248 0.545725 19.0001 0.500894 18.7732 0.500755C18.5463 0.500615 18.3216 0.54517 18.1119 0.631875C17.9022 0.71858 17.7117 0.845737 17.5511 1.00608L17.5509 1.0063L10.4999 8.05745L3.45095 1.00635L3.4509 1.0063C3.12673 0.682123 2.68705 0.5 2.2286 0.5C1.77014 0.5 1.33046 0.682123 1.00629 1.0063L1.35985 1.35985L1.00629 1.0063C0.682117 1.33048 0.5 1.77016 0.5 2.22862C0.5 2.68707 0.682117 3.12675 1.00629 3.45093L1.00634 3.45098L8.05728 10.5L1.00634 17.549L1.00629 17.5491C0.845778 17.7096 0.718451 17.9001 0.63158 18.1099C0.54471 18.3196 0.5 18.5444 0.5 18.7714C0.5 18.9984 0.544711 19.2232 0.63158 19.4329C0.718449 19.6426 0.845776 19.8332 1.00629 19.9937L1.00629 19.9937C1.33046 20.3179 1.77014 20.5 2.2286 20.5C2.45561 20.5 2.68039 20.4553 2.89011 20.3684C3.09983 20.2815 3.29039 20.1542 3.4509 19.9937L3.45095 19.9936L10.4999 12.9426L17.5509 19.9937L17.5511 19.9939C17.8754 20.3177 18.315 20.4995 18.7732 20.4992C19.2315 20.499 19.6709 20.3166 19.9947 19.9924C20.3185 19.6682 20.5003 19.2286 20.5 18.7703C20.4997 18.3121 20.3174 17.8727 19.9932 17.5489Z" fill="#AAE23B" stroke="#AAE23B"/>
</svg>
