<svg width="20" height="20" viewBox="0 0 20 20" fill="none" xmlns="http://www.w3.org/2000/svg">
<path d="M10 20C15.5228 20 20 15.5228 20 10C20 4.47715 15.5228 0 10 0C4.47715 0 0 4.47715 0 10C0 15.5228 4.47715 20 10 20Z" fill="#AAE23B"/>
<path d="M13.1039 6.21687C12.724 6.21687 12.4158 6.52507 12.4158 6.90494C12.4158 7.28482 12.724 7.59302 13.1039 7.59302C13.4838 7.59302 13.792 7.28482 13.792 6.90494C13.792 6.52507 13.4838 6.21687 13.1039 6.21687Z" fill="#6328A0"/>
<path d="M10.0477 7.09852C8.45513 7.09852 7.16068 8.39439 7.16068 9.98556C7.16068 11.5767 8.45657 12.8726 10.0477 12.8726C11.6389 12.8726 12.9348 11.5767 12.9348 9.98556C12.9348 8.39439 11.6389 7.09852 10.0477 7.09852ZM10.0477 11.8362C9.02709 11.8362 8.19852 11.0062 8.19852 9.98699C8.19852 8.96778 9.02853 8.1378 10.0477 8.1378C11.0669 8.1378 11.8969 8.96778 11.8969 9.98699C11.8969 11.0062 11.0669 11.8362 10.0477 11.8362Z" fill="#6328A0"/>
<path d="M12.3396 15.8486H7.65782C5.71545 15.8486 4.13577 14.2688 4.13577 12.3265V7.64471C4.13577 5.70234 5.71545 4.12263 7.65782 4.12263H12.3396C14.282 4.12263 15.8617 5.70234 15.8617 7.64471V12.3265C15.8617 14.2688 14.282 15.8486 12.3396 15.8486ZM7.65782 5.22642C6.32468 5.22642 5.23955 6.31157 5.23955 7.64471V12.3265C5.23955 13.6596 6.32468 14.7448 7.65782 14.7448H12.3396C13.6728 14.7448 14.7579 13.6596 14.7579 12.3265V7.64471C14.7579 6.31013 13.6728 5.22642 12.3396 5.22642H7.65782Z" fill="#6328A0"/>
</svg>
