<svg width="29" height="25" viewBox="0 0 29 25" fill="none" xmlns="http://www.w3.org/2000/svg">
<path d="M6.90569 9.16048H13.8113H21.9957L25.0649 10.2014L26.8553 12.2833L27.111 15.9266V20.6108L25.3207 23.2131L21.9957 23.7336L19.1823 22.1722L15.8574 18.2687H12.5325L10.4864 20.0903L7.16145 23.2131L3.58076 22.9529L1.02313 20.6108L0.767365 14.3652L1.79042 11.7628L3.83653 9.94119L6.90569 9.16048Z" fill="#AAE23B" stroke="#096009" stroke-width="0.520468"/>
<path d="M14.7446 8.50999V8.24975V5.1269V4.86666H15.0048H25.3203C25.6382 4.86637 25.9355 4.76071 26.1483 4.58351C26.3597 4.40755 26.4666 4.18031 26.4671 3.95583C26.4671 3.95571 26.4671 3.95559 26.4671 3.95547M14.7446 8.50999L26.7273 3.95583L26.4671 3.95547M14.7446 8.50999H15.0048H20.6314M14.7446 8.50999L27.8738 14.4955M26.4671 3.95547L26.4671 1.0932M26.4671 3.95547L26.4671 1.0932M26.4671 1.0932H25.1119M26.4671 1.0932H25.1119M25.1119 1.0932V3.56547V3.8257H24.8517H14.5361C14.2183 3.826 13.921 3.93165 13.7082 4.10885C13.4967 4.2849 13.3897 4.51229 13.3894 4.73689V8.24975V8.50999H13.1292H7.50264C5.56866 8.51181 3.72201 9.1526 2.36638 10.2811C1.01219 11.4085 0.262422 12.9257 0.260234 14.4956V19.4212C0.26177 20.5131 0.783139 21.572 1.73129 22.3614C2.68081 23.1518 3.97683 23.6025 5.33649 23.6038C5.33657 23.6038 5.33665 23.6038 5.33674 23.6038M25.1119 1.0932L5.33649 23.864L5.33674 23.6038M5.33674 23.6038L5.44199 23.6038H5.44228C6.19335 23.6046 6.93428 23.4675 7.61187 23.2034C8.28948 22.9392 8.88507 22.5553 9.35796 22.0816L9.35819 22.0814L12.4471 18.9956L12.5233 18.9195H12.631H15.4812H15.5951L15.6723 19.0031L18.7592 22.3438L5.33674 23.6038ZM27.8738 14.4958L27.8738 19.8118C27.8737 20.6725 27.5503 21.5177 26.9388 22.2285C26.3266 22.9401 25.4562 23.4807 24.4451 23.767C23.4341 24.0533 22.3395 24.069 21.3168 23.8116C20.2941 23.5542 19.4011 23.0384 18.7592 22.3439L27.8738 14.4958ZM27.8738 14.4958L27.8738 14.4955M27.8738 14.4958L27.8738 14.4955M27.8738 14.4955C27.8715 12.9256 27.1217 11.4085 25.7676 10.2811C24.412 9.1526 22.5653 8.51181 20.6314 8.50999M20.6314 8.50999H20.6316V8.24975L20.6314 8.50999ZM5.33667 22.5628H5.33644C4.36374 22.562 3.4237 22.2403 2.72397 21.6578C2.02287 21.0742 1.61651 20.2716 1.61537 19.4218L1.61537 19.4214L1.61537 14.4955V14.4951C1.61716 13.1673 2.25189 11.9064 3.359 10.9847C4.46473 10.0642 5.95526 9.55239 7.50215 9.55095H7.5024H20.6316H20.6318C22.1787 9.55239 23.6693 10.0642 24.775 10.9847C25.8821 11.9064 26.5168 13.1673 26.5186 14.4951L26.5186 14.4955V19.8118C26.5186 20.4805 26.2668 21.1263 25.8085 21.659C25.351 22.1908 24.711 22.5836 23.9828 22.7898C23.2545 22.996 22.4682 23.0072 21.7323 22.8219C20.9965 22.6367 20.3415 22.2627 19.8632 21.745L16.2905 17.8786H11.8599L8.2851 21.4498L5.33667 22.5628ZM5.33667 22.5628L5.4419 22.5628M5.33667 22.5628L5.4419 22.5628M5.4419 22.5628C5.44199 22.5628 5.44208 22.5628 5.44217 22.5628C5.98102 22.5634 6.51452 22.465 7.00509 22.2738C7.49561 22.0825 7.93317 21.8022 8.28487 21.45L5.4419 22.5628Z" fill="#096009" stroke="#096009" stroke-width="0.520468"/>
<path d="M20.5935 13.5845V12.5435H21.6076V13.5845H20.5935Z" fill="#F94FAF" stroke="#F94FAF" stroke-width="0.520468"/>
<path d="M20.5935 17.488V16.447H21.6076V17.488H20.5935Z" fill="#F94FAF" stroke="#F94FAF" stroke-width="0.520468"/>
<path d="M18.6752 15.5362V14.4953H19.6894V15.5362H18.6752Z" fill="#F94FAF" stroke="#F94FAF" stroke-width="0.520468"/>
<path d="M22.5117 15.5362V14.4953H23.5258V15.5362H22.5117Z" fill="#F94FAF" stroke="#F94FAF" stroke-width="0.520468"/>
<path d="M6.01045 14.4953H6.27068V14.235V12.5435H7.2848V14.235V14.4953H7.54503H9.20303V15.5362H7.54503H7.2848V15.7964V17.488H6.27068V15.7964V15.5362H6.01045H4.35246V14.4953H6.01045Z" fill="#F94FAF" stroke="#F94FAF" stroke-width="0.520468"/>
</svg>
