<svg width="29" height="24" viewBox="0 0 29 24" fill="none" xmlns="http://www.w3.org/2000/svg">
<path d="M6.90568 8.85172H13.8113H21.9957L25.0649 9.89265L26.8552 11.9745L27.111 15.6178V20.302L25.3207 22.9043L21.9957 23.4248L19.1823 21.8634L15.8574 17.9599H12.5325L10.4864 19.7815L7.16144 22.9043L3.58075 22.6441L1.02311 20.302L0.767349 14.0564L1.7904 11.4541L3.83651 9.63242L6.90568 8.85172Z" fill="#004E8D" stroke="#AAE23B" stroke-width="0.520468"/>
<path d="M14.7446 8.20122V7.94098V4.81813V4.55789H15.0048H25.3203C25.6382 4.5576 25.9355 4.45194 26.1483 4.27474C26.3597 4.09879 26.4666 3.87154 26.4671 3.64706C26.4671 3.64694 26.4671 3.64682 26.4671 3.6467M14.7446 8.20122L26.7273 3.64706L26.4671 3.6467M14.7446 8.20122H15.0048H20.6314M14.7446 8.20122L27.8738 14.1867M26.4671 3.6467L26.4671 0.784434M26.4671 3.6467L26.4671 0.784434M26.4671 0.784434H25.1119M26.4671 0.784434H25.1119M25.1119 0.784434V3.2567V3.51693H24.8517H14.5361C14.2183 3.51723 13.921 3.62288 13.7082 3.80008C13.4967 3.97613 13.3897 4.20352 13.3894 4.42812V7.94098V8.20122H13.1292H7.50264C5.56866 8.20304 3.72201 8.84383 2.36638 9.97238C1.01219 11.0997 0.262422 12.6169 0.260234 14.1869V19.1125C0.26177 20.2044 0.783139 21.2633 1.73129 22.0526C2.68081 22.8431 3.97683 23.2937 5.33649 23.295C5.33657 23.295 5.33665 23.295 5.33674 23.295M25.1119 0.784434L5.33649 23.5553L5.33674 23.295M5.33674 23.295L5.44199 23.295H5.44228C6.19335 23.2959 6.93428 23.1588 7.61187 22.8946C8.28948 22.6304 8.88507 22.2465 9.35796 21.7729L9.35819 21.7726L12.4471 18.6869L12.5233 18.6107H12.631H15.4812H15.5951L15.6723 18.6944L18.7592 22.0351L5.33674 23.295ZM27.8738 14.187L27.8738 19.503C27.8737 20.3637 27.5503 21.209 26.9388 21.9197C26.3266 22.6313 25.4562 23.1719 24.4451 23.4582C23.4341 23.7445 22.3395 23.7602 21.3168 23.5028C20.2941 23.2454 19.4011 22.7296 18.7592 22.0351L27.8738 14.187ZM27.8738 14.187L27.8738 14.1867M27.8738 14.187L27.8738 14.1867M27.8738 14.1867C27.8715 12.6168 27.1217 11.0997 25.7676 9.97238C24.412 8.84383 22.5653 8.20304 20.6314 8.20122M20.6314 8.20122H20.6316V7.94098L20.6314 8.20122ZM5.33667 22.2541H5.33644C4.36374 22.2532 3.4237 21.9316 2.72397 21.3491C2.02287 20.7654 1.61651 19.9628 1.61537 19.113L1.61537 19.1127L1.61537 14.1867V14.1863C1.61716 12.8585 2.25189 11.5976 3.359 10.6759C4.46473 9.75543 5.95526 9.24362 7.50215 9.24218H7.5024H20.6316H20.6318C22.1787 9.24362 23.6693 9.75543 24.775 10.6759C25.8821 11.5976 26.5168 12.8585 26.5186 14.1863L26.5186 14.1867V19.503C26.5186 20.1717 26.2668 20.8175 25.8085 21.3502C25.351 21.882 24.711 22.2749 23.9828 22.4811C23.2545 22.6873 22.4682 22.6984 21.7323 22.5132C20.9965 22.3279 20.3415 21.9539 19.8632 21.4362L16.2905 17.5698H11.8599L8.2851 21.141L5.33667 22.2541ZM5.33667 22.2541L5.4419 22.2541M5.33667 22.2541L5.4419 22.2541M5.4419 22.2541C5.44199 22.2541 5.44208 22.2541 5.44217 22.2541C5.98102 22.2546 6.51452 22.1563 7.00509 21.965C7.49561 21.7737 7.93317 21.4934 8.28487 21.1412L5.4419 22.2541Z" fill="#AAE23B" stroke="#AAE23B" stroke-width="0.520468"/>
<path d="M20.5935 13.2757V12.2348H21.6076V13.2757H20.5935Z" fill="#AAE23B" stroke="#AAE23B" stroke-width="0.520468"/>
<path d="M20.5935 17.1792V16.1383H21.6076V17.1792H20.5935Z" fill="#AAE23B" stroke="#AAE23B" stroke-width="0.520468"/>
<path d="M18.6752 15.2274V14.1865H19.6894V15.2274H18.6752Z" fill="#AAE23B" stroke="#AAE23B" stroke-width="0.520468"/>
<path d="M22.5117 15.2274V14.1865H23.5258V15.2274H22.5117Z" fill="#AAE23B" stroke="#AAE23B" stroke-width="0.520468"/>
<path d="M6.01045 14.1865H6.27068V13.9263V12.2348H7.2848V13.9263V14.1865H7.54503H9.20303V15.2274H7.54503H7.2848V15.4877V17.1792H6.27068V15.4877V15.2274H6.01045H4.35246V14.1865H6.01045Z" fill="#AAE23B" stroke="#AAE23B" stroke-width="0.520468"/>
</svg>
