<svg width="30" height="24" viewBox="0 0 30 24" fill="none" xmlns="http://www.w3.org/2000/svg">
<path d="M7.90569 8.77803H14.8113H22.9957L26.0649 9.81897L27.8553 11.9008L28.111 15.5441V20.2283L26.3207 22.8307L22.9957 23.3511L20.1823 21.7897L16.8574 17.8862H13.5325L11.4864 19.7079L8.16145 22.8307L4.58076 22.5704L2.02313 20.2283L1.76736 13.9827L2.79042 11.3804L4.83653 9.55873L7.90569 8.77803Z" fill="#E6F9C0"/>
<path d="M15.7446 8.12753V7.8673V4.74444V4.48421H16.0048H26.3203C26.6382 4.48391 26.9355 4.37826 27.1483 4.20106C27.3598 4.02501 27.4668 3.79762 27.4671 3.57302V0.71075H26.1119V3.18301V3.44325H25.8517L15.5361 3.44325C15.5361 3.44325 15.536 3.44325 15.5359 3.44325C15.2181 3.4436 14.921 3.54924 14.7082 3.7264C14.4968 3.90236 14.3898 4.1296 14.3894 4.35409C14.3894 4.3542 14.3894 4.35432 14.3894 4.35444M15.7446 8.12753L14.1292 4.35409L14.3894 4.35444M15.7446 8.12753H16.0048H21.6313C23.5653 8.12935 25.412 8.77014 26.7676 9.89869C28.1219 11.0261 28.8716 12.5434 28.8738 14.1134V19.4293C28.8737 20.29 28.5503 21.1353 27.9388 21.846C27.3266 22.5576 26.4562 23.0982 25.4451 23.3845C24.4341 23.6708 23.3395 23.6865 22.3168 23.4291C21.2941 23.1717 20.4011 22.656 19.7592 21.9614C19.7592 21.9614 19.7592 21.9614 19.7592 21.9614L16.6723 18.6207L16.5951 18.5371H16.4812H13.631H13.5233L13.4471 18.6132L10.3582 21.699L10.358 21.6992C9.88507 22.1728 9.28948 22.5567 8.61187 22.8209C7.93428 23.0851 7.19335 23.2222 6.44228 23.2213H6.44199H6.33674C4.97699 23.2201 3.68086 22.7694 2.73129 21.9789C1.78314 21.1896 1.26177 20.1307 1.26023 19.0388V14.1132C1.26242 12.5432 2.01219 11.0261 3.36638 9.89869C4.72201 8.77014 6.56866 8.12935 8.50264 8.12753H14.1292H14.3894V7.8673L14.3894 4.35444M15.7446 8.12753L14.3894 4.35444M6.33667 22.1804L6.4419 22.1804C6.44199 22.1804 6.44208 22.1804 6.44217 22.1804C6.98102 22.1809 7.51452 22.0826 8.00509 21.8913C8.49572 21.7 8.93336 21.4196 9.2851 21.0673L12.8599 17.4961H17.2905L20.8632 21.3625C21.3415 21.8802 21.9965 22.2543 22.7323 22.4395C23.4682 22.6247 24.2545 22.6136 24.9828 22.4074C25.711 22.2012 26.351 21.8083 26.8085 21.2765C27.2668 20.7438 27.5186 20.098 27.5186 19.4293V14.113V14.1127C27.5168 12.7849 26.8821 11.5239 25.775 10.6023C24.6693 9.68175 23.1787 9.16994 21.6318 9.16849H21.6316H8.5024H8.50215C6.95526 9.16994 5.46473 9.68175 4.359 10.6023C3.25189 11.5239 2.61716 12.7849 2.61537 14.1127V14.113L2.61537 19.039L2.61537 19.0393C2.6165 19.8891 3.02287 20.6917 3.72397 21.2754C4.4237 21.8579 5.36374 22.1795 6.33644 22.1804H6.33667Z" fill="#AAE23B" stroke="#AAE23B" stroke-width="0.520468"/>
<path d="M21.5935 12.1611H22.6076V13.202H21.5935V12.1611Z" fill="#F94FAF" stroke="#F94FAF" stroke-width="0.520468"/>
<path d="M21.5935 16.0646H22.6076V17.1055H21.5935V16.0646Z" fill="#F94FAF" stroke="#F94FAF" stroke-width="0.520468"/>
<path d="M19.6752 14.1128H20.6894V15.1537H19.6752V14.1128Z" fill="#F94FAF" stroke="#F94FAF" stroke-width="0.520468"/>
<path d="M23.5117 14.1128H24.5258V15.1538H23.5117V14.1128Z" fill="#F94FAF" stroke="#F94FAF" stroke-width="0.520468"/>
<path d="M7.01045 14.1128H7.27068V13.8526V12.1611H8.2848V13.8526V14.1128H8.54503H10.203V15.1538H8.54503H8.2848V15.414V17.1055H7.27068V15.414V15.1538H7.01045H5.35246V14.1128H7.01045Z" fill="#F94FAF" stroke="#F94FAF" stroke-width="0.520468"/>
</svg>
