<svg width="88" height="26" viewBox="0 0 88 26" fill="none" xmlns="http://www.w3.org/2000/svg">
<path d="M6.90569 9.16049H13.8113H21.9957L25.0649 10.2014L26.8553 12.2833L27.111 15.9266V20.6108L25.3207 23.2131L21.9957 23.7336L19.1823 22.1722L15.8574 18.2687H12.5325L10.4864 20.0903L7.16145 23.2131L3.58076 22.9529L1.02313 20.6108L0.767365 14.3652L1.79042 11.7628L3.83653 9.94119L6.90569 9.16049Z" fill="#004E8D" stroke="#AAE23B" stroke-width="0.520468"/>
<path d="M6.90569 9.85172H13.8113H21.9957L25.0649 10.8927L26.8553 12.9745L27.111 16.6178V21.302L25.3207 23.9043L21.9957 24.4248L19.1823 22.8634L15.8574 18.9599H12.5325L10.4864 20.7815L7.16145 23.9043L3.58076 23.6441L1.02313 21.302L0.767365 15.0564L1.79042 12.4541L3.83653 10.6324L6.90569 9.85172Z" fill="#AAE23B" stroke="#096009" stroke-width="0.520468"/>
<path d="M14.7446 9.20122V8.94098V5.81813V5.55789H15.0048H25.3203C25.6382 5.5576 25.9355 5.45194 26.1483 5.27474C26.3598 5.09869 26.4668 4.8713 26.4671 4.64671V1.78443H25.1119V4.2567V4.51693H24.8517L14.5361 4.51693C14.5361 4.51693 14.536 4.51693 14.5359 4.51693C14.2181 4.51728 13.921 4.62293 13.7082 4.80008C13.4968 4.97604 13.3898 5.20329 13.3894 5.42777C13.3894 5.42789 13.3894 5.428 13.3894 5.42812M14.7446 9.20122L13.1292 5.42777L13.3894 5.42812M14.7446 9.20122H15.0048H20.6313C22.5653 9.20304 24.412 9.84383 25.7676 10.9724C27.1219 12.0998 27.8716 13.617 27.8738 15.187V20.503C27.8737 21.3637 27.5503 22.209 26.9388 22.9197C26.3266 23.6313 25.4562 24.1719 24.4451 24.4582C23.4341 24.7445 22.3395 24.7602 21.3168 24.5028C20.2941 24.2454 19.4011 23.7296 18.7592 23.0351C18.7592 23.0351 18.7592 23.0351 18.7592 23.0351L15.6723 19.6944L15.5951 19.6107H15.4812H12.631H12.5233L12.4471 19.6869L9.35819 22.7726L9.35796 22.7729C8.88507 23.2465 8.28948 23.6304 7.61187 23.8946C6.93428 24.1588 6.19335 24.2959 5.44228 24.295H5.44199H5.33674C3.97699 24.2938 2.68086 23.8431 1.73129 23.0526C0.783139 22.2633 0.26177 21.2044 0.260234 20.1125V15.1869C0.262422 13.6169 1.01219 12.0997 2.36638 10.9724C3.72201 9.84383 5.56866 9.20304 7.50264 9.20122H13.1292H13.3894V8.94098L13.3894 5.42812M14.7446 9.20122L13.3894 5.42812M5.33667 23.2541L5.4419 23.2541C5.44199 23.2541 5.44208 23.2541 5.44217 23.2541C5.98102 23.2546 6.51452 23.1563 7.00509 22.965C7.49572 22.7737 7.93336 22.4933 8.2851 22.141L11.8599 18.5698H16.2905L19.8632 22.4362C20.3415 22.9539 20.9965 23.3279 21.7323 23.5132C22.4682 23.6984 23.2545 23.6873 23.9828 23.4811C24.711 23.2749 25.351 22.882 25.8085 22.3502C26.2668 21.8175 26.5186 21.1717 26.5186 20.503V15.1867V15.1863C26.5168 13.8585 25.8821 12.5976 24.775 11.6759C23.6693 10.7554 22.1787 10.2436 20.6318 10.2422H20.6316H7.5024H7.50215C5.95526 10.2436 4.46473 10.7554 3.359 11.6759C2.25189 12.5976 1.61716 13.8585 1.61537 15.1863V15.1867L1.61537 20.1127L1.61537 20.113C1.6165 20.9628 2.02287 21.7654 2.72397 22.3491C3.4237 22.9316 4.36374 23.2532 5.33644 23.2541H5.33667Z" fill="#096009" stroke="#096009" stroke-width="0.520468"/>
<path d="M20.5935 13.2348H21.6076V14.2757H20.5935V13.2348Z" fill="#F94FAF" stroke="#F94FAF" stroke-width="0.520468"/>
<path d="M20.5935 17.1383H21.6076V18.1792H20.5935V17.1383Z" fill="#F94FAF" stroke="#F94FAF" stroke-width="0.520468"/>
<path d="M18.6752 15.1865H19.6894V16.2274H18.6752V15.1865Z" fill="#F94FAF" stroke="#F94FAF" stroke-width="0.520468"/>
<path d="M22.5117 15.1865H23.5258V16.2274H22.5117V15.1865Z" fill="#F94FAF" stroke="#F94FAF" stroke-width="0.520468"/>
<path d="M6.01045 15.1865H6.27068V14.9263V13.2348H7.2848V14.9263V15.1865H7.54503H9.20303V16.2274H7.54503H7.2848V16.4877V18.1792H6.27068V16.4877V16.2274H6.01045H4.35246V15.1865H6.01045Z" fill="#F94FAF" stroke="#F94FAF" stroke-width="0.520468"/>
<path d="M48.7274 5.99502H52.2269V6.55271C52.2269 9.66182 50.8188 10.9445 48.6856 10.9445C46.5524 10.9445 45.2 9.66182 45.2 6.55271V5.4931C45.2 2.38398 46.5524 1.1013 48.6856 1.1013C50.5539 1.1013 51.8365 2.09119 52.1433 4.21041H50.9721C50.6654 2.77436 49.9125 2.18879 48.6856 2.18879C47.2077 2.18879 46.3991 3.10898 46.3991 5.4931V6.55271C46.3991 8.93683 47.2077 9.85702 48.6856 9.85702C50.038 9.85702 50.8885 9.07625 51.014 7.08251H48.7274V5.99502Z" fill="#AAE23B"/>
<path d="M61.4778 10.833H60.1394L58.1317 6.77578H55.8591V10.833H54.6601V1.21283H57.7274C59.9442 1.21283 61.2269 2.13302 61.2269 4.00128C61.2269 5.35368 60.5576 6.20415 59.3307 6.56665L61.4778 10.833ZM55.8591 5.68829H57.7274C59.3586 5.68829 60.0278 5.18637 60.0278 4.00128C60.0278 2.80225 59.3586 2.30033 57.7274 2.30033H55.8591V5.68829Z" fill="#AAE23B"/>
<path d="M63.6321 1.21283H69.4321V2.30033H64.8311V5.31185H69.0138V6.39934H64.8311V9.74548H69.4321V10.833H63.6321V1.21283Z" fill="#AAE23B"/>
<path d="M71.7328 1.21283H77.5327V2.30033H72.9318V5.31185H77.1145V6.39934H72.9318V9.74548H77.5327V10.833H71.7328V1.21283Z" fill="#AAE23B"/>
<path d="M85.1593 1.21283H86.3584V10.833H85.1872L81.0324 3.55513V10.833H79.8334V1.21283H80.9767L85.1593 8.56039V1.21283Z" fill="#AAE23B"/>
<path d="M47.6539 15.2128V18.8936H50.6096V15.2128H52.924V24.833H50.6096V20.8176H47.6539V24.833H45.3395V15.2128H47.6539Z" fill="#AAE23B"/>
<path d="M57.5956 15.2128H63.6744V17.1369H59.91V18.8936H63.2561V20.8176H59.91V22.9089H63.6744V24.833H57.5956V15.2128Z" fill="#AAE23B"/>
<path d="M75.5181 24.833H72.9806L71.3772 21.194H70.1782V24.833H67.8638V15.2128H71.4888C73.7056 15.2128 75.1277 16.2306 75.1277 18.2383C75.1277 19.4931 74.57 20.3436 73.594 20.7897L75.5181 24.833ZM70.1782 19.27H71.2099C72.1441 19.27 72.8133 19.1445 72.8133 18.2383C72.8133 17.3181 72.1441 17.1369 71.2099 17.1369H70.1782V19.27Z" fill="#AAE23B"/>
<path d="M86.8826 20.7758C86.8826 23.6479 85.2793 24.9724 83.0903 24.9724C80.9014 24.9724 79.298 23.6479 79.298 20.7758V19.27C79.298 16.37 80.9014 15.0734 83.0903 15.0734C85.2793 15.0734 86.8826 16.37 86.8826 19.27V20.7758ZM81.6125 19.27V20.7758C81.6125 22.3513 82.1283 23.0484 83.0903 23.0484C84.0523 23.0484 84.5682 22.3513 84.5682 20.7758V19.27C84.5682 17.6945 84.0523 16.9974 83.0903 16.9974C82.1283 16.9974 81.6125 17.6945 81.6125 19.27Z" fill="#AAE23B"/>
<path fill-rule="evenodd" clip-rule="evenodd" d="M48.3174 5.58495H52.637V6.55271C52.637 8.16151 52.2735 9.37207 51.5652 10.1841C50.8486 11.0057 49.8362 11.3546 48.6856 11.3546C47.5345 11.3546 46.5339 11.0052 45.8308 10.1806C45.1379 9.36782 44.79 8.15786 44.79 6.55271V5.4931C44.79 3.88795 45.1379 2.67799 45.8308 1.86523C46.5339 1.04057 47.5345 0.691231 48.6856 0.691231C49.692 0.691231 50.5835 0.95887 51.2682 1.55096C51.9533 2.14332 52.3854 3.02065 52.5491 4.15167L52.617 4.62048H50.6404L50.5711 4.29607C50.4288 3.62994 50.1952 3.21963 49.9069 2.97233C49.6228 2.72858 49.2336 2.59886 48.6856 2.59886C48.0394 2.59886 47.6086 2.79386 47.3189 3.18925C47.0088 3.61249 46.8091 4.3325 46.8091 5.4931V6.55271C46.8091 7.71331 47.0088 8.43331 47.3189 8.85655C47.6086 9.25194 48.0394 9.44695 48.6856 9.44695C49.2795 9.44695 49.7049 9.27879 50.0042 8.94409C50.2646 8.65287 50.468 8.19312 50.5624 7.49258H48.3174V5.58495ZM51.014 7.08251C51.005 7.22538 50.9922 7.36201 50.9759 7.49258C50.764 9.18414 49.9411 9.85702 48.6856 9.85702C47.2077 9.85702 46.3991 8.93683 46.3991 6.55271V5.4931C46.3991 3.10898 47.2077 2.18879 48.6856 2.18879C49.9125 2.18879 50.6654 2.77436 50.9721 4.21041H52.1433C52.1228 4.06869 52.0979 3.93201 52.0688 3.80035C51.6624 1.96322 50.4289 1.1013 48.6856 1.1013C46.5524 1.1013 45.2 2.38398 45.2 5.4931V6.55271C45.2 9.66183 46.5524 10.9445 48.6856 10.9445C50.8188 10.9445 52.2269 9.66183 52.2269 6.55271V5.99502H48.7274V7.08251H51.014ZM62.1433 11.243H59.8848L57.8771 7.18585H56.2692V11.243H54.25V0.802768H57.7274C58.8831 0.802768 59.8619 1.04122 60.5597 1.58242C61.2752 2.13725 61.6369 2.96435 61.6369 4.00128C61.6369 4.74624 61.4517 5.38891 61.0668 5.90143C60.7725 6.29331 60.3774 6.58777 59.9043 6.79426L62.1433 11.243ZM59.3307 6.56665C59.4673 6.52628 59.597 6.47987 59.7197 6.42738C60.6984 6.00851 61.2269 5.20308 61.2269 4.00128C61.2269 2.13302 59.9442 1.21283 57.7274 1.21283H54.6601V10.833H55.8591V6.77578H58.1317L60.1394 10.833H61.4778L59.3307 6.56665ZM56.2692 5.27822H57.7274C58.5192 5.27822 58.9834 5.15263 59.246 4.95911C59.4776 4.78839 59.6178 4.51376 59.6178 4.00128C59.6178 3.48023 59.4766 3.20232 59.245 3.03051C58.9829 2.83606 58.5194 2.71039 57.7274 2.71039H56.2692V5.27822ZM57.7274 5.68829C59.3586 5.68829 60.0278 5.18637 60.0278 4.00128C60.0278 2.80225 59.3586 2.30033 57.7274 2.30033H55.8591V5.68829H57.7274ZM63.222 0.802768H69.8421V2.71039H65.2412V4.90178H69.4239V6.80941H65.2412V9.33541H69.8421V11.243H63.222V0.802768ZM64.8311 9.74548V6.39934H69.0138V5.31185H64.8311V2.30033H69.4321V1.21283H63.6321V10.833H69.4321V9.74548H64.8311ZM71.3227 0.802768H77.9428V2.71039H73.3419V4.90178H77.5245V6.80941H73.3419V9.33541H77.9428V11.243H71.3227V0.802768ZM72.9318 9.74548V6.39934H77.1145V5.31185H72.9318V2.30033H77.5327V1.21283H71.7328V10.833H77.5327V9.74548H72.9318ZM84.7493 0.802768H86.7684V11.243H84.9492L81.4425 5.10054V11.243H79.4234V0.802768H81.2151L84.7493 7.01115V0.802768ZM85.1593 8.56039L80.9767 1.21283H79.8334V10.833H81.0324V3.55513L85.1872 10.833H86.3584V1.21283H85.1593V8.56039ZM48.0639 14.8028V18.4835H50.1996V14.8028H53.3341V25.243H50.1996V21.2277H48.0639V25.243H44.9294V14.8028H48.0639ZM47.6539 20.8176H50.6096V24.833H52.924V15.2128H50.6096V18.8936H47.6539V15.2128H45.3395V24.833H47.6539V20.8176ZM57.1855 14.8028H64.0844V17.5469H60.32V18.4835H63.6662V21.2277H60.32V22.4989H64.0844V25.243H57.1855V14.8028ZM59.91 22.9089V20.8176H63.2561V18.8936H59.91V17.1369H63.6744V15.2128H57.5956V24.833H63.6744V22.9089H59.91ZM76.1673 25.243H72.7132L71.1098 21.6041H70.5883V25.243H67.4537V14.8028H71.4888C72.6528 14.8028 73.6655 15.0692 74.3955 15.6523C75.1393 16.2465 75.5378 17.1285 75.5378 18.2383C75.5378 18.9271 75.3843 19.5309 75.0762 20.032C74.839 20.4178 74.5187 20.7288 74.1324 20.9668L76.1673 25.243ZM73.5941 20.7898C73.5941 20.7898 73.5941 20.7898 73.5941 20.7898C73.6236 20.7763 73.6527 20.7624 73.6814 20.7482C74.6032 20.2918 75.1277 19.4552 75.1277 18.2383C75.1277 16.2306 73.7056 15.2128 71.4888 15.2128H67.8638V24.833H70.1782V21.1941H71.3772L72.9806 24.833H75.5181L73.5941 20.7898ZM70.5883 18.86H71.2099C71.6823 18.86 71.9898 18.8233 72.1758 18.7286C72.2554 18.6881 72.3032 18.6411 72.3357 18.5827C72.3704 18.5201 72.4032 18.4156 72.4032 18.2383C72.4032 18.0571 72.3703 17.9429 72.3315 17.8695C72.2947 17.7998 72.2414 17.7454 72.1603 17.6996C71.9765 17.5959 71.671 17.5469 71.2099 17.5469H70.5883V18.86ZM71.2099 19.27C72.1441 19.27 72.8133 19.1445 72.8133 18.2383C72.8133 17.3181 72.1441 17.1369 71.2099 17.1369H70.1782V19.27H71.2099ZM86.1006 24.2377C85.3314 25.0249 84.2671 25.3825 83.0903 25.3825C81.9136 25.3825 80.8493 25.0249 80.0801 24.2377C79.3111 23.4509 78.888 22.2871 78.888 20.7758V19.27C78.888 17.7458 79.3106 16.581 80.0808 15.7969C80.8511 15.0126 81.9158 14.6633 83.0903 14.6633C84.2648 14.6633 85.3296 15.0126 86.0999 15.7969C86.8701 16.581 87.2927 17.7458 87.2927 19.27V20.7758C87.2927 22.2871 86.8696 23.4509 86.1006 24.2377ZM82.0225 19.27V20.7758C82.0225 21.5325 82.1489 22.003 82.3311 22.2743C82.4927 22.515 82.7241 22.6383 83.0903 22.6383C83.4566 22.6383 83.688 22.515 83.8496 22.2743C84.0317 22.003 84.1582 21.5325 84.1582 20.7758V19.27C84.1582 18.5133 84.0317 18.0428 83.8496 17.7715C83.688 17.5308 83.4566 17.4075 83.0903 17.4075C82.7241 17.4075 82.4927 17.5308 82.3311 17.7715C82.1489 18.0428 82.0225 18.5133 82.0225 19.27ZM83.0903 24.9724C85.2793 24.9724 86.8826 23.6479 86.8826 20.7758V19.27C86.8826 16.37 85.2793 15.0734 83.0903 15.0734C80.9014 15.0734 79.2981 16.37 79.2981 19.27V20.7758C79.2981 23.6479 80.9014 24.9724 83.0903 24.9724ZM81.6125 20.7758V19.27C81.6125 17.6946 82.1283 16.9974 83.0903 16.9974C84.0524 16.9974 84.5682 17.6946 84.5682 19.27V20.7758C84.5682 22.3513 84.0524 23.0484 83.0903 23.0484C82.1283 23.0484 81.6125 22.3513 81.6125 20.7758Z" fill="#AAE23B"/>
<path d="M37.3472 0.832973L37.3472 23.7336" stroke="#AAE23B" stroke-width="1.5614" stroke-linecap="round"/>
</svg>
