<svg width="88" height="26" viewBox="0 0 88 26" fill="none" xmlns="http://www.w3.org/2000/svg">
<path d="M6.90569 9.46925H13.8113H21.9957L25.0649 10.5102L26.8553 12.5921L27.111 16.2353V20.9195L25.3207 23.5219L21.9957 24.0424L19.1823 22.4809L15.8574 18.5774H12.5325L10.4864 20.3991L7.16145 23.5219L3.58076 23.2617L1.02313 20.9195L0.767365 14.6739L1.79042 12.0716L3.83653 10.25L6.90569 9.46925Z" fill="#E6F9C0"/>
<path d="M14.7446 8.81876V8.55852V5.43567V5.17543H15.0048H25.3203C25.6382 5.17514 25.9355 5.06948 26.1483 4.89228C26.3598 4.71623 26.4668 4.48884 26.4671 4.26424V1.40197H25.1119V3.87424V4.13447H24.8517L14.5361 4.13447C14.5361 4.13447 14.536 4.13447 14.5359 4.13447C14.2181 4.13482 13.921 4.24047 13.7082 4.41762C13.4968 4.59358 13.3898 4.82083 13.3894 5.04531C13.3894 5.04543 13.3894 5.04554 13.3894 5.04566M14.7446 8.81876L13.1292 5.04531L13.3894 5.04566M14.7446 8.81876H15.0048H20.6313C22.5653 8.82058 24.412 9.46137 25.7676 10.5899C27.1219 11.7173 27.8716 13.2346 27.8738 14.8046V20.1205C27.8737 20.9813 27.5503 21.8265 26.9388 22.5372C26.3266 23.2489 25.4562 23.7895 24.4451 24.0758C23.4341 24.362 22.3395 24.3777 21.3168 24.1204C20.2941 23.863 19.4011 23.3472 18.7592 22.6526C18.7592 22.6526 18.7592 22.6526 18.7592 22.6526L15.6723 19.3119L15.5951 19.2283H15.4812H12.631H12.5233L12.4471 19.3044L9.35819 22.3902L9.35796 22.3904C8.88507 22.864 8.28948 23.2479 7.61187 23.5121C6.93428 23.7763 6.19335 23.9134 5.44228 23.9126H5.44199H5.33674C3.97699 23.9113 2.68086 23.4606 1.73129 22.6701C0.783139 21.8808 0.26177 20.8219 0.260234 19.73V14.8044C0.262422 13.2345 1.01219 11.7173 2.36638 10.5899C3.72201 9.46137 5.56866 8.82058 7.50264 8.81876H13.1292H13.3894V8.55852L13.3894 5.04566M14.7446 8.81876L13.3894 5.04566M5.33667 22.8716L5.4419 22.8716C5.44199 22.8716 5.44208 22.8716 5.44217 22.8716C5.98102 22.8721 6.51452 22.7738 7.00509 22.5825C7.49572 22.3912 7.93336 22.1108 8.2851 21.7586L11.8599 18.1873H16.2905L19.8632 22.0538C20.3415 22.5714 20.9965 22.9455 21.7323 23.1307C22.4682 23.3159 23.2545 23.3048 23.9828 23.0986C24.711 22.8924 25.351 22.4996 25.8085 21.9678C26.2668 21.4351 26.5186 20.7893 26.5186 20.1206V14.8042V14.8039C26.5168 13.4761 25.8821 12.2152 24.775 11.2935C23.6693 10.373 22.1787 9.86116 20.6318 9.85972H20.6316H7.5024H7.50215C5.95526 9.86116 4.46473 10.373 3.359 11.2935C2.25189 12.2152 1.61716 13.4761 1.61537 14.8039V14.8042L1.61537 19.7302L1.61537 19.7305C1.6165 20.5803 2.02287 21.383 2.72397 21.9666C3.4237 22.5491 4.36374 22.8707 5.33644 22.8716H5.33667Z" fill="#AAE23B" stroke="#AAE23B" stroke-width="0.520468"/>
<path d="M20.5935 12.8523H21.6076V13.8932H20.5935V12.8523Z" fill="#F94FAF" stroke="#F94FAF" stroke-width="0.520468"/>
<path d="M20.5935 16.7558H21.6076V17.7967H20.5935V16.7558Z" fill="#F94FAF" stroke="#F94FAF" stroke-width="0.520468"/>
<path d="M18.6752 14.804H19.6894V15.845H18.6752V14.804Z" fill="#F94FAF" stroke="#F94FAF" stroke-width="0.520468"/>
<path d="M22.5117 14.804H23.5258V15.845H22.5117V14.804Z" fill="#F94FAF" stroke="#F94FAF" stroke-width="0.520468"/>
<path d="M6.01045 14.804H6.27068V14.5438V12.8523H7.2848V14.5438V14.804H7.54503H9.20303V15.845H7.54503H7.2848V16.1052V17.7967H6.27068V16.1052V15.845H6.01045H4.35246V14.804H6.01045Z" fill="#F94FAF" stroke="#F94FAF" stroke-width="0.520468"/>
<path d="M48.7274 6.30379H52.2269V6.86148C52.2269 9.97059 50.8188 11.2533 48.6856 11.2533C46.5524 11.2533 45.2 9.97059 45.2 6.86148V5.80187C45.2 2.69275 46.5524 1.41006 48.6856 1.41006C50.5539 1.41006 51.8365 2.39996 52.1433 4.51918H50.9721C50.6654 3.08313 49.9125 2.49756 48.6856 2.49756C47.2077 2.49756 46.3991 3.41775 46.3991 5.80187V6.86148C46.3991 9.2456 47.2077 10.1658 48.6856 10.1658C50.038 10.1658 50.8885 9.38502 51.014 7.39128H48.7274V6.30379Z" fill="#AAE23B"/>
<path d="M61.4778 11.1417H60.1394L58.1317 7.08455H55.8591V11.1417H54.6601V1.5216H57.7274C59.9442 1.5216 61.2269 2.44179 61.2269 4.31005C61.2269 5.66244 60.5576 6.51292 59.3307 6.87542L61.4778 11.1417ZM55.8591 5.99706H57.7274C59.3586 5.99706 60.0278 5.49514 60.0278 4.31005C60.0278 3.11102 59.3586 2.6091 57.7274 2.6091H55.8591V5.99706Z" fill="#AAE23B"/>
<path d="M63.6321 1.5216H69.4321V2.6091H64.8311V5.62062H69.0138V6.70811H64.8311V10.0542H69.4321V11.1417H63.6321V1.5216Z" fill="#AAE23B"/>
<path d="M71.7328 1.5216H77.5327V2.6091H72.9318V5.62062H77.1145V6.70811H72.9318V10.0542H77.5327V11.1417H71.7328V1.5216Z" fill="#AAE23B"/>
<path d="M85.1593 1.5216H86.3584V11.1417H85.1872L81.0324 3.8639V11.1417H79.8334V1.5216H80.9767L85.1593 8.86916V1.5216Z" fill="#AAE23B"/>
<path d="M47.6539 15.5216V19.2024H50.6096V15.5216H52.924V25.1417H50.6096V21.1264H47.6539V25.1417H45.3395V15.5216H47.6539Z" fill="#AAE23B"/>
<path d="M57.5956 15.5216H63.6744V17.4456H59.91V19.2024H63.2561V21.1264H59.91V23.2177H63.6744V25.1417H57.5956V15.5216Z" fill="#AAE23B"/>
<path d="M75.5181 25.1417H72.9806L71.3772 21.5028H70.1782V25.1417H67.8638V15.5216H71.4888C73.7056 15.5216 75.1277 16.5394 75.1277 18.5471C75.1277 19.8019 74.57 20.6523 73.594 21.0985L75.5181 25.1417ZM70.1782 19.5788H71.2099C72.1441 19.5788 72.8133 19.4533 72.8133 18.5471C72.8133 17.6269 72.1441 17.4456 71.2099 17.4456H70.1782V19.5788Z" fill="#AAE23B"/>
<path d="M86.8826 21.0846C86.8826 23.9567 85.2793 25.2812 83.0903 25.2812C80.9014 25.2812 79.298 23.9567 79.298 21.0846V19.5788C79.298 16.6788 80.9014 15.3822 83.0903 15.3822C85.2793 15.3822 86.8826 16.6788 86.8826 19.5788V21.0846ZM81.6125 19.5788V21.0846C81.6125 22.66 82.1283 23.3571 83.0903 23.3571C84.0523 23.3571 84.5682 22.66 84.5682 21.0846V19.5788C84.5682 18.0033 84.0523 17.3062 83.0903 17.3062C82.1283 17.3062 81.6125 18.0033 81.6125 19.5788Z" fill="#AAE23B"/>
<path fill-rule="evenodd" clip-rule="evenodd" d="M48.3174 5.89372H52.637V6.86148C52.637 8.47028 52.2735 9.68084 51.5652 10.4928C50.8486 11.3145 49.8362 11.6633 48.6856 11.6633C47.5345 11.6633 46.5339 11.314 45.8308 10.4893C45.1379 9.67658 44.79 8.46663 44.79 6.86148V5.80187C44.79 4.19671 45.1379 2.98676 45.8308 2.174C46.5339 1.34934 47.5345 1 48.6856 1C49.692 1 50.5835 1.26764 51.2682 1.85973C51.9533 2.45209 52.3854 3.32942 52.5491 4.46044L52.617 4.92925H50.6404L50.5711 4.60484C50.4288 3.93871 50.1952 3.5284 49.9069 3.2811C49.6228 3.03735 49.2336 2.90763 48.6856 2.90763C48.0394 2.90763 47.6086 3.10263 47.3189 3.49802C47.0088 3.92126 46.8091 4.64127 46.8091 5.80187V6.86148C46.8091 8.02208 47.0088 8.74208 47.3189 9.16532C47.6086 9.56071 48.0394 9.75572 48.6856 9.75572C49.2795 9.75572 49.7049 9.58756 50.0042 9.25286C50.2646 8.96164 50.468 8.50189 50.5624 7.80135H48.3174V5.89372ZM51.014 7.39128C51.005 7.53415 50.9922 7.67078 50.9759 7.80135C50.764 9.49291 49.9411 10.1658 48.6856 10.1658C47.2077 10.1658 46.3991 9.2456 46.3991 6.86148V5.80187C46.3991 3.41775 47.2077 2.49756 48.6856 2.49756C49.9125 2.49756 50.6654 3.08313 50.9721 4.51918H52.1433C52.1228 4.37746 52.0979 4.24078 52.0688 4.10912C51.6624 2.27199 50.4289 1.41007 48.6856 1.41007C46.5524 1.41007 45.2 2.69275 45.2 5.80187V6.86148C45.2 9.97059 46.5524 11.2533 48.6856 11.2533C50.8188 11.2533 52.2269 9.97059 52.2269 6.86148V6.30379H48.7274V7.39128H51.014ZM62.1433 11.5518H59.8848L57.8771 7.49462H56.2692V11.5518H54.25V1.11154H57.7274C58.8831 1.11154 59.8619 1.34999 60.5597 1.89119C61.2752 2.44602 61.6369 3.27312 61.6369 4.31005C61.6369 5.05501 61.4517 5.69768 61.0668 6.2102C60.7725 6.60208 60.3774 6.89654 59.9043 7.10303L62.1433 11.5518ZM59.3307 6.87542C59.4673 6.83505 59.597 6.78863 59.7197 6.73615C60.6984 6.31728 61.2269 5.51185 61.2269 4.31005C61.2269 2.44179 59.9442 1.5216 57.7274 1.5216H54.6601V11.1417H55.8591V7.08455H58.1317L60.1394 11.1417H61.4778L59.3307 6.87542ZM56.2692 5.58699H57.7274C58.5192 5.58699 58.9834 5.4614 59.246 5.26788C59.4776 5.09716 59.6178 4.82253 59.6178 4.31005C59.6178 3.789 59.4766 3.51109 59.245 3.33928C58.9829 3.14483 58.5194 3.01916 57.7274 3.01916H56.2692V5.58699ZM57.7274 5.99706C59.3586 5.99706 60.0278 5.49514 60.0278 4.31005C60.0278 3.11102 59.3586 2.6091 57.7274 2.6091H55.8591V5.99706H57.7274ZM63.222 1.11154H69.8421V3.01916H65.2412V5.21055H69.4239V7.11818H65.2412V9.64418H69.8421V11.5518H63.222V1.11154ZM64.8311 10.0542V6.70811H69.0138V5.62062H64.8311V2.6091H69.4321V1.5216H63.6321V11.1417H69.4321V10.0542H64.8311ZM71.3227 1.11154H77.9428V3.01916H73.3419V5.21055H77.5245V7.11818H73.3419V9.64418H77.9428V11.5518H71.3227V1.11154ZM72.9318 10.0542V6.70811H77.1145V5.62062H72.9318V2.6091H77.5327V1.5216H71.7328V11.1417H77.5327V10.0542H72.9318ZM84.7493 1.11154H86.7684V11.5518H84.9492L81.4425 5.40931V11.5518H79.4234V1.11154H81.2151L84.7493 7.31992V1.11154ZM85.1593 8.86916L80.9767 1.5216H79.8334V11.1417H81.0324V3.8639L85.1872 11.1417H86.3584V1.5216H85.1593V8.86916ZM48.0639 15.1115V18.7923H50.1996V15.1115H53.3341V25.5518H50.1996V21.5364H48.0639V25.5518H44.9294V15.1115H48.0639ZM47.6539 21.1264H50.6096V25.1417H52.924V15.5216H50.6096V19.2024H47.6539V15.5216H45.3395V25.1417H47.6539V21.1264ZM57.1855 15.1115H64.0844V17.8557H60.32V18.7923H63.6662V21.5364H60.32V22.8076H64.0844V25.5518H57.1855V15.1115ZM59.91 23.2177V21.1264H63.2561V19.2024H59.91V17.4456H63.6744V15.5216H57.5956V25.1417H63.6744V23.2177H59.91ZM76.1673 25.5518H72.7132L71.1098 21.9129H70.5883V25.5518H67.4537V15.1115H71.4888C72.6528 15.1115 73.6655 15.3779 74.3955 15.9611C75.1393 16.5553 75.5378 17.4373 75.5378 18.5471C75.5378 19.2358 75.3843 19.8396 75.0762 20.3408C74.839 20.7266 74.5187 21.0375 74.1324 21.2756L76.1673 25.5518ZM73.5941 21.0985C73.5941 21.0985 73.5941 21.0986 73.5941 21.0985C73.6236 21.0851 73.6527 21.0711 73.6814 21.0569C74.6032 20.6006 75.1277 19.7639 75.1277 18.5471C75.1277 16.5394 73.7056 15.5216 71.4888 15.5216H67.8638V25.1417H70.1782V21.5028H71.3772L72.9806 25.1417H75.5181L73.5941 21.0985ZM70.5883 19.1687H71.2099C71.6823 19.1687 71.9898 19.1321 72.1758 19.0374C72.2554 18.9968 72.3032 18.9499 72.3357 18.8915C72.3704 18.8288 72.4032 18.7244 72.4032 18.5471C72.4032 18.3659 72.3703 18.2517 72.3315 18.1783C72.2947 18.1086 72.2414 18.0541 72.1603 18.0084C71.9765 17.9047 71.671 17.8557 71.2099 17.8557H70.5883V19.1687ZM71.2099 19.5788C72.1441 19.5788 72.8133 19.4533 72.8133 18.5471C72.8133 17.6269 72.1441 17.4456 71.2099 17.4456H70.1782V19.5788H71.2099ZM86.1006 24.5465C85.3314 25.3336 84.2671 25.6912 83.0903 25.6912C81.9136 25.6912 80.8493 25.3336 80.0801 24.5465C79.3111 23.7596 78.888 22.5959 78.888 21.0846V19.5788C78.888 18.0545 79.3106 16.8898 80.0808 16.1056C80.8511 15.3214 81.9158 14.9721 83.0903 14.9721C84.2648 14.9721 85.3296 15.3214 86.0999 16.1056C86.8701 16.8898 87.2927 18.0545 87.2927 19.5788V21.0846C87.2927 22.5959 86.8696 23.7596 86.1006 24.5465ZM82.0225 19.5788V21.0846C82.0225 21.8412 82.1489 22.3118 82.3311 22.5831C82.4927 22.8238 82.7241 22.9471 83.0903 22.9471C83.4566 22.9471 83.688 22.8238 83.8496 22.5831C84.0317 22.3118 84.1582 21.8412 84.1582 21.0846V19.5788C84.1582 18.8221 84.0317 18.3516 83.8496 18.0803C83.688 17.8395 83.4566 17.7163 83.0903 17.7163C82.7241 17.7163 82.4927 17.8395 82.3311 18.0803C82.1489 18.3516 82.0225 18.8221 82.0225 19.5788ZM83.0903 25.2812C85.2793 25.2812 86.8826 23.9567 86.8826 21.0846V19.5788C86.8826 16.6788 85.2793 15.3822 83.0903 15.3822C80.9014 15.3822 79.2981 16.6788 79.2981 19.5788V21.0846C79.2981 23.9567 80.9014 25.2812 83.0903 25.2812ZM81.6125 21.0846V19.5788C81.6125 18.0033 82.1283 17.3062 83.0903 17.3062C84.0524 17.3062 84.5682 18.0033 84.5682 19.5788V21.0846C84.5682 22.66 84.0524 23.3571 83.0903 23.3571C82.1283 23.3571 81.6125 22.66 81.6125 21.0846Z" fill="#AAE23B"/>
<path d="M37.3472 1.14174L37.3472 24.0423" stroke="#AAE23B" stroke-width="1.5614" stroke-linecap="round"/>
</svg>
