<svg width="38" height="38" viewBox="0 0 38 38" fill="none" xmlns="http://www.w3.org/2000/svg">
<rect x="2" y="2" width="34" height="34" rx="5" fill="#FDCAE7"/>
<path d="M11.5311 13V8.5H12.3936L14.3499 11.5V8.5H15.2124V13H14.3499L12.3936 10V13H11.5311ZM16.6469 13V8.5H17.4969V13H16.6469ZM19.9025 13L18.5275 8.5H19.4025L20.5275 12.2L21.6712 8.5H22.5462L21.1712 13H19.9025ZM24.7775 8.15625C24.6233 8.15625 24.4817 8.11875 24.3525 8.04375C24.2254 7.96667 24.1233 7.86458 24.0463 7.7375C23.9713 7.60833 23.9338 7.46667 23.9338 7.3125C23.9338 7.15625 23.9713 7.01458 24.0463 6.8875C24.1233 6.76042 24.2254 6.65937 24.3525 6.58437C24.4817 6.50729 24.6233 6.46875 24.7775 6.46875C24.9338 6.46875 25.0754 6.50729 25.2025 6.58437C25.3296 6.65937 25.4306 6.76042 25.5056 6.8875C25.5827 7.01458 25.6213 7.15625 25.6213 7.3125C25.6213 7.46667 25.5827 7.60833 25.5056 7.7375C25.4306 7.86458 25.3296 7.96667 25.2025 8.04375C25.0754 8.11875 24.9338 8.15625 24.7775 8.15625ZM24.7775 7.65625C24.8733 7.65625 24.9546 7.62292 25.0213 7.55625C25.0879 7.4875 25.1213 7.40625 25.1213 7.3125C25.1213 7.21667 25.0879 7.13542 25.0213 7.06875C24.9546 7.00208 24.8733 6.96875 24.7775 6.96875C24.6838 6.96875 24.6025 7.00208 24.5338 7.06875C24.4671 7.13542 24.4338 7.21667 24.4338 7.3125C24.4338 7.40625 24.4671 7.4875 24.5338 7.55625C24.6025 7.62292 24.6838 7.65625 24.7775 7.65625ZM22.765 13L24.14 8.5H25.4088L26.7838 13H25.9088L24.6838 9.03125H24.8463L23.64 13H22.765ZM23.59 12.0625V11.2687H25.965V12.0625H23.59ZM15.4754 27.986V26.334L19.7034 22.582C20.0207 22.302 20.2447 22.0383 20.3754 21.791C20.5061 21.5437 20.5714 21.3127 20.5714 21.098C20.5714 20.79 20.5084 20.517 20.3824 20.279C20.2564 20.0363 20.0791 19.8473 19.8504 19.712C19.6217 19.572 19.3534 19.502 19.0454 19.502C18.7234 19.502 18.4387 19.5767 18.1914 19.726C17.9487 19.8707 17.7597 20.0643 17.6244 20.307C17.4891 20.545 17.4261 20.804 17.4354 21.084H15.4754C15.4754 20.3933 15.6271 19.796 15.9304 19.292C16.2337 18.788 16.6561 18.3983 17.1974 18.123C17.7387 17.8477 18.3687 17.71 19.0874 17.71C19.7454 17.71 20.3334 17.8547 20.8514 18.144C21.3741 18.4287 21.7847 18.8277 22.0834 19.341C22.3821 19.8543 22.5314 20.4493 22.5314 21.126C22.5314 21.6253 22.4614 22.0407 22.3214 22.372C22.1814 22.6987 21.9737 23.002 21.6984 23.282C21.4231 23.5573 21.0847 23.87 20.6834 24.22L17.9534 26.614L17.7994 26.194H22.5314V27.986H15.4754Z" fill="#F94FAF"/>
</svg>
