<svg width="47" height="47" viewBox="0 0 47 47" fill="none" xmlns="http://www.w3.org/2000/svg">
<g filter="url(#filter0_d_526_18732)">
<rect x="3" y="3" width="39" height="39" rx="5" fill="#F94FAF"/>
<path d="M14.237 16.1316V10.8618H15.247L17.5379 14.375V10.8618H18.548V16.1316H17.5379L15.247 12.6184V16.1316H14.237ZM20.2278 16.1316V10.8618H21.2232V16.1316H20.2278ZM24.0403 16.1316L22.4301 10.8618H23.4548L24.7722 15.1947L26.1116 10.8618H27.1363L25.5261 16.1316H24.0403ZM29.7493 10.4593C29.5687 10.4593 29.4028 10.4154 29.2516 10.3275C29.1027 10.2373 28.9832 10.1177 28.8929 9.96891C28.8051 9.81765 28.7612 9.65175 28.7612 9.47121C28.7612 9.28823 28.8051 9.12233 28.8929 8.97351C28.9832 8.82469 29.1027 8.70636 29.2516 8.61853C29.4028 8.52826 29.5687 8.48313 29.7493 8.48313C29.9322 8.48313 30.0981 8.52826 30.247 8.61853C30.3958 8.70636 30.5141 8.82469 30.6019 8.97351C30.6922 9.12233 30.7373 9.28823 30.7373 9.47121C30.7373 9.65175 30.6922 9.81765 30.6019 9.96891C30.5141 10.1177 30.3958 10.2373 30.247 10.3275C30.0981 10.4154 29.9322 10.4593 29.7493 10.4593ZM29.7493 9.87376C29.8615 9.87376 29.9566 9.83472 30.0347 9.75665C30.1128 9.67614 30.1518 9.58099 30.1518 9.47121C30.1518 9.35898 30.1128 9.26383 30.0347 9.18576C29.9566 9.10769 29.8615 9.06866 29.7493 9.06866C29.6395 9.06866 29.5443 9.10769 29.4638 9.18576C29.3857 9.26383 29.3467 9.35898 29.3467 9.47121C29.3467 9.58099 29.3857 9.67614 29.4638 9.75665C29.5443 9.83472 29.6395 9.87376 29.7493 9.87376ZM27.3925 16.1316L29.0027 10.8618H30.4885L32.0987 16.1316H31.074L29.6395 11.484H29.8298L28.4172 16.1316H27.3925ZM28.3586 15.0337V14.1042H31.1399V15.0337H28.3586ZM22.7308 34.3447C22.1406 34.3447 21.5777 34.2272 21.0422 33.9922C20.5066 33.7518 20.0393 33.4157 19.6404 32.984C19.2469 32.5522 18.9655 32.044 18.7961 31.4592L20.9602 30.8854C21.0749 31.3172 21.299 31.6532 21.6324 31.8937C21.9712 32.1287 22.3373 32.2462 22.7308 32.2462C23.0696 32.2462 23.3784 32.1642 23.6571 32.0003C23.9413 31.8363 24.1654 31.615 24.3293 31.3363C24.4987 31.0576 24.5834 30.7488 24.5834 30.41C24.5834 29.9017 24.4086 29.4673 24.0588 29.1066C23.7145 28.7404 23.2719 28.5574 22.7308 28.5574C22.5669 28.5574 22.4084 28.582 22.2554 28.6311C22.1024 28.6749 21.9548 28.7377 21.8127 28.8197L20.8126 27.0654L24.567 23.9504L24.731 24.4259H19.2551V22.3273H26.6328V24.4259L23.7145 27.2458L23.6981 26.6228C24.3758 26.7266 24.9469 26.9643 25.4114 27.336C25.8814 27.7021 26.2366 28.1557 26.477 28.6967C26.723 29.2323 26.8459 29.8034 26.8459 30.41C26.8459 31.1532 26.6574 31.8227 26.2803 32.4183C25.9032 33.0085 25.4032 33.4785 24.7802 33.8283C24.1572 34.1726 23.4741 34.3447 22.7308 34.3447Z" fill="#FFE400"/>
</g>
<defs>
<filter id="filter0_d_526_18732" x="0" y="0" width="47" height="47" filterUnits="userSpaceOnUse" color-interpolation-filters="sRGB">
<feFlood flood-opacity="0" result="BackgroundImageFix"/>
<feColorMatrix in="SourceAlpha" type="matrix" values="0 0 0 0 0 0 0 0 0 0 0 0 0 0 0 0 0 0 127 0" result="hardAlpha"/>
<feOffset dx="1" dy="1"/>
<feGaussianBlur stdDeviation="2"/>
<feComposite in2="hardAlpha" operator="out"/>
<feColorMatrix type="matrix" values="0 0 0 0 0 0 0 0 0 0 0 0 0 0 0 0 0 0 0.25 0"/>
<feBlend mode="normal" in2="BackgroundImageFix" result="effect1_dropShadow_526_18732"/>
<feBlend mode="normal" in="SourceGraphic" in2="effect1_dropShadow_526_18732" result="shape"/>
</filter>
</defs>
</svg>
