<svg width="47" height="47" viewBox="0 0 47 47" fill="none" xmlns="http://www.w3.org/2000/svg">
<g filter="url(#filter0_d_526_18740)">
<rect x="3" y="3" width="39" height="39" rx="5" fill="#F94FAF"/>
<path d="M14.237 16.1316V10.8618H15.247L17.5379 14.375V10.8618H18.548V16.1316H17.5379L15.247 12.6184V16.1316H14.237ZM20.2278 16.1316V10.8618H21.2232V16.1316H20.2278ZM24.0403 16.1316L22.4301 10.8618H23.4548L24.7722 15.1947L26.1116 10.8618H27.1363L25.5261 16.1316H24.0403ZM29.7493 10.4593C29.5687 10.4593 29.4028 10.4154 29.2516 10.3275C29.1027 10.2373 28.9832 10.1177 28.8929 9.96891C28.8051 9.81765 28.7612 9.65175 28.7612 9.47121C28.7612 9.28823 28.8051 9.12233 28.8929 8.97351C28.9832 8.82469 29.1027 8.70636 29.2516 8.61853C29.4028 8.52826 29.5687 8.48313 29.7493 8.48313C29.9322 8.48313 30.0981 8.52826 30.247 8.61853C30.3958 8.70636 30.5141 8.82469 30.6019 8.97351C30.6922 9.12233 30.7373 9.28823 30.7373 9.47121C30.7373 9.65175 30.6922 9.81765 30.6019 9.96891C30.5141 10.1177 30.3958 10.2373 30.247 10.3275C30.0981 10.4154 29.9322 10.4593 29.7493 10.4593ZM29.7493 9.87376C29.8615 9.87376 29.9566 9.83472 30.0347 9.75665C30.1128 9.67614 30.1518 9.58099 30.1518 9.47121C30.1518 9.35898 30.1128 9.26383 30.0347 9.18576C29.9566 9.10769 29.8615 9.06866 29.7493 9.06866C29.6395 9.06866 29.5443 9.10769 29.4638 9.18576C29.3857 9.26383 29.3467 9.35898 29.3467 9.47121C29.3467 9.58099 29.3857 9.67614 29.4638 9.75665C29.5443 9.83472 29.6395 9.87376 29.7493 9.87376ZM27.3925 16.1316L29.0027 10.8618H30.4885L32.0987 16.1316H31.074L29.6395 11.484H29.8298L28.4172 16.1316H27.3925ZM28.3586 15.0337V14.1042H31.1399V15.0337H28.3586ZM22.8124 34.3775C22.2167 34.3775 21.6566 34.2546 21.1319 34.0086C20.6128 33.7627 20.1647 33.4212 19.7876 32.984C19.4105 32.5468 19.14 32.0385 18.976 31.4592L21.1238 30.8854C21.1948 31.1641 21.3205 31.4046 21.5008 31.6068C21.6866 31.809 21.8998 31.9675 22.1402 32.0822C22.3861 32.1915 22.6375 32.2462 22.8944 32.2462C23.2332 32.2462 23.542 32.1642 23.8207 32.0003C24.1049 31.8363 24.3289 31.615 24.4929 31.3363C24.6623 31.0576 24.747 30.7488 24.747 30.41C24.747 30.0711 24.6623 29.7624 24.4929 29.4837C24.3289 29.205 24.1049 28.9836 23.8207 28.8197C23.542 28.6557 23.2332 28.5738 22.8944 28.5738C22.4791 28.5738 22.1402 28.6448 21.8779 28.7869C21.6156 28.9235 21.4189 29.0547 21.2877 29.1804L19.4023 28.6065L19.763 22.3273H26.2061V24.4095H20.9926L21.7795 23.6717L21.5336 27.7212L21.1565 27.2622C21.4516 27.0217 21.7877 26.8468 22.1648 26.7375C22.5419 26.6282 22.8944 26.5736 23.2223 26.5736C23.9655 26.5736 24.6186 26.7403 25.1815 27.0736C25.7498 27.4015 26.1925 27.8551 26.5094 28.4344C26.8319 29.0082 26.9931 29.6667 26.9931 30.41C26.9931 31.1532 26.7991 31.8254 26.4111 32.4265C26.0231 33.0222 25.5121 33.4977 24.8782 33.8529C24.2442 34.2026 23.5556 34.3775 22.8124 34.3775Z" fill="#FFE400"/>
</g>
<defs>
<filter id="filter0_d_526_18740" x="0" y="0" width="47" height="47" filterUnits="userSpaceOnUse" color-interpolation-filters="sRGB">
<feFlood flood-opacity="0" result="BackgroundImageFix"/>
<feColorMatrix in="SourceAlpha" type="matrix" values="0 0 0 0 0 0 0 0 0 0 0 0 0 0 0 0 0 0 127 0" result="hardAlpha"/>
<feOffset dx="1" dy="1"/>
<feGaussianBlur stdDeviation="2"/>
<feComposite in2="hardAlpha" operator="out"/>
<feColorMatrix type="matrix" values="0 0 0 0 0 0 0 0 0 0 0 0 0 0 0 0 0 0 0.25 0"/>
<feBlend mode="normal" in2="BackgroundImageFix" result="effect1_dropShadow_526_18740"/>
<feBlend mode="normal" in="SourceGraphic" in2="effect1_dropShadow_526_18740" result="shape"/>
</filter>
</defs>
</svg>
