<svg width="38" height="38" viewBox="0 0 38 38" fill="none" xmlns="http://www.w3.org/2000/svg">
<rect x="2" y="2" width="34" height="34" rx="5" fill="#FDCAE7"/>
<path d="M11.5311 13V8.5H12.3936L14.3499 11.5V8.5H15.2124V13H14.3499L12.3936 10V13H11.5311ZM16.6469 13V8.5H17.4969V13H16.6469ZM19.9025 13L18.5275 8.5H19.4025L20.5275 12.2L21.6712 8.5H22.5462L21.1712 13H19.9025ZM24.7775 8.15625C24.6233 8.15625 24.4817 8.11875 24.3525 8.04375C24.2254 7.96667 24.1233 7.86458 24.0463 7.7375C23.9713 7.60833 23.9338 7.46667 23.9338 7.3125C23.9338 7.15625 23.9713 7.01458 24.0463 6.8875C24.1233 6.76042 24.2254 6.65937 24.3525 6.58437C24.4817 6.50729 24.6233 6.46875 24.7775 6.46875C24.9338 6.46875 25.0754 6.50729 25.2025 6.58437C25.3296 6.65937 25.4306 6.76042 25.5056 6.8875C25.5827 7.01458 25.6213 7.15625 25.6213 7.3125C25.6213 7.46667 25.5827 7.60833 25.5056 7.7375C25.4306 7.86458 25.3296 7.96667 25.2025 8.04375C25.0754 8.11875 24.9338 8.15625 24.7775 8.15625ZM24.7775 7.65625C24.8733 7.65625 24.9546 7.62292 25.0213 7.55625C25.0879 7.4875 25.1213 7.40625 25.1213 7.3125C25.1213 7.21667 25.0879 7.13542 25.0213 7.06875C24.9546 7.00208 24.8733 6.96875 24.7775 6.96875C24.6838 6.96875 24.6025 7.00208 24.5338 7.06875C24.4671 7.13542 24.4338 7.21667 24.4338 7.3125C24.4338 7.40625 24.4671 7.4875 24.5338 7.55625C24.6025 7.62292 24.6838 7.65625 24.7775 7.65625ZM22.765 13L24.14 8.5H25.4088L26.7838 13H25.9088L24.6838 9.03125H24.8463L23.64 13H22.765ZM23.59 12.0625V11.2687H25.965V12.0625H23.59ZM18.8539 28.21C18.3453 28.21 17.8669 28.105 17.4189 27.895C16.9756 27.685 16.5929 27.3933 16.2709 27.02C15.9489 26.6467 15.7179 26.2127 15.5779 25.718L17.4119 25.228C17.4726 25.466 17.5799 25.6713 17.7339 25.844C17.8926 26.0167 18.0746 26.152 18.2799 26.25C18.4899 26.3433 18.7046 26.39 18.9239 26.39C19.2133 26.39 19.4769 26.32 19.7149 26.18C19.9576 26.04 20.1489 25.851 20.2889 25.613C20.4336 25.375 20.5059 25.1113 20.5059 24.822C20.5059 24.5327 20.4336 24.269 20.2889 24.031C20.1489 23.793 19.9576 23.604 19.7149 23.464C19.4769 23.324 19.2133 23.254 18.9239 23.254C18.5693 23.254 18.2799 23.3147 18.0559 23.436C17.8319 23.5527 17.6639 23.6647 17.5519 23.772L15.9419 23.282L16.2499 17.92H21.7519V19.698H17.2999L17.9719 19.068L17.7619 22.526L17.4399 22.134C17.6919 21.9287 17.9789 21.7793 18.3009 21.686C18.6229 21.5927 18.9239 21.546 19.2039 21.546C19.8386 21.546 20.3963 21.6883 20.8769 21.973C21.3623 22.253 21.7403 22.6403 22.0109 23.135C22.2863 23.625 22.4239 24.1873 22.4239 24.822C22.4239 25.4567 22.2583 26.0307 21.9269 26.544C21.5956 27.0527 21.1593 27.4587 20.6179 27.762C20.0766 28.0607 19.4886 28.21 18.8539 28.21Z" fill="#F94FAF"/>
</svg>
