<svg width="47" height="47" viewBox="0 0 47 47" fill="none" xmlns="http://www.w3.org/2000/svg">
<g filter="url(#filter0_d_526_18804)">
<rect x="3" y="3" width="39" height="39" rx="5" fill="#F94FAF"/>
<path d="M14.237 16.1316V10.8618H15.247L17.5379 14.375V10.8618H18.548V16.1316H17.5379L15.247 12.6184V16.1316H14.237ZM20.2278 16.1316V10.8618H21.2232V16.1316H20.2278ZM24.0403 16.1316L22.4301 10.8618H23.4548L24.7722 15.1947L26.1116 10.8618H27.1363L25.5261 16.1316H24.0403ZM29.7493 10.4593C29.5687 10.4593 29.4028 10.4154 29.2516 10.3275C29.1027 10.2373 28.9832 10.1177 28.8929 9.96891C28.8051 9.81765 28.7612 9.65175 28.7612 9.47121C28.7612 9.28823 28.8051 9.12233 28.8929 8.97351C28.9832 8.82469 29.1027 8.70636 29.2516 8.61853C29.4028 8.52826 29.5687 8.48313 29.7493 8.48313C29.9322 8.48313 30.0981 8.52826 30.247 8.61853C30.3958 8.70636 30.5141 8.82469 30.6019 8.97351C30.6922 9.12233 30.7373 9.28823 30.7373 9.47121C30.7373 9.65175 30.6922 9.81765 30.6019 9.96891C30.5141 10.1177 30.3958 10.2373 30.247 10.3275C30.0981 10.4154 29.9322 10.4593 29.7493 10.4593ZM29.7493 9.87376C29.8615 9.87376 29.9566 9.83472 30.0347 9.75665C30.1128 9.67614 30.1518 9.58099 30.1518 9.47121C30.1518 9.35898 30.1128 9.26383 30.0347 9.18576C29.9566 9.10769 29.8615 9.06866 29.7493 9.06866C29.6395 9.06866 29.5443 9.10769 29.4638 9.18576C29.3857 9.26383 29.3467 9.35898 29.3467 9.47121C29.3467 9.58099 29.3857 9.67614 29.4638 9.75665C29.5443 9.83472 29.6395 9.87376 29.7493 9.87376ZM27.3925 16.1316L29.0027 10.8618H30.4885L32.0987 16.1316H31.074L29.6395 11.484H29.8298L28.4172 16.1316H27.3925ZM28.3586 15.0337V14.1042H31.1399V15.0337H28.3586ZM18.856 34.1152V32.1806L23.8072 27.7868C24.1788 27.4589 24.4411 27.1501 24.5941 26.8605C24.7471 26.5709 24.8237 26.3003 24.8237 26.049C24.8237 25.6883 24.7499 25.3686 24.6023 25.0899C24.4548 24.8057 24.2471 24.5844 23.9793 24.4259C23.7115 24.2619 23.3973 24.18 23.0366 24.18C22.6595 24.18 22.3262 24.2674 22.0365 24.4423C21.7524 24.6117 21.531 24.8385 21.3726 25.1227C21.2141 25.4014 21.1403 25.7047 21.1512 26.0326H18.856C18.856 25.2238 19.0336 24.5242 19.3888 23.934C19.744 23.3438 20.2386 22.8875 20.8725 22.5651C21.5064 22.2426 22.2442 22.0814 23.0858 22.0814C23.8564 22.0814 24.5449 22.2508 25.1516 22.5897C25.7636 22.923 26.2445 23.3903 26.5943 23.9914C26.944 24.5926 27.1189 25.2893 27.1189 26.0818C27.1189 26.6665 27.037 27.1529 26.873 27.5409C26.7091 27.9234 26.4659 28.2787 26.1434 28.6065C25.821 28.929 25.4248 29.2951 24.9548 29.705L21.7578 32.5085L21.5775 32.0167H27.1189V34.1152H18.856Z" fill="#FFE400"/>
</g>
<defs>
<filter id="filter0_d_526_18804" x="0" y="0" width="47" height="47" filterUnits="userSpaceOnUse" color-interpolation-filters="sRGB">
<feFlood flood-opacity="0" result="BackgroundImageFix"/>
<feColorMatrix in="SourceAlpha" type="matrix" values="0 0 0 0 0 0 0 0 0 0 0 0 0 0 0 0 0 0 127 0" result="hardAlpha"/>
<feOffset dx="1" dy="1"/>
<feGaussianBlur stdDeviation="2"/>
<feComposite in2="hardAlpha" operator="out"/>
<feColorMatrix type="matrix" values="0 0 0 0 0 0 0 0 0 0 0 0 0 0 0 0 0 0 0.25 0"/>
<feBlend mode="normal" in2="BackgroundImageFix" result="effect1_dropShadow_526_18804"/>
<feBlend mode="normal" in="SourceGraphic" in2="effect1_dropShadow_526_18804" result="shape"/>
</filter>
</defs>
</svg>
