<svg width="38" height="38" viewBox="0 0 38 38" fill="none" xmlns="http://www.w3.org/2000/svg">
<rect x="2" y="2" width="34" height="34" rx="5" fill="#FDCAE7"/>
<path d="M11.5311 13V8.5H12.3936L14.3499 11.5V8.5H15.2124V13H14.3499L12.3936 10V13H11.5311ZM16.6469 13V8.5H17.4969V13H16.6469ZM19.9025 13L18.5275 8.5H19.4025L20.5275 12.2L21.6712 8.5H22.5462L21.1712 13H19.9025ZM24.7775 8.15625C24.6233 8.15625 24.4817 8.11875 24.3525 8.04375C24.2254 7.96667 24.1233 7.86458 24.0463 7.7375C23.9713 7.60833 23.9338 7.46667 23.9338 7.3125C23.9338 7.15625 23.9713 7.01458 24.0463 6.8875C24.1233 6.76042 24.2254 6.65937 24.3525 6.58437C24.4817 6.50729 24.6233 6.46875 24.7775 6.46875C24.9338 6.46875 25.0754 6.50729 25.2025 6.58437C25.3296 6.65937 25.4306 6.76042 25.5056 6.8875C25.5827 7.01458 25.6213 7.15625 25.6213 7.3125C25.6213 7.46667 25.5827 7.60833 25.5056 7.7375C25.4306 7.86458 25.3296 7.96667 25.2025 8.04375C25.0754 8.11875 24.9338 8.15625 24.7775 8.15625ZM24.7775 7.65625C24.8733 7.65625 24.9546 7.62292 25.0213 7.55625C25.0879 7.4875 25.1213 7.40625 25.1213 7.3125C25.1213 7.21667 25.0879 7.13542 25.0213 7.06875C24.9546 7.00208 24.8733 6.96875 24.7775 6.96875C24.6838 6.96875 24.6025 7.00208 24.5338 7.06875C24.4671 7.13542 24.4338 7.21667 24.4338 7.3125C24.4338 7.40625 24.4671 7.4875 24.5338 7.55625C24.6025 7.62292 24.6838 7.65625 24.7775 7.65625ZM22.765 13L24.14 8.5H25.4088L26.7838 13H25.9088L24.6838 9.03125H24.8463L23.64 13H22.765ZM23.59 12.0625V11.2687H25.965V12.0625H23.59ZM18.5513 28V19.992L16.6613 21.154V19.054L18.5513 17.92H20.4973V28H18.5513Z" fill="#F94FAF"/>
</svg>
