<svg width="39" height="41" viewBox="0 0 39 41" fill="none" xmlns="http://www.w3.org/2000/svg">
<path d="M30.9401 39.6539V27.3376H8.70215V39.6539H30.9401Z" fill="white"/>
<path d="M12.146 6.50112C11.7199 5.88964 11.3725 5.33796 10.9713 4.82753C10.2257 3.87783 9.23193 3.50455 8.05618 3.79328C6.93006 4.06963 6.20827 4.82032 5.98904 5.9546C5.76155 7.13528 6.18035 8.10252 7.16583 8.81093C7.25476 8.87486 7.34473 8.93673 7.49777 9.045C5.33654 9.62555 3.24355 10.1886 1.1123 10.7609C1.54248 12.3602 1.96439 13.9296 2.3925 15.5248C9.98888 13.4965 17.5429 11.4786 25.1237 9.45437C24.6874 7.83132 24.2644 6.26292 23.8394 4.68214C21.6916 5.25547 19.5945 5.81642 17.4426 6.39078C17.5149 6.23817 17.5563 6.14743 17.6008 6.05772C18.1157 5.01624 17.9668 3.82834 17.2109 2.96009C16.4695 2.10835 15.3082 1.79281 14.2224 2.14754C13.1304 2.50432 12.3962 3.45093 12.3052 4.61408C12.2587 5.21113 12.2039 5.80714 12.1439 6.50112H12.146Z" fill="white"/>
<path d="M34.6868 1.34619C34.2608 2.11338 33.8523 2.80735 33.4883 3.52504C33.3291 3.83749 33.1161 3.96123 32.7852 4.01588C32.0013 4.14477 31.2247 4.31182 30.3799 4.47475C30.7739 4.89546 31.0913 5.30896 31.4812 5.63378C32.2081 6.23907 32.5132 6.92583 32.235 7.87656C32.0882 8.37977 32.0975 8.92938 32.0292 9.52333C32.8565 9.13665 33.6155 8.79121 34.3642 8.42411C34.5958 8.31068 34.7861 8.31171 35.0157 8.42411C35.7644 8.79018 36.5244 9.13562 37.3517 9.5223C37.241 8.64272 37.148 7.83119 37.0332 7.02276C36.9939 6.74847 37.0352 6.54533 37.2421 6.336C37.8284 5.74411 38.3858 5.12541 38.999 4.47062C38.15 4.3077 37.3703 4.14168 36.5844 4.01382C36.2514 3.9602 36.0405 3.83233 35.8822 3.52092C35.5182 2.80529 35.1108 2.11132 34.6858 1.34722L34.6868 1.34619Z" fill="white"/>
<path d="M22.9191 25.4464C22.8332 22.3241 23.8135 19.6245 26.0213 17.4271C28.2281 15.2317 30.9374 14.2604 34.0406 14.347V13.1395C26.8744 12.7745 21.2718 18.8295 21.7216 25.4464H22.9191Z" fill="white"/>
<path d="M16.1378 15.3772C16.5803 15.8494 16.963 16.3165 17.4066 16.7135C17.7913 17.058 17.8698 17.4199 17.7747 17.9045C17.663 18.4737 17.6268 19.0574 17.5503 19.6946C18.1356 19.4245 18.6682 19.2234 19.1531 18.9409C19.6278 18.6635 20.03 18.6645 20.5047 18.9409C20.9917 19.2244 21.5284 19.4245 22.1055 19.6895C22.0103 18.9429 21.9348 18.2809 21.8376 17.622C21.7952 17.3333 21.8542 17.1178 22.0713 16.9033C22.5532 16.4269 23.0041 15.9206 23.5149 15.3761C22.9751 15.2709 22.5046 15.1286 22.0279 15.0987C21.2751 15.0523 20.8149 14.7059 20.5398 14.0109C20.3651 13.5695 20.0859 13.1694 19.8243 12.6992C19.4406 13.3901 19.1107 14.015 18.7457 14.6172C18.6537 14.7677 18.4603 14.9111 18.2886 14.9503C17.5999 15.1101 16.9019 15.2276 16.1367 15.3751L16.1378 15.3772Z" fill="white"/>
<path d="M15.4515 23.604C15.8568 19.2247 12.0297 15.7837 8.08984 16.2549V17.4438C9.85296 17.349 11.3793 17.8388 12.6212 19.0793C13.8693 20.327 14.3398 21.8686 14.253 23.604H15.4505H15.4515Z" fill="white"/>
<path d="M37.7634 21.1796C33.5878 20.7238 30.6872 22.8924 29.5693 25.7559C29.9106 25.925 30.2529 26.0941 30.5827 26.2571C30.9416 25.6961 31.2373 25.1197 31.6385 24.6268C32.8463 23.145 34.4337 22.4036 36.3498 22.3757C36.8214 22.3685 37.2919 22.3757 37.7624 22.3757V21.1806L37.7634 21.1796Z" fill="white"/>
<path d="M8.46206 26.3149C8.83743 26.085 9.16523 25.8849 9.49097 25.6859C8.08979 22.8688 5.21503 21.4128 1.89355 21.8056V23.0234C4.77244 22.7481 7.04226 23.6741 8.46102 26.3139L8.46206 26.3149Z" fill="white"/>
<path d="M30.351 10.0192C30.3469 9.01384 29.5145 8.18169 28.5062 8.17654C27.4804 8.17138 26.6356 9.01281 26.6387 10.0347C26.6418 11.0401 27.4753 11.8733 28.4835 11.8784C29.5072 11.8836 30.3552 11.0401 30.351 10.0192Z" fill="white"/>
<path d="M35.3044 18.0881C35.3209 17.0807 34.5061 16.229 33.501 16.2042C32.4731 16.1784 31.6075 17.0023 31.592 18.0201C31.5755 19.044 32.411 19.8978 33.4337 19.9051C34.443 19.9123 35.2889 19.0904 35.3044 18.0871V18.0881Z" fill="white"/>
<path d="M12.3921 21.7426C12.3838 20.7372 11.5473 19.9102 10.538 19.9092C9.51322 19.9092 8.67148 20.7537 8.67975 21.7766C8.68802 22.781 9.52563 23.61 10.5339 23.6111C11.5576 23.6121 12.4004 22.7645 12.3921 21.7426Z" fill="white"/>
<path d="M27.2432 21.1434C26.235 21.1485 25.4025 21.9807 25.3994 22.9871C25.3963 24.009 26.2432 24.8515 27.268 24.8453C28.2752 24.8391 29.1087 24.0059 29.1118 23.0005C29.1149 21.9786 28.269 21.1372 27.2432 21.1424V21.1434Z" fill="white"/>
<path d="M30.9401 39.6539H8.70215V27.3376H30.9401V39.6539ZM29.7044 38.4165V28.5843H22.3221V38.4165H29.7044ZM9.93271 38.4051H17.3161V28.574H9.93271V38.4051ZM18.6014 38.4124H21.0398V28.5802H18.6014V38.4124Z" fill="black"/>
<path d="M12.1459 6.50095C12.2058 5.80594 12.2606 5.20993 12.3072 4.61392C12.3992 3.45076 13.1324 2.50415 14.2244 2.14737C15.3102 1.79265 16.4714 2.10922 17.2129 2.95993C17.9688 3.82817 18.1177 5.01607 17.6027 6.05755C17.5583 6.14726 17.5169 6.23903 17.4445 6.39061C19.5964 5.81626 21.6925 5.2553 23.8414 4.68197C24.2664 6.26275 24.6893 7.83115 25.1257 9.45421C17.5448 11.4784 9.99084 13.4964 2.39445 15.5247C1.96531 13.9295 1.5434 12.36 1.11426 10.7607C3.24447 10.1884 5.33849 9.62538 7.49973 9.04483C7.34668 8.93759 7.25672 8.87469 7.16779 8.81076C6.18127 8.10235 5.7635 7.13408 5.991 5.95443C6.20919 4.82015 6.93201 4.06946 8.05813 3.79311C9.23492 3.50438 10.2276 3.87766 10.9732 4.82737C11.3734 5.33779 11.7219 5.88947 12.1479 6.50095H12.1459ZM3.27756 14.012C10.0715 12.1961 16.8261 10.3905 23.6077 8.57875C23.3884 7.76825 23.1816 7.00416 22.9624 6.19469C16.1695 8.01058 9.40658 9.81821 2.62712 11.63C2.85048 12.4497 3.05834 13.2128 3.27653 14.012H3.27756ZM11.543 7.81465C10.9711 6.99178 10.4841 6.25141 9.95568 5.54197C9.51102 4.94492 8.7489 4.78303 8.08192 5.08516C7.43458 5.37904 7.07575 6.05445 7.19364 6.75977C7.31359 7.47643 7.8751 8.05595 8.61757 8.04667C9.56479 8.03429 10.511 7.9023 11.544 7.81362L11.543 7.81465ZM13.3299 7.33207C14.2626 6.89485 15.1426 6.52879 15.974 6.07611C16.5966 5.73789 16.8148 4.95214 16.58 4.28601C16.3401 3.60544 15.6638 3.17132 14.9513 3.2404C14.2554 3.30743 13.6391 3.85601 13.5636 4.53967C13.4654 5.43163 13.4116 6.32978 13.3299 7.33001V7.33207Z" fill="black"/>
<path d="M34.6868 1.34625C35.1108 2.11034 35.5182 2.80431 35.8832 3.51994C36.0414 3.83136 36.2524 3.95819 36.5854 4.01284C37.3713 4.1407 38.1499 4.30672 38.9999 4.46965C38.3867 5.12444 37.8294 5.74417 37.243 6.33502C37.0352 6.54435 36.9949 6.74749 37.0342 7.02178C37.1489 7.83022 37.242 8.64174 37.3527 9.52133C36.5254 9.13464 35.7664 8.7892 35.0167 8.42314C34.7861 8.31074 34.5958 8.30971 34.3652 8.42314C33.6165 8.79023 32.8575 9.13567 32.0302 9.52236C32.0985 8.92841 32.0892 8.3788 32.236 7.87559C32.5131 6.92485 32.2091 6.2381 31.4822 5.6328C31.0913 5.30798 30.7748 4.89449 30.3809 4.47377C31.2247 4.30982 32.0023 4.1438 32.7861 4.0149C33.1181 3.96025 33.3311 3.83651 33.4893 3.52407C33.8533 2.80741 34.2618 2.11343 34.6878 1.34521L34.6868 1.34625ZM35.8532 7.44559C35.5223 6.51857 35.7715 5.8215 36.5667 5.23993C35.5751 5.28633 34.9908 4.83262 34.6878 3.91282C34.3869 4.82437 33.7975 5.27189 32.8275 5.26364C33.6103 5.82769 33.8575 6.5227 33.5338 7.44765C34.3249 6.86917 35.0684 6.8702 35.8532 7.44456V7.44559Z" fill="black"/>
<path d="M22.9191 25.4464H21.7216C21.2718 18.8295 26.8755 12.7745 34.0406 13.1395V14.347C30.9374 14.2604 28.227 15.2317 26.0213 17.4271C23.8135 19.6245 22.8322 22.3241 22.9191 25.4464Z" fill="black"/>
<path d="M16.1377 15.377C16.9029 15.2296 17.6009 15.112 18.2896 14.9522C18.4613 14.912 18.6557 14.7697 18.7467 14.6191C19.1117 14.0169 19.4416 13.3921 19.8252 12.7012C20.0869 13.1714 20.3661 13.5715 20.5408 14.0128C20.8159 14.7078 21.2761 15.0543 22.0289 15.1007C22.5066 15.1306 22.9771 15.2729 23.5159 15.3781C23.0061 15.9215 22.5542 16.4288 22.0723 16.9052C21.8551 17.1197 21.7962 17.3352 21.8386 17.624C21.9358 18.2829 22.0113 18.9449 22.1064 19.6914C21.5284 19.4264 20.9927 19.2264 20.5057 18.9428C20.031 18.6665 19.6277 18.6654 19.1541 18.9428C18.6691 19.2254 18.1366 19.4264 17.5513 19.6966C17.6278 19.0583 17.664 18.4747 17.7757 17.9065C17.8708 17.4218 17.7922 17.0589 17.4076 16.7155C16.9639 16.3175 16.5813 15.8514 16.1387 15.3791L16.1377 15.377ZM21.0837 16.0886C20.3702 16.2216 20.0641 15.8122 19.7984 15.1987C19.605 15.8823 19.2348 16.1741 18.5637 16.1298C18.7912 16.3927 19.0311 16.5598 19.1003 16.7805C19.1758 17.0187 19.0921 17.3064 19.0735 17.6528C19.5771 17.2579 20.0703 17.261 20.5708 17.6291C20.5453 17.1018 20.7159 16.5883 21.0827 16.0886H21.0837Z" fill="black"/>
<path d="M15.4514 23.604H14.254C14.3408 21.8696 13.8714 20.327 12.6222 19.0793C11.3802 17.8388 9.85393 17.349 8.09082 17.4438V16.2549C12.0296 15.7837 15.8578 19.2257 15.4525 23.604H15.4514Z" fill="black"/>
<path d="M37.7634 21.1797V22.3748C37.2929 22.3748 36.8213 22.3686 36.3508 22.3748C34.4336 22.4026 32.8463 23.144 31.6395 24.6258C31.2383 25.1177 30.9425 25.6951 30.5837 26.2561C30.2538 26.0932 29.9116 25.923 29.5703 25.7549C30.6871 22.8904 33.5877 20.7218 37.7644 21.1786L37.7634 21.1797Z" fill="black"/>
<path d="M8.462 26.3146C7.0422 23.6748 4.77342 22.7489 1.89453 23.0242V21.8064C5.21498 21.4135 8.08973 22.8695 9.49195 25.6867C9.16621 25.8857 8.83841 26.0857 8.46303 26.3157L8.462 26.3146Z" fill="black"/>
<path d="M30.351 10.0192C30.3552 11.0401 29.5072 11.8846 28.4835 11.8784C27.4753 11.8733 26.6428 11.0401 26.6387 10.0347C26.6346 9.01179 27.4804 8.17036 28.5062 8.17655C29.5145 8.1817 30.3479 9.01385 30.351 10.0192ZM29.1112 10.0409C29.1184 9.70783 28.8423 9.42116 28.5083 9.41292C28.1743 9.4057 27.8868 9.67999 27.8786 10.0141C27.8713 10.3472 28.1464 10.6348 28.4814 10.6421C28.8144 10.6493 29.1039 10.374 29.1112 10.0409Z" fill="black"/>
<path d="M35.3044 18.0883C35.2878 19.0906 34.4419 19.9135 33.4337 19.9063C32.411 19.8991 31.5765 19.0442 31.592 18.0213C31.6075 17.0025 32.473 16.1796 33.5009 16.2054C34.5061 16.2302 35.3199 17.0819 35.3044 18.0894V18.0883ZM34.0645 18.0533C34.0645 17.7202 33.7812 17.4397 33.4472 17.4397C33.1121 17.4397 32.8319 17.7212 32.8329 18.0553C32.8329 18.3894 33.1162 18.6699 33.4503 18.6689C33.7843 18.6689 34.0666 18.3853 34.0655 18.0533H34.0645Z" fill="black"/>
<path d="M12.3921 21.7426C12.4004 22.7645 11.5566 23.6121 10.5339 23.6111C9.52563 23.61 8.68802 22.781 8.67975 21.7766C8.67148 20.7537 9.51322 19.9081 10.538 19.9092C11.5473 19.9092 12.3838 20.7372 12.3921 21.7426ZM10.5246 21.1455C10.1895 21.1517 9.91341 21.4374 9.91961 21.7704C9.92582 22.1045 10.2133 22.3809 10.5463 22.3747C10.8803 22.3685 11.1574 22.0808 11.1512 21.7488C11.145 21.4157 10.8575 21.1394 10.5235 21.1455H10.5246Z" fill="black"/>
<path d="M27.2432 21.1436C28.269 21.1374 29.1149 21.9799 29.1118 23.0017C29.1087 24.0071 28.2752 24.8403 27.268 24.8465C26.2432 24.8527 25.3963 24.0092 25.3994 22.9883C25.4025 21.9819 26.235 21.1508 27.2432 21.1446V21.1436ZM27.2608 22.38C26.9257 22.3769 26.6424 22.6542 26.6393 22.9883C26.6362 23.3214 26.9144 23.606 27.2494 23.6091C27.5824 23.6122 27.8678 23.3338 27.8719 23.0007C27.875 22.6677 27.5958 22.3841 27.2618 22.38H27.2608Z" fill="black"/>
<path d="M29.7056 38.4154H22.3232V28.5833H29.7056V38.4154Z" fill="#F94FAF"/>
<path d="M9.93359 38.4051V28.574H17.317V38.4051H9.93359Z" fill="#F94FAF"/>
<path d="M18.6025 38.4125V28.5803H21.0409V38.4125H18.6025Z" fill="#26DFD0"/>
<path d="M3.27733 14.0121C3.05914 13.2129 2.85129 12.4499 2.62793 11.6301C9.40738 9.81834 16.1703 8.00968 22.9632 6.19482C23.1824 7.00532 23.3892 7.76838 23.6085 8.57888C16.8269 10.3917 10.0713 12.1972 3.27837 14.0121H3.27733Z" fill="#F94FAF"/>
<path d="M35.8529 7.44532C35.068 6.87096 34.3245 6.86993 33.5334 7.44841C33.8571 6.52345 33.6089 5.82742 32.8271 5.2644C33.7982 5.27265 34.3865 4.82512 34.6875 3.91357C34.9905 4.83337 35.5747 5.28709 36.5664 5.24068C35.7712 5.82226 35.522 6.5183 35.8529 7.44635V7.44532Z" fill="#FFE400"/>
<path d="M21.0845 16.0886C20.7177 16.5884 20.5471 17.1019 20.5726 17.6292C20.0721 17.26 19.5788 17.2569 19.0752 17.6529C19.0938 17.3075 19.1776 17.0187 19.1021 16.7805C19.0328 16.5599 18.7929 16.3928 18.5654 16.1299C19.2366 16.1742 19.6068 15.8824 19.8001 15.1987C20.0659 15.8133 20.372 16.2216 21.0855 16.0886H21.0845Z" fill="#FFE400"/>
<path d="M29.1097 10.041C29.1025 10.374 28.8129 10.6504 28.48 10.6421C28.146 10.6339 27.8699 10.3472 27.8771 10.0142C27.8843 9.68005 28.1718 9.40576 28.5068 9.41298C28.8409 9.4202 29.117 9.70789 29.1097 10.041Z" fill="#AAE23B"/>
<path d="M34.0647 18.053C34.0647 18.3861 33.7834 18.6686 33.4494 18.6686C33.1154 18.6686 32.8331 18.3892 32.832 18.0551C32.832 17.721 33.1112 17.4405 33.4463 17.4395C33.7803 17.4395 34.0626 17.7189 34.0636 18.053H34.0647Z" fill="#AAE23B"/>
<path d="M10.5259 21.1456C10.8599 21.1394 11.1474 21.4158 11.1536 21.7488C11.1598 22.0809 10.8816 22.3686 10.5486 22.3748C10.2157 22.3809 9.92818 22.1046 9.92198 21.7705C9.91577 21.4374 10.1919 21.1518 10.5269 21.1456H10.5259Z" fill="#AAE23B"/>
<path d="M27.2612 22.3809C27.5952 22.384 27.8755 22.6686 27.8713 23.0016C27.8682 23.3347 27.5828 23.6142 27.2488 23.61C26.9148 23.6069 26.6356 23.3223 26.6387 22.9893C26.6418 22.6552 26.9262 22.3778 27.2602 22.3809H27.2612Z" fill="#AAE23B"/>
</svg>
