<svg width="222" height="268" viewBox="0 0 222 268" fill="none" xmlns="http://www.w3.org/2000/svg">
<rect x="0.5" y="0.5" width="221" height="267" rx="10.5" fill="#ECECEC"/>
<path d="M125.583 125.667V121.5H121.417V117.333H125.583V113.167H129.75V117.333H133.917V121.5H129.75V125.667H125.583ZM92.25 154.833C91.1042 154.833 90.123 154.425 89.3063 153.608C88.4896 152.792 88.082 151.811 88.0834 150.667V125.667C88.0834 124.521 88.4917 123.54 89.3084 122.723C90.125 121.906 91.1056 121.499 92.25 121.5H98.8125L102.667 117.333H115.167V121.5H104.49L100.688 125.667H92.25V150.667H125.583V131.917H129.75V150.667C129.75 151.812 129.342 152.794 128.525 153.61C127.708 154.427 126.728 154.835 125.583 154.833H92.25ZM108.917 147.542C111.521 147.542 113.735 146.63 115.558 144.806C117.382 142.983 118.293 140.769 118.292 138.167C118.292 135.562 117.38 133.349 115.556 131.525C113.733 129.701 111.519 128.79 108.917 128.792C106.313 128.792 104.099 129.703 102.275 131.527C100.451 133.351 99.5403 135.564 99.5417 138.167C99.5417 140.771 100.454 142.985 102.277 144.808C104.101 146.632 106.314 147.543 108.917 147.542ZM108.917 143.375C107.458 143.375 106.226 142.872 105.219 141.865C104.212 140.858 103.708 139.625 103.708 138.167C103.708 136.708 104.212 135.476 105.219 134.469C106.226 133.462 107.458 132.958 108.917 132.958C110.375 132.958 111.608 133.462 112.615 134.469C113.622 135.476 114.125 136.708 114.125 138.167C114.125 139.625 113.622 140.858 112.615 141.865C111.608 142.872 110.375 143.375 108.917 143.375Z" fill="#004E8D"/>
<rect x="0.5" y="0.5" width="221" height="267" rx="10.5" stroke="#828282"/>
</svg>
