<svg width="146" height="57" viewBox="0 0 146 57" fill="none" xmlns="http://www.w3.org/2000/svg">
<path d="M28 28.9634L37.0989 38" stroke="#AAE23B" stroke-width="4" stroke-linecap="round" stroke-linejoin="round"/>
<path d="M28 28.9632L37.0989 19.9266" stroke="#AAE23B" stroke-width="4" stroke-linecap="round" stroke-linejoin="round"/>
<path d="M59.6835 25.712H56.7995V34H54.9795V25.712H52.0955V24.2H59.6835V25.712ZM61.504 24.2H63.324V34H61.504V24.2ZM72.1449 32.488V34H65.9429V24.2H67.7629V32.488H72.1449ZM80.2485 32.488V34H74.0465V24.2H75.8665V32.488H80.2485ZM87.848 28.904C88.436 29.0533 88.898 29.338 89.234 29.758C89.5794 30.178 89.752 30.682 89.752 31.27C89.752 32.138 89.4674 32.81 88.898 33.286C88.3287 33.762 87.526 34 86.49 34H82.15V24.2H86.028C87.0454 24.2 87.8387 24.424 88.408 24.872C88.9867 25.32 89.276 25.95 89.276 26.762C89.276 27.2847 89.136 27.7327 88.856 28.106C88.5854 28.47 88.2494 28.736 87.848 28.904ZM83.97 28.33H85.776C86.3174 28.33 86.7327 28.2133 87.022 27.98C87.3114 27.7373 87.456 27.3967 87.456 26.958C87.456 26.5287 87.3114 26.1973 87.022 25.964C86.7327 25.7307 86.3174 25.614 85.776 25.614H83.97V28.33ZM86.238 32.572C86.7794 32.572 87.1947 32.446 87.484 32.194C87.7827 31.9327 87.932 31.5827 87.932 31.144C87.932 30.7053 87.7827 30.36 87.484 30.108C87.1854 29.856 86.7654 29.73 86.224 29.73H83.97V32.572H86.238ZM97.2569 31.774H93.4209L92.6789 34H90.8869L94.1489 24.62C94.2049 24.4707 94.2749 24.3633 94.3589 24.298C94.4523 24.2327 94.5829 24.2 94.7509 24.2H95.9829C96.1416 24.2 96.2676 24.2373 96.3609 24.312C96.4543 24.3773 96.5289 24.4847 96.5849 24.634L99.8609 34H97.9989L97.2569 31.774ZM96.7529 30.248L95.3389 25.978L93.9249 30.248H96.7529ZM104.47 29.674L103.308 30.962V34H101.488V24.2H103.308V28.736L107.27 24.2H109.37L105.66 28.344L109.58 34H107.466L104.47 29.674ZM116.718 31.774H112.882L112.14 34H110.348L113.61 24.62C113.666 24.4707 113.736 24.3633 113.82 24.298C113.913 24.2327 114.044 24.2 114.212 24.2H115.444C115.603 24.2 115.729 24.2373 115.822 24.312C115.915 24.3773 115.99 24.4847 116.046 24.634L119.322 34H117.46L116.718 31.774ZM116.214 30.248L114.8 25.978L113.386 30.248H116.214Z" fill="white"/>
</svg>
