<svg width="60" height="80" viewBox="0 0 60 80" fill="none" xmlns="http://www.w3.org/2000/svg">
<g filter="url(#filter0_d_230_27729)">
<g filter="url(#filter1_d_230_27729)">
<circle cx="30" cy="23.5" r="23.5" fill="url(#paint0_linear_230_27729)"/>
</g>
<path d="M43.5001 18.751C43.4576 19.7261 43.0841 20.3494 42.3803 20.7771C41.5869 21.2604 41.078 21.9502 40.9373 22.8713C40.7347 24.2006 41.235 25.2307 42.3571 25.9507C42.9309 26.3188 43.3246 26.7975 43.4537 27.4734C43.5334 27.8894 43.4885 28.297 43.3307 28.6921C42.8173 29.9805 42.1321 31.1722 41.2737 32.2595C40.5707 33.1496 39.4734 33.3468 38.417 32.7939C37.1271 32.1188 35.6941 32.3399 34.7406 33.3669C34.2201 33.9276 33.9626 34.6004 33.9355 35.359C33.8922 36.5848 33.2241 37.3968 32.0099 37.587C30.6311 37.8028 29.243 37.8089 27.8641 37.5661C26.7737 37.3743 26.0816 36.5298 26.0592 35.4163C26.0236 33.6801 24.6819 32.3577 22.9504 32.4227C22.4956 32.4397 22.0177 32.5905 21.6048 32.7916C20.4386 33.3576 19.3907 33.1457 18.6104 32.125C17.8278 31.1011 17.1937 29.9929 16.7049 28.8012C16.2448 27.6798 16.5797 26.6165 17.6128 25.9723C18.5408 25.3939 19.0682 24.561 19.1015 23.4752C19.1363 22.3299 18.639 21.4236 17.6592 20.8119C17.0831 20.4523 16.681 19.9798 16.5449 19.3023C16.4613 18.8855 16.4938 18.4764 16.65 18.082C17.1643 16.7836 17.8526 15.5834 18.7187 14.4883C19.4247 13.5959 20.5159 13.3995 21.5746 13.9532C22.8653 14.6275 24.2998 14.4064 25.251 13.3817C25.7715 12.821 26.0274 12.1475 26.0568 11.3896C26.104 10.1585 26.7668 9.35265 27.9817 9.16164C29.3706 8.94356 30.768 8.94124 32.1561 9.18638C33.2024 9.37044 33.9154 10.235 33.934 11.3014C33.9649 13.0724 35.3167 14.4041 37.0699 14.3259C37.5153 14.3058 37.9824 14.155 38.3876 13.9578C39.5662 13.384 40.5962 13.599 41.3982 14.6461C42.1823 15.6692 42.8173 16.779 43.2944 17.9753C43.4104 18.2653 43.4568 18.5824 43.5001 18.7517V18.751ZM20.5592 32.1806C20.7147 32.1195 20.973 32.0414 21.2088 31.92C22.0858 31.4699 23.0053 31.3478 23.9572 31.5751C25.746 32.002 26.9431 33.5139 26.9848 35.3621C27.0003 36.0566 27.3993 36.5391 28.0737 36.6489C29.301 36.8492 30.5337 36.843 31.7625 36.6737C32.6302 36.5546 32.9828 36.1092 33.0106 35.2268C33.0408 34.2748 33.395 33.4427 34.0376 32.7444C35.2788 31.3972 37.1874 31.0848 38.823 31.9455C39.5174 32.3113 40.1114 32.217 40.5529 31.6548C41.3425 30.6479 41.9828 29.5521 42.443 28.3581C42.5249 28.1446 42.5412 27.8863 42.518 27.6559C42.4739 27.2174 42.1731 26.9521 41.8173 26.7225C40.662 25.9777 40.0101 24.919 39.9606 23.5379C39.9041 21.9757 40.5947 20.7964 41.9039 19.9643C42.5071 19.5807 42.6989 18.993 42.4329 18.3403C41.9875 17.246 41.3935 16.2392 40.7076 15.2771C40.2227 14.5982 39.526 14.3886 38.7518 14.8309C37.9081 15.3127 36.9778 15.3986 36.0344 15.1735C34.248 14.7466 33.0532 13.2402 33.0068 11.3865C32.9898 10.6913 32.5915 10.2095 31.9179 10.0997C30.6906 9.90017 29.4579 9.90404 28.2291 10.0742C27.3591 10.1948 27.0204 10.6364 26.9786 11.5203C26.9183 12.8156 26.3499 13.8643 25.275 14.585C23.9526 15.472 22.5575 15.513 21.1423 14.7892C20.4672 14.4435 19.8733 14.5378 19.4387 15.0931C18.6499 16.1007 18.0072 17.1958 17.5486 18.3906C17.4667 18.604 17.4481 18.8623 17.4721 19.092C17.5177 19.5289 17.8139 19.8004 18.1743 20.0246C19.5601 20.8877 20.2576 22.4397 19.9808 24.0436C19.7751 25.2346 19.1316 26.1301 18.1124 26.7681C17.4999 27.1517 17.2934 27.7177 17.5409 28.3519C18.0103 29.5536 18.6545 30.6572 19.4487 31.6733C19.7024 31.9981 20.0426 32.1528 20.5592 32.1806Z" fill="black"/>
<path d="M20.5592 32.1806C20.0434 32.152 19.7024 31.9981 19.4487 31.6733C18.6545 30.6572 18.0111 29.5536 17.5409 28.3519C17.2934 27.7177 17.4991 27.1517 18.1124 26.7681C19.1316 26.1301 19.7751 25.2346 19.9808 24.0436C20.2576 22.4397 19.5601 20.8877 18.1743 20.0246C17.8139 19.8004 17.5177 19.5289 17.4721 19.092C17.4481 18.8615 17.4667 18.604 17.5486 18.3906C18.008 17.1958 18.6499 16.1007 19.4387 15.0931C19.8733 14.5386 20.4664 14.4443 21.1423 14.7892C22.5575 15.513 23.9534 15.4728 25.275 14.585C26.3499 13.8635 26.9183 12.8156 26.9786 11.5203C27.0196 10.6364 27.3591 10.1948 28.2291 10.0742C29.4579 9.90403 30.6906 9.89939 31.9179 10.0997C32.5915 10.2095 32.9897 10.6913 33.0068 11.3865C33.0532 13.2402 34.248 14.7466 36.0344 15.1735C36.977 15.3986 37.9081 15.3135 38.7518 14.8309C39.5259 14.3886 40.2227 14.5982 40.7076 15.2771C41.3943 16.2392 41.9875 17.2468 42.4329 18.3403C42.6989 18.993 42.5064 19.5807 41.9039 19.9643C40.5947 20.7964 39.9041 21.9757 39.9606 23.5379C40.0101 24.919 40.6627 25.9777 41.8173 26.7225C42.1731 26.9521 42.4739 27.2182 42.518 27.6559C42.5412 27.8863 42.5249 28.1446 42.443 28.358C41.9836 29.5528 41.3425 30.6487 40.5529 31.6548C40.1121 32.2177 39.5182 32.3113 38.823 31.9455C37.1874 31.0848 35.2788 31.3972 34.0376 32.7444C33.3942 33.4419 33.0408 34.2748 33.0106 35.2268C32.9828 36.1092 32.6301 36.5546 31.7625 36.6737C30.5336 36.843 29.301 36.8492 28.0737 36.6489C27.3993 36.5391 27.0003 36.0566 26.9848 35.3621C26.9431 33.5139 25.7459 32.002 23.9572 31.5751C23.0053 31.3477 22.085 31.4699 21.2088 31.92C20.9729 32.0407 20.7147 32.1188 20.5592 32.1806ZM24.7917 23.3554C24.7886 26.2229 27.1356 28.5823 29.9892 28.58C32.8444 28.5777 35.1922 26.2399 35.1968 23.3956C35.2015 20.5265 32.8575 18.1694 30 18.1709C27.1472 18.1725 24.794 20.5141 24.7909 23.3554H24.7917Z" fill="#BDBDBD"/>
<path d="M24.7924 23.3554C24.7955 20.5141 27.1488 18.1725 30.0016 18.1709C32.8583 18.1694 35.203 20.5265 35.1984 23.3956C35.1938 26.2399 32.8451 28.5777 29.9908 28.58C27.1364 28.5823 24.7901 26.2229 24.7932 23.3554H24.7924ZM29.9552 27.6296C32.2667 27.6783 34.1931 25.806 34.2433 23.4613C34.2936 21.0957 32.4399 19.1716 30.0681 19.1268C27.7187 19.0827 25.8071 20.9256 25.7491 23.2904C25.6911 25.6522 27.5594 27.5793 29.956 27.6303L29.9552 27.6296Z" fill="black"/>
</g>
<g filter="url(#filter2_d_230_27729)">
<path d="M7.24027 60.364L7.18427 60.882L7.49227 60.49L10.8523 56.696H13.4843L9.22827 61.316L13.4983 67H10.9223L7.74427 62.604L7.24027 63.108V67H5.18227V56.696H7.24027V60.364ZM13.6408 61.862C13.6408 61.1527 13.7761 60.4807 14.0468 59.846C14.3174 59.2113 14.6908 58.6513 15.1668 58.166C15.6521 57.6713 16.2121 57.284 16.8468 57.004C17.4814 56.724 18.1628 56.584 18.8908 56.584C19.6094 56.584 20.2861 56.724 20.9208 57.004C21.5554 57.284 22.1154 57.6713 22.6008 58.166C23.0954 58.6513 23.4781 59.2113 23.7488 59.846C24.0288 60.4807 24.1688 61.1527 24.1688 61.862C24.1688 62.59 24.0288 63.2713 23.7488 63.906C23.4781 64.5407 23.0954 65.1007 22.6008 65.586C22.1154 66.062 21.5554 66.4353 20.9208 66.706C20.2861 66.9767 19.6094 67.112 18.8908 67.112C18.1628 67.112 17.4814 66.9767 16.8468 66.706C16.2121 66.4353 15.6521 66.062 15.1668 65.586C14.6908 65.1007 14.3174 64.5407 14.0468 63.906C13.7761 63.2713 13.6408 62.59 13.6408 61.862ZM15.7408 61.862C15.7408 62.3193 15.8201 62.7487 15.9788 63.15C16.1468 63.542 16.3754 63.892 16.6648 64.2C16.9634 64.4987 17.3041 64.732 17.6868 64.9C18.0788 65.068 18.5034 65.152 18.9608 65.152C19.3994 65.152 19.8054 65.068 20.1788 64.9C20.5614 64.732 20.8928 64.4987 21.1728 64.2C21.4528 63.892 21.6721 63.542 21.8308 63.15C21.9894 62.7487 22.0688 62.3193 22.0688 61.862C22.0688 61.3953 21.9848 60.9613 21.8168 60.56C21.6581 60.1587 21.4341 59.8087 21.1448 59.51C20.8648 59.202 20.5334 58.964 20.1508 58.796C19.7681 58.628 19.3528 58.544 18.9048 58.544C18.4568 58.544 18.0414 58.628 17.6588 58.796C17.2761 58.964 16.9401 59.202 16.6508 59.51C16.3614 59.8087 16.1374 60.1587 15.9788 60.56C15.8201 60.9613 15.7408 61.3953 15.7408 61.862ZM35.2787 67.42L27.4667 60.364L28.0687 60.7L28.1107 67H26.0527V56.29H26.1367L33.7807 63.318L33.3327 63.122L33.2907 56.696H35.3347V67.42H35.2787ZM37.1482 56.696H44.0922V58.656H41.5862V67H39.5562V58.656H37.1482V56.696ZM44.9259 61.862C44.9259 61.1527 45.0612 60.4807 45.3319 59.846C45.6025 59.2113 45.9759 58.6513 46.4519 58.166C46.9372 57.6713 47.4972 57.284 48.1319 57.004C48.7665 56.724 49.4479 56.584 50.1759 56.584C50.8945 56.584 51.5712 56.724 52.2059 57.004C52.8405 57.284 53.4005 57.6713 53.8859 58.166C54.3805 58.6513 54.7632 59.2113 55.0339 59.846C55.3139 60.4807 55.4539 61.1527 55.4539 61.862C55.4539 62.59 55.3139 63.2713 55.0339 63.906C54.7632 64.5407 54.3805 65.1007 53.8859 65.586C53.4005 66.062 52.8405 66.4353 52.2059 66.706C51.5712 66.9767 50.8945 67.112 50.1759 67.112C49.4479 67.112 48.7665 66.9767 48.1319 66.706C47.4972 66.4353 46.9372 66.062 46.4519 65.586C45.9759 65.1007 45.6025 64.5407 45.3319 63.906C45.0612 63.2713 44.9259 62.59 44.9259 61.862ZM47.0259 61.862C47.0259 62.3193 47.1052 62.7487 47.2639 63.15C47.4319 63.542 47.6605 63.892 47.9499 64.2C48.2485 64.4987 48.5892 64.732 48.9719 64.9C49.3639 65.068 49.7885 65.152 50.2459 65.152C50.6845 65.152 51.0905 65.068 51.4639 64.9C51.8465 64.732 52.1779 64.4987 52.4579 64.2C52.7379 63.892 52.9572 63.542 53.1159 63.15C53.2745 62.7487 53.3539 62.3193 53.3539 61.862C53.3539 61.3953 53.2699 60.9613 53.1019 60.56C52.9432 60.1587 52.7192 59.8087 52.4299 59.51C52.1499 59.202 51.8185 58.964 51.4359 58.796C51.0532 58.628 50.6379 58.544 50.1899 58.544C49.7419 58.544 49.3265 58.628 48.9439 58.796C48.5612 58.964 48.2252 59.202 47.9359 59.51C47.6465 59.8087 47.4225 60.1587 47.2639 60.56C47.1052 60.9613 47.0259 61.3953 47.0259 61.862Z" fill="#F5F5F5"/>
</g>
<defs>
<filter id="filter0_d_230_27729" x="2.5" y="0" width="55" height="55" filterUnits="userSpaceOnUse" color-interpolation-filters="sRGB">
<feFlood flood-opacity="0" result="BackgroundImageFix"/>
<feColorMatrix in="SourceAlpha" type="matrix" values="0 0 0 0 0 0 0 0 0 0 0 0 0 0 0 0 0 0 127 0" result="hardAlpha"/>
<feOffset dy="4"/>
<feGaussianBlur stdDeviation="2"/>
<feComposite in2="hardAlpha" operator="out"/>
<feColorMatrix type="matrix" values="0 0 0 0 0 0 0 0 0 0 0 0 0 0 0 0 0 0 0.25 0"/>
<feBlend mode="normal" in2="BackgroundImageFix" result="effect1_dropShadow_230_27729"/>
<feBlend mode="normal" in="SourceGraphic" in2="effect1_dropShadow_230_27729" result="shape"/>
</filter>
<filter id="filter1_d_230_27729" x="2.5" y="0" width="55" height="55" filterUnits="userSpaceOnUse" color-interpolation-filters="sRGB">
<feFlood flood-opacity="0" result="BackgroundImageFix"/>
<feColorMatrix in="SourceAlpha" type="matrix" values="0 0 0 0 0 0 0 0 0 0 0 0 0 0 0 0 0 0 127 0" result="hardAlpha"/>
<feOffset dy="4"/>
<feGaussianBlur stdDeviation="2"/>
<feComposite in2="hardAlpha" operator="out"/>
<feColorMatrix type="matrix" values="0 0 0 0 0 0 0 0 0 0 0 0 0 0 0 0 0 0 0.25 0"/>
<feBlend mode="normal" in2="BackgroundImageFix" result="effect1_dropShadow_230_27729"/>
<feBlend mode="normal" in="SourceGraphic" in2="effect1_dropShadow_230_27729" result="shape"/>
</filter>
<filter id="filter2_d_230_27729" x="1.18227" y="55.29" width="58.2716" height="19.13" filterUnits="userSpaceOnUse" color-interpolation-filters="sRGB">
<feFlood flood-opacity="0" result="BackgroundImageFix"/>
<feColorMatrix in="SourceAlpha" type="matrix" values="0 0 0 0 0 0 0 0 0 0 0 0 0 0 0 0 0 0 127 0" result="hardAlpha"/>
<feOffset dy="3"/>
<feGaussianBlur stdDeviation="2"/>
<feComposite in2="hardAlpha" operator="out"/>
<feColorMatrix type="matrix" values="0 0 0 0 0 0 0 0 0 0 0 0 0 0 0 0 0 0 0.25 0"/>
<feBlend mode="normal" in2="BackgroundImageFix" result="effect1_dropShadow_230_27729"/>
<feBlend mode="normal" in="SourceGraphic" in2="effect1_dropShadow_230_27729" result="shape"/>
</filter>
<linearGradient id="paint0_linear_230_27729" x1="18.5" y1="11" x2="46.5" y2="39.5" gradientUnits="userSpaceOnUse">
<stop offset="0.0729167" stop-color="#828282"/>
<stop offset="1" stop-color="#BDBDBD"/>
</linearGradient>
</defs>
</svg>
