<svg width="64" height="84" viewBox="0 0 64 84" fill="none" xmlns="http://www.w3.org/2000/svg">
<g filter="url(#filter0_d_230_27675)">
<g filter="url(#filter1_d_230_27675)">
<path d="M55.5707 27.5354C55.5707 40.5336 45.0336 51.0707 32.0354 51.0707C19.0371 51.0707 8.5 40.5336 8.5 27.5354C8.5 14.5371 19.0371 4 32.0354 4C45.0336 4 55.5707 14.5371 55.5707 27.5354Z" fill="url(#paint0_linear_230_27675)" shape-rendering="crispEdges"/>
</g>
<path d="M19.5 27.2188H20.9688M32.7188 14V15.4688M44.4688 27.2188H45.9375M23.3187 17.8188L24.3469 18.8469M42.1187 17.8188L41.0906 18.8469" stroke="black" stroke-width="1.17677" stroke-linecap="round" stroke-linejoin="round"/>
<path d="M28.3125 33.0938C27.0794 32.169 26.1686 30.8796 25.709 29.4084C25.2495 27.9372 25.2644 26.3587 25.7519 24.8965C26.2393 23.4342 27.1744 22.1624 28.4248 21.2612C29.6752 20.36 31.1774 19.875 32.7188 19.875C34.2601 19.875 35.7623 20.36 37.0127 21.2612C38.2631 22.1624 39.1982 23.4342 39.6856 24.8965C40.1731 26.3587 40.188 27.9372 39.7285 29.4084C39.2689 30.8796 38.3581 32.169 37.125 33.0938C36.5516 33.6614 36.1198 34.3561 35.8646 35.1215C35.6095 35.887 35.5381 36.7018 35.6562 37.5C35.6562 38.2791 35.3468 39.0262 34.7959 39.5771C34.245 40.128 33.4978 40.4375 32.7188 40.4375C31.9397 40.4375 31.1925 40.128 30.6416 39.5771C30.0907 39.0262 29.7812 38.2791 29.7812 37.5C29.8994 36.7018 29.828 35.887 29.5729 35.1215C29.3177 34.3561 28.8859 33.6614 28.3125 33.0938Z" fill="#FFE400" stroke="black" stroke-width="0.941414" stroke-linecap="round" stroke-linejoin="round"/>
<path d="M29.3406 34.5625H36.0969" stroke="black" stroke-width="0.941414" stroke-linecap="round" stroke-linejoin="round"/>
<path fill-rule="evenodd" clip-rule="evenodd" d="M32 55C46.9117 55 59 42.6878 59 27.5C59 12.3122 46.9117 0 32 0C17.0883 0 5 12.3122 5 27.5C5 42.6878 17.0883 55 32 55ZM32 51C44.7427 51 55.0727 40.4787 55.0727 27.5C55.0727 14.5213 44.7427 4 32 4C19.2573 4 8.92727 14.5213 8.92727 27.5C8.92727 40.4787 19.2573 51 32 51Z" fill="white"/>
<path d="M54.9227 27.5C54.9227 40.3985 44.6573 50.85 32 50.85C19.3427 50.85 9.07728 40.3985 9.07728 27.5C9.07728 14.6015 19.3427 4.15 32 4.15C44.6573 4.15 54.9227 14.6015 54.9227 27.5Z" stroke="#02236A" stroke-opacity="0.5" stroke-width="0.3"/>
</g>
<g filter="url(#filter2_d_230_27675)">
<path d="M17.8625 60.696H24.8065V62.656H22.3005V71H20.2705V62.656H17.8625V60.696ZM26.6256 60.696H28.6556V71H26.6256V60.696ZM34.297 60.696C35.1464 60.696 35.865 60.8407 36.453 61.13C37.041 61.41 37.489 61.8113 37.797 62.334C38.105 62.8473 38.259 63.4587 38.259 64.168C38.259 64.588 38.1937 65.0127 38.063 65.442C37.9417 65.862 37.741 66.2447 37.461 66.59C37.1904 66.9353 36.8217 67.2153 36.355 67.43C35.8977 67.6353 35.333 67.738 34.661 67.738H33.205V71H31.175V60.696H34.297ZM34.647 65.764C34.955 65.764 35.2117 65.7127 35.417 65.61C35.6224 65.498 35.781 65.3627 35.893 65.204C36.0144 65.036 36.0984 64.8633 36.145 64.686C36.201 64.5087 36.229 64.3547 36.229 64.224C36.229 64.1213 36.2104 63.986 36.173 63.818C36.145 63.6407 36.0797 63.4633 35.977 63.286C35.8744 63.1087 35.7157 62.9593 35.501 62.838C35.2957 62.7167 35.0157 62.656 34.661 62.656H33.205V65.764H34.647ZM45.4374 63.188C45.0454 62.9733 44.6441 62.796 44.2334 62.656C43.8321 62.516 43.4541 62.446 43.0994 62.446C42.6608 62.446 42.3154 62.5347 42.0634 62.712C41.8114 62.8893 41.6854 63.1553 41.6854 63.51C41.6854 63.7527 41.7788 63.972 41.9654 64.168C42.1614 64.3547 42.4088 64.5227 42.7074 64.672C43.0154 64.8213 43.3328 64.9567 43.6594 65.078C43.9581 65.19 44.2521 65.3253 44.5414 65.484C44.8401 65.6333 45.1061 65.8247 45.3394 66.058C45.5728 66.282 45.7594 66.5667 45.8994 66.912C46.0394 67.248 46.1094 67.6633 46.1094 68.158C46.1094 68.6807 45.9741 69.166 45.7034 69.614C45.4328 70.062 45.0361 70.426 44.5134 70.706C43.9908 70.9767 43.3468 71.112 42.5814 71.112C42.1894 71.112 41.7881 71.0747 41.3774 71C40.9761 70.916 40.5794 70.7947 40.1874 70.636C39.7954 70.468 39.4174 70.258 39.0534 70.006L39.9494 68.424C40.1921 68.6013 40.4534 68.76 40.7334 68.9C41.0228 69.0307 41.3121 69.1333 41.6014 69.208C41.8908 69.2827 42.1568 69.32 42.3994 69.32C42.6421 69.32 42.8848 69.2873 43.1274 69.222C43.3794 69.1473 43.5848 69.026 43.7434 68.858C43.9114 68.69 43.9954 68.4567 43.9954 68.158C43.9954 67.9527 43.9254 67.766 43.7854 67.598C43.6548 67.43 43.4728 67.276 43.2394 67.136C43.0154 66.996 42.7681 66.8747 42.4974 66.772C42.1801 66.6507 41.8534 66.5107 41.5174 66.352C41.1814 66.1933 40.8641 66.002 40.5654 65.778C40.2761 65.5447 40.0381 65.26 39.8514 64.924C39.6741 64.5787 39.5854 64.1587 39.5854 63.664C39.5854 63.0667 39.7161 62.5487 39.9774 62.11C40.2481 61.6713 40.6261 61.326 41.1114 61.074C41.5968 60.8127 42.1568 60.668 42.7914 60.64C43.6221 60.64 44.2941 60.738 44.8074 60.934C45.3301 61.13 45.7968 61.3633 46.2074 61.634L45.4374 63.188Z" fill="#FFE400"/>
</g>
<defs>
<filter id="filter0_d_230_27675" x="0.993982" y="0" width="62.012" height="63.012" filterUnits="userSpaceOnUse" color-interpolation-filters="sRGB">
<feFlood flood-opacity="0" result="BackgroundImageFix"/>
<feColorMatrix in="SourceAlpha" type="matrix" values="0 0 0 0 0 0 0 0 0 0 0 0 0 0 0 0 0 0 127 0" result="hardAlpha"/>
<feOffset dy="4.00602"/>
<feGaussianBlur stdDeviation="2.00301"/>
<feComposite in2="hardAlpha" operator="out"/>
<feColorMatrix type="matrix" values="0 0 0 0 0 0 0 0 0 0 0 0 0 0 0 0 0 0 0.25 0"/>
<feBlend mode="normal" in2="BackgroundImageFix" result="effect1_dropShadow_230_27675"/>
<feBlend mode="normal" in="SourceGraphic" in2="effect1_dropShadow_230_27675" result="shape"/>
</filter>
<filter id="filter1_d_230_27675" x="4.49398" y="4" width="55.0827" height="55.0827" filterUnits="userSpaceOnUse" color-interpolation-filters="sRGB">
<feFlood flood-opacity="0" result="BackgroundImageFix"/>
<feColorMatrix in="SourceAlpha" type="matrix" values="0 0 0 0 0 0 0 0 0 0 0 0 0 0 0 0 0 0 127 0" result="hardAlpha"/>
<feOffset dy="4.00602"/>
<feGaussianBlur stdDeviation="2.00301"/>
<feComposite in2="hardAlpha" operator="out"/>
<feColorMatrix type="matrix" values="0 0 0 0 0 0 0 0 0 0 0 0 0 0 0 0 0 0 0.25 0"/>
<feBlend mode="normal" in2="BackgroundImageFix" result="effect1_dropShadow_230_27675"/>
<feBlend mode="normal" in="SourceGraphic" in2="effect1_dropShadow_230_27675" result="shape"/>
</filter>
<filter id="filter2_d_230_27675" x="13.8625" y="59.64" width="36.345" height="18.472" filterUnits="userSpaceOnUse" color-interpolation-filters="sRGB">
<feFlood flood-opacity="0" result="BackgroundImageFix"/>
<feColorMatrix in="SourceAlpha" type="matrix" values="0 0 0 0 0 0 0 0 0 0 0 0 0 0 0 0 0 0 127 0" result="hardAlpha"/>
<feOffset dy="3"/>
<feGaussianBlur stdDeviation="2"/>
<feComposite in2="hardAlpha" operator="out"/>
<feColorMatrix type="matrix" values="0 0 0 0 0 0 0 0 0 0 0 0 0 0 0 0 0 0 0.25 0"/>
<feBlend mode="normal" in2="BackgroundImageFix" result="effect1_dropShadow_230_27675"/>
<feBlend mode="normal" in="SourceGraphic" in2="effect1_dropShadow_230_27675" result="shape"/>
</filter>
<linearGradient id="paint0_linear_230_27675" x1="20.0173" y1="19.5233" x2="45.5557" y2="45.0617" gradientUnits="userSpaceOnUse">
<stop offset="0.0729167" stop-color="#FF008C"/>
<stop offset="1" stop-color="#FF4500" stop-opacity="0.85"/>
</linearGradient>
</defs>
</svg>
