<svg width="60" height="80" viewBox="0 0 60 80" fill="none" xmlns="http://www.w3.org/2000/svg">
<g filter="url(#filter0_d_230_27325)">
<g filter="url(#filter1_d_230_27325)">
<path d="M53.5707 23.5354C53.5707 36.5336 43.0336 47.0707 30.0354 47.0707C17.0371 47.0707 6.5 36.5336 6.5 23.5354C6.5 10.5371 17.0371 0 30.0354 0C43.0336 0 53.5707 10.5371 53.5707 23.5354Z" fill="url(#paint0_linear_230_27325)" shape-rendering="crispEdges"/>
</g>
<path d="M17.5 23.2188H18.9688M30.7188 10V11.4688M42.4688 23.2188H43.9375M21.3187 13.8188L22.3469 14.8469M40.1187 13.8188L39.0906 14.8469" stroke="black" stroke-width="1.17677" stroke-linecap="round" stroke-linejoin="round"/>
<path d="M26.3125 29.0938C25.0794 28.169 24.1686 26.8796 23.709 25.4084C23.2495 23.9372 23.2644 22.3587 23.7519 20.8965C24.2393 19.4342 25.1744 18.1624 26.4248 17.2612C27.6752 16.36 29.1774 15.875 30.7188 15.875C32.2601 15.875 33.7623 16.36 35.0127 17.2612C36.2631 18.1624 37.1982 19.4342 37.6856 20.8965C38.1731 22.3587 38.188 23.9372 37.7285 25.4084C37.2689 26.8796 36.3581 28.169 35.125 29.0938C34.5516 29.6614 34.1198 30.3561 33.8646 31.1215C33.6095 31.887 33.5381 32.7018 33.6562 33.5C33.6562 34.2791 33.3468 35.0262 32.7959 35.5771C32.245 36.128 31.4978 36.4375 30.7188 36.4375C29.9397 36.4375 29.1925 36.128 28.6416 35.5771C28.0907 35.0262 27.7812 34.2791 27.7812 33.5C27.8994 32.7018 27.828 31.887 27.5729 31.1215C27.3177 30.3561 26.8859 29.6614 26.3125 29.0938Z" fill="#FFE400" stroke="black" stroke-width="0.941414" stroke-linecap="round" stroke-linejoin="round"/>
<path d="M27.3406 30.5625H34.0969" stroke="black" stroke-width="0.941414" stroke-linecap="round" stroke-linejoin="round"/>
</g>
<g filter="url(#filter2_d_230_27325)">
<path d="M15.8625 56.696H22.8065V58.656H20.3005V67H18.2705V58.656H15.8625V56.696ZM24.6256 56.696H26.6556V67H24.6256V56.696ZM32.297 56.696C33.1464 56.696 33.865 56.8407 34.453 57.13C35.041 57.41 35.489 57.8113 35.797 58.334C36.105 58.8473 36.259 59.4587 36.259 60.168C36.259 60.588 36.1937 61.0127 36.063 61.442C35.9417 61.862 35.741 62.2447 35.461 62.59C35.1904 62.9353 34.8217 63.2153 34.355 63.43C33.8977 63.6353 33.333 63.738 32.661 63.738H31.205V67H29.175V56.696H32.297ZM32.647 61.764C32.955 61.764 33.2117 61.7127 33.417 61.61C33.6224 61.498 33.781 61.3627 33.893 61.204C34.0144 61.036 34.0984 60.8633 34.145 60.686C34.201 60.5087 34.229 60.3547 34.229 60.224C34.229 60.1213 34.2104 59.986 34.173 59.818C34.145 59.6407 34.0797 59.4633 33.977 59.286C33.8744 59.1087 33.7157 58.9593 33.501 58.838C33.2957 58.7167 33.0157 58.656 32.661 58.656H31.205V61.764H32.647ZM43.4374 59.188C43.0454 58.9733 42.6441 58.796 42.2334 58.656C41.8321 58.516 41.4541 58.446 41.0994 58.446C40.6608 58.446 40.3154 58.5347 40.0634 58.712C39.8114 58.8893 39.6854 59.1553 39.6854 59.51C39.6854 59.7527 39.7788 59.972 39.9654 60.168C40.1614 60.3547 40.4088 60.5227 40.7074 60.672C41.0154 60.8213 41.3328 60.9567 41.6594 61.078C41.9581 61.19 42.2521 61.3253 42.5414 61.484C42.8401 61.6333 43.1061 61.8247 43.3394 62.058C43.5728 62.282 43.7594 62.5667 43.8994 62.912C44.0394 63.248 44.1094 63.6633 44.1094 64.158C44.1094 64.6807 43.9741 65.166 43.7034 65.614C43.4328 66.062 43.0361 66.426 42.5134 66.706C41.9908 66.9767 41.3468 67.112 40.5814 67.112C40.1894 67.112 39.7881 67.0747 39.3774 67C38.9761 66.916 38.5794 66.7947 38.1874 66.636C37.7954 66.468 37.4174 66.258 37.0534 66.006L37.9494 64.424C38.1921 64.6013 38.4534 64.76 38.7334 64.9C39.0228 65.0307 39.3121 65.1333 39.6014 65.208C39.8908 65.2827 40.1568 65.32 40.3994 65.32C40.6421 65.32 40.8848 65.2873 41.1274 65.222C41.3794 65.1473 41.5848 65.026 41.7434 64.858C41.9114 64.69 41.9954 64.4567 41.9954 64.158C41.9954 63.9527 41.9254 63.766 41.7854 63.598C41.6548 63.43 41.4728 63.276 41.2394 63.136C41.0154 62.996 40.7681 62.8747 40.4974 62.772C40.1801 62.6507 39.8534 62.5107 39.5174 62.352C39.1814 62.1933 38.8641 62.002 38.5654 61.778C38.2761 61.5447 38.0381 61.26 37.8514 60.924C37.6741 60.5787 37.5854 60.1587 37.5854 59.664C37.5854 59.0667 37.7161 58.5487 37.9774 58.11C38.2481 57.6713 38.6261 57.326 39.1114 57.074C39.5968 56.8127 40.1568 56.668 40.7914 56.64C41.6221 56.64 42.2941 56.738 42.8074 56.934C43.3301 57.13 43.7968 57.3633 44.2074 57.634L43.4374 59.188Z" fill="#F5F5F5"/>
</g>
<defs>
<filter id="filter0_d_230_27325" x="2.49398" y="0" width="55.0827" height="55.0827" filterUnits="userSpaceOnUse" color-interpolation-filters="sRGB">
<feFlood flood-opacity="0" result="BackgroundImageFix"/>
<feColorMatrix in="SourceAlpha" type="matrix" values="0 0 0 0 0 0 0 0 0 0 0 0 0 0 0 0 0 0 127 0" result="hardAlpha"/>
<feOffset dy="4.00602"/>
<feGaussianBlur stdDeviation="2.00301"/>
<feComposite in2="hardAlpha" operator="out"/>
<feColorMatrix type="matrix" values="0 0 0 0 0 0 0 0 0 0 0 0 0 0 0 0 0 0 0.25 0"/>
<feBlend mode="normal" in2="BackgroundImageFix" result="effect1_dropShadow_230_27325"/>
<feBlend mode="normal" in="SourceGraphic" in2="effect1_dropShadow_230_27325" result="shape"/>
</filter>
<filter id="filter1_d_230_27325" x="2.49398" y="0" width="55.0827" height="55.0827" filterUnits="userSpaceOnUse" color-interpolation-filters="sRGB">
<feFlood flood-opacity="0" result="BackgroundImageFix"/>
<feColorMatrix in="SourceAlpha" type="matrix" values="0 0 0 0 0 0 0 0 0 0 0 0 0 0 0 0 0 0 127 0" result="hardAlpha"/>
<feOffset dy="4.00602"/>
<feGaussianBlur stdDeviation="2.00301"/>
<feComposite in2="hardAlpha" operator="out"/>
<feColorMatrix type="matrix" values="0 0 0 0 0 0 0 0 0 0 0 0 0 0 0 0 0 0 0.25 0"/>
<feBlend mode="normal" in2="BackgroundImageFix" result="effect1_dropShadow_230_27325"/>
<feBlend mode="normal" in="SourceGraphic" in2="effect1_dropShadow_230_27325" result="shape"/>
</filter>
<filter id="filter2_d_230_27325" x="11.8625" y="55.64" width="36.345" height="18.472" filterUnits="userSpaceOnUse" color-interpolation-filters="sRGB">
<feFlood flood-opacity="0" result="BackgroundImageFix"/>
<feColorMatrix in="SourceAlpha" type="matrix" values="0 0 0 0 0 0 0 0 0 0 0 0 0 0 0 0 0 0 127 0" result="hardAlpha"/>
<feOffset dy="3"/>
<feGaussianBlur stdDeviation="2"/>
<feComposite in2="hardAlpha" operator="out"/>
<feColorMatrix type="matrix" values="0 0 0 0 0 0 0 0 0 0 0 0 0 0 0 0 0 0 0.25 0"/>
<feBlend mode="normal" in2="BackgroundImageFix" result="effect1_dropShadow_230_27325"/>
<feBlend mode="normal" in="SourceGraphic" in2="effect1_dropShadow_230_27325" result="shape"/>
</filter>
<linearGradient id="paint0_linear_230_27325" x1="18.0173" y1="15.5233" x2="43.5557" y2="41.0617" gradientUnits="userSpaceOnUse">
<stop offset="0.0729167" stop-color="#FF008C"/>
<stop offset="1" stop-color="#FF4500" stop-opacity="0.85"/>
</linearGradient>
</defs>
</svg>
