<svg width="65" height="84" viewBox="0 0 65 84" fill="none" xmlns="http://www.w3.org/2000/svg">
<g filter="url(#filter0_d_230_27653)">
<g filter="url(#filter1_d_230_27653)">
<circle cx="32" cy="27.5" r="23.5" fill="url(#paint0_linear_230_27653)"/>
</g>
<path d="M22 27.4981C22 23.2124 22 18.9267 22 14.641C22 14.136 22.1362 14.0047 22.6599 14.0047C26.5953 14.0047 30.5306 14.0062 34.4651 14C34.7294 14 34.9215 14.0769 35.1064 14.2548C37.4486 16.5072 39.7949 18.7565 42.1452 21.0012C42.3235 21.1713 42.3981 21.3508 42.3981 21.5924C42.3933 27.8562 42.3941 34.1201 42.3941 40.3839C42.3941 40.8633 42.249 41 41.7422 41C35.3796 41 29.0161 41 22.6535 41C22.137 41 22.0008 40.8656 22.0008 40.3567C22 36.0702 22 31.7837 22 27.4981ZM22.9834 40.0475H41.3985V21.9164C39.1787 21.9164 36.984 21.9164 34.7894 21.9164C34.2827 21.9164 34.1392 21.7804 34.1392 21.2995C34.1392 19.2825 34.1392 17.2663 34.1392 15.2493V14.9502H22.9834V40.0475ZM40.6113 20.9631C38.7847 19.2079 36.9557 17.4497 35.1266 15.6922V20.9631H40.6113Z" fill="black"/>
<path d="M22.9834 40.0482V14.951H34.1392V15.2501C34.1392 17.2671 34.1392 19.2833 34.1392 21.3003C34.1392 21.7812 34.2827 21.9172 34.7894 21.9172C36.984 21.9172 39.1787 21.9172 41.3985 21.9172V40.049H22.9834V40.0482Z" fill="#26DFD0"/>
<path d="M40.6113 20.9631H35.1266V15.6922C36.9549 17.4497 38.7847 19.2079 40.6113 20.9631Z" fill="#26DFD0"/>
<rect x="26.2976" y="27.7284" width="11.9378" height="0.915228" rx="0.457614" fill="black"/>
<rect x="26.2976" y="31.3893" width="11.9378" height="0.915228" rx="0.457614" fill="black"/>
<rect x="26.2976" y="35.0502" width="11.9378" height="0.915228" rx="0.457614" fill="black"/>
<rect x="26.2976" y="24.0675" width="4.7751" height="0.915228" rx="0.457614" fill="black"/>
<path fill-rule="evenodd" clip-rule="evenodd" d="M32 55C46.9117 55 59 42.6878 59 27.5C59 12.3122 46.9117 0 32 0C17.0883 0 5 12.3122 5 27.5C5 42.6878 17.0883 55 32 55ZM32 51C44.7427 51 55.0727 40.4787 55.0727 27.5C55.0727 14.5213 44.7427 4 32 4C19.2573 4 8.92727 14.5213 8.92727 27.5C8.92727 40.4787 19.2573 51 32 51Z" fill="white"/>
<path d="M54.9227 27.5C54.9227 40.3985 44.6573 50.85 32 50.85C19.3427 50.85 9.07728 40.3985 9.07728 27.5C9.07728 14.6015 19.3427 4.15 32 4.15C44.6573 4.15 54.9227 14.6015 54.9227 27.5Z" stroke="#02236A" stroke-opacity="0.5" stroke-width="0.3"/>
</g>
<g filter="url(#filter2_d_230_27653)">
<path d="M8.06372 60.696C8.70772 60.696 9.28172 60.78 9.78572 60.948C10.2897 61.1067 10.7097 61.34 11.0457 61.648C11.3911 61.9467 11.6524 62.3107 11.8297 62.74C12.0071 63.16 12.0957 63.636 12.0957 64.168C12.0957 64.588 12.0304 65.008 11.8997 65.428C11.7784 65.848 11.5731 66.2307 11.2837 66.576C11.0037 66.9213 10.6304 67.2013 10.1637 67.416C9.69705 67.6213 9.11839 67.724 8.42772 67.724H6.97172V71H4.94172V60.696H8.06372ZM8.41372 65.764C8.72172 65.764 8.97839 65.7127 9.18372 65.61C9.38905 65.5073 9.54772 65.3767 9.65972 65.218C9.78105 65.0593 9.86505 64.896 9.91172 64.728C9.96772 64.5507 9.99572 64.3873 9.99572 64.238C9.99572 64.126 9.97705 63.986 9.93972 63.818C9.91172 63.6407 9.84639 63.4633 9.74372 63.286C9.64105 63.1087 9.48239 62.9593 9.26772 62.838C9.06239 62.7167 8.78239 62.656 8.42772 62.656H6.97172V65.764H8.41372ZM10.3177 67.024L12.8657 71H10.4997L7.89572 67.08L10.3177 67.024ZM14.3994 60.696H21.4274V62.656H16.4294V64.854H20.8534V66.814H16.4294V69.04H21.6234V71H14.3994V60.696ZM31.9416 69.964C31.8203 70.0947 31.6289 70.23 31.3676 70.37C31.1063 70.5007 30.8029 70.622 30.4576 70.734C30.1216 70.846 29.7763 70.9347 29.4216 71C29.0669 71.0747 28.7309 71.112 28.4136 71.112C27.5736 71.112 26.8176 70.9907 26.1456 70.748C25.4736 70.496 24.8996 70.1507 24.4236 69.712C23.9476 69.264 23.5836 68.7367 23.3316 68.13C23.0796 67.5233 22.9536 66.8607 22.9536 66.142C22.9536 65.1993 23.0936 64.3827 23.3736 63.692C23.6629 62.992 24.0503 62.4133 24.5356 61.956C25.0303 61.4893 25.5949 61.144 26.2296 60.92C26.8736 60.696 27.5456 60.584 28.2456 60.584C28.9083 60.584 29.5149 60.6587 30.0656 60.808C30.6163 60.948 31.0829 61.1253 31.4656 61.34L30.8076 63.23C30.6396 63.1367 30.4156 63.0433 30.1356 62.95C29.8556 62.8567 29.5709 62.782 29.2816 62.726C28.9923 62.6607 28.7356 62.628 28.5116 62.628C27.9516 62.628 27.4569 62.698 27.0276 62.838C26.5983 62.978 26.2343 63.188 25.9356 63.468C25.6463 63.748 25.4269 64.098 25.2776 64.518C25.1283 64.9287 25.0536 65.4093 25.0536 65.96C25.0536 66.4453 25.1376 66.884 25.3056 67.276C25.4736 67.6587 25.7069 67.9853 26.0056 68.256C26.3136 68.5267 26.6729 68.732 27.0836 68.872C27.5036 69.012 27.9656 69.082 28.4696 69.082C28.7589 69.082 29.0249 69.0633 29.2676 69.026C29.5103 68.9793 29.7156 68.9093 29.8836 68.816V67.57H28.1056V65.61H31.9416V69.964ZM34.1077 60.696H36.1377V69.04H40.9817V71H34.1077V60.696ZM42.9364 60.696H49.9644V62.656H44.9664V64.854H49.3904V66.814H44.9664V69.04H50.1604V71H42.9364V60.696ZM55.2426 60.696C55.8866 60.696 56.4606 60.78 56.9646 60.948C57.4686 61.1067 57.8886 61.34 58.2246 61.648C58.57 61.9467 58.8313 62.3107 59.0086 62.74C59.186 63.16 59.2746 63.636 59.2746 64.168C59.2746 64.588 59.2093 65.008 59.0786 65.428C58.9573 65.848 58.752 66.2307 58.4626 66.576C58.1826 66.9213 57.8093 67.2013 57.3426 67.416C56.876 67.6213 56.2973 67.724 55.6066 67.724H54.1506V71H52.1206V60.696H55.2426ZM55.5926 65.764C55.9006 65.764 56.1573 65.7127 56.3626 65.61C56.568 65.5073 56.7266 65.3767 56.8386 65.218C56.96 65.0593 57.044 64.896 57.0906 64.728C57.1466 64.5507 57.1746 64.3873 57.1746 64.238C57.1746 64.126 57.156 63.986 57.1186 63.818C57.0906 63.6407 57.0253 63.4633 56.9226 63.286C56.82 63.1087 56.6613 62.9593 56.4466 62.838C56.2413 62.7167 55.9613 62.656 55.6066 62.656H54.1506V65.764H55.5926ZM57.4966 67.024L60.0446 71H57.6786L55.0746 67.08L57.4966 67.024Z" fill="#26DFD0"/>
</g>
<defs>
<filter id="filter0_d_230_27653" x="1" y="0" width="62" height="63" filterUnits="userSpaceOnUse" color-interpolation-filters="sRGB">
<feFlood flood-opacity="0" result="BackgroundImageFix"/>
<feColorMatrix in="SourceAlpha" type="matrix" values="0 0 0 0 0 0 0 0 0 0 0 0 0 0 0 0 0 0 127 0" result="hardAlpha"/>
<feOffset dy="4"/>
<feGaussianBlur stdDeviation="2"/>
<feComposite in2="hardAlpha" operator="out"/>
<feColorMatrix type="matrix" values="0 0 0 0 0 0 0 0 0 0 0 0 0 0 0 0 0 0 0.25 0"/>
<feBlend mode="normal" in2="BackgroundImageFix" result="effect1_dropShadow_230_27653"/>
<feBlend mode="normal" in="SourceGraphic" in2="effect1_dropShadow_230_27653" result="shape"/>
</filter>
<filter id="filter1_d_230_27653" x="4.5" y="4" width="55" height="55" filterUnits="userSpaceOnUse" color-interpolation-filters="sRGB">
<feFlood flood-opacity="0" result="BackgroundImageFix"/>
<feColorMatrix in="SourceAlpha" type="matrix" values="0 0 0 0 0 0 0 0 0 0 0 0 0 0 0 0 0 0 127 0" result="hardAlpha"/>
<feOffset dy="4"/>
<feGaussianBlur stdDeviation="2"/>
<feComposite in2="hardAlpha" operator="out"/>
<feColorMatrix type="matrix" values="0 0 0 0 0 0 0 0 0 0 0 0 0 0 0 0 0 0 0.25 0"/>
<feBlend mode="normal" in2="BackgroundImageFix" result="effect1_dropShadow_230_27653"/>
<feBlend mode="normal" in="SourceGraphic" in2="effect1_dropShadow_230_27653" result="shape"/>
</filter>
<filter id="filter2_d_230_27653" x="0.941711" y="59.584" width="63.1029" height="18.528" filterUnits="userSpaceOnUse" color-interpolation-filters="sRGB">
<feFlood flood-opacity="0" result="BackgroundImageFix"/>
<feColorMatrix in="SourceAlpha" type="matrix" values="0 0 0 0 0 0 0 0 0 0 0 0 0 0 0 0 0 0 127 0" result="hardAlpha"/>
<feOffset dy="3"/>
<feGaussianBlur stdDeviation="2"/>
<feComposite in2="hardAlpha" operator="out"/>
<feColorMatrix type="matrix" values="0 0 0 0 0 0 0 0 0 0 0 0 0 0 0 0 0 0 0.25 0"/>
<feBlend mode="normal" in2="BackgroundImageFix" result="effect1_dropShadow_230_27653"/>
<feBlend mode="normal" in="SourceGraphic" in2="effect1_dropShadow_230_27653" result="shape"/>
</filter>
<linearGradient id="paint0_linear_230_27653" x1="20.5" y1="15" x2="48.5" y2="43.5" gradientUnits="userSpaceOnUse">
<stop offset="0.0729167" stop-color="#FFE400"/>
<stop offset="1" stop-color="#FF4500"/>
</linearGradient>
</defs>
</svg>
