<svg width="60" height="80" viewBox="0 0 60 80" fill="none" xmlns="http://www.w3.org/2000/svg">
<g filter="url(#filter0_d_230_27304)">
<g filter="url(#filter1_d_230_27304)">
<circle cx="30.4781" cy="23.9781" r="23.9781" fill="url(#paint0_linear_230_27304)"/>
</g>
<path d="M44.0001 19.751C43.9576 20.7261 43.5841 21.3494 42.8803 21.7771C42.0869 22.2604 41.578 22.9502 41.4373 23.8713C41.2347 25.2006 41.735 26.2307 42.8571 26.9507C43.431 27.3188 43.8246 27.7975 43.9537 28.4734C44.0334 28.8894 43.9885 29.297 43.8308 29.6921C43.3173 30.9805 42.6321 32.1722 41.7737 33.2595C41.0707 34.1496 39.9734 34.3468 38.917 33.7939C37.6271 33.1188 36.1941 33.3399 35.2406 34.3669C34.7201 34.9276 34.4626 35.6004 34.4356 36.359C34.3922 37.5848 33.7241 38.3968 32.51 38.587C31.1311 38.8028 29.743 38.8089 28.3641 38.5661C27.2737 38.3743 26.5816 37.5298 26.5592 36.4163C26.5236 34.6801 25.1819 33.3577 23.4504 33.4227C22.9957 33.4397 22.5177 33.5905 22.1048 33.7916C20.9386 34.3576 19.8907 34.1457 19.1104 33.125C18.3278 32.1011 17.6937 30.9929 17.2049 29.8012C16.7448 28.6798 17.0797 27.6165 18.1128 26.9723C19.0408 26.3939 19.5682 25.561 19.6015 24.4752C19.6363 23.3299 19.1391 22.4236 18.1592 21.8119C17.5831 21.4523 17.181 20.9798 17.0449 20.3023C16.9613 19.8855 16.9938 19.4764 17.15 19.082C17.6643 17.7836 18.3526 16.5834 19.2187 15.4883C19.9248 14.5959 21.0159 14.3995 22.0746 14.9532C23.3653 15.6275 24.7998 15.4064 25.751 14.3817C26.2715 13.821 26.5275 13.1475 26.5569 12.3896C26.604 11.1585 27.2668 10.3526 28.4817 10.1616C29.8706 9.94356 31.268 9.94124 32.6561 10.1864C33.7024 10.3704 34.4154 11.235 34.434 12.3014C34.4649 14.0724 35.8167 15.4041 37.5699 15.3259C38.0153 15.3058 38.4824 15.155 38.8876 14.9578C40.0662 14.384 41.0963 14.599 41.8982 15.6461C42.6824 16.6692 43.3173 17.779 43.7944 18.9753C43.9104 19.2653 43.9568 19.5824 44.0001 19.7517V19.751ZM21.0592 33.1806C21.2147 33.1195 21.473 33.0414 21.7088 32.92C22.5858 32.4699 23.5053 32.3478 24.4573 32.5751C26.246 33.002 27.4431 34.5139 27.4848 36.3621C27.5003 37.0566 27.8994 37.5391 28.5737 37.6489C29.801 37.8492 31.0337 37.843 32.2625 37.6737C33.1302 37.5546 33.4828 37.1092 33.5106 36.2268C33.5408 35.2748 33.895 34.4427 34.5376 33.7444C35.7788 32.3972 37.6874 32.0848 39.323 32.9455C40.0175 33.3113 40.6114 33.217 41.053 32.6548C41.8425 31.6479 42.4828 30.5521 42.943 29.3581C43.025 29.1446 43.0412 28.8863 43.018 28.6559C42.9739 28.2174 42.6731 27.9521 42.3174 27.7225C41.162 26.9777 40.5101 25.919 40.4606 24.5379C40.4041 22.9757 41.0947 21.7964 42.404 20.9643C43.0072 20.5807 43.199 19.993 42.9329 19.3403C42.4875 18.246 41.8936 17.2392 41.2076 16.2771C40.7227 15.5982 40.026 15.3886 39.2519 15.8309C38.4082 16.3127 37.4778 16.3986 36.5344 16.1735C34.748 15.7466 33.5532 14.2402 33.5068 12.3865C33.4898 11.6913 33.0915 11.2095 32.4179 11.0997C31.1907 10.9002 29.958 10.904 28.7291 11.0742C27.8591 11.1948 27.5204 11.6364 27.4787 12.5203C27.4183 13.8156 26.8499 14.8643 25.775 15.585C24.4526 16.472 23.0575 16.513 21.6423 15.7892C20.9672 15.4435 20.3733 15.5378 19.9387 16.0931C19.1499 17.1007 18.5072 18.1958 18.0487 19.3906C17.9667 19.604 17.9481 19.8623 17.9721 20.092C18.0177 20.5289 18.3139 20.8004 18.6743 21.0246C20.0601 21.8877 20.7576 23.4397 20.4808 25.0436C20.2751 26.2346 19.6317 27.1301 18.6124 27.7681C17.9999 28.1517 17.7935 28.7177 18.0409 29.3519C18.5103 30.5536 19.1545 31.6572 19.9487 32.6733C20.2024 32.9981 20.5426 33.1528 21.0592 33.1806Z" fill="black"/>
<path d="M21.0592 33.1806C20.5434 33.152 20.2024 32.9981 19.9487 32.6733C19.1545 31.6572 18.5111 30.5536 18.0409 29.3519C17.7935 28.7177 17.9992 28.1516 18.6124 27.7681C19.6317 27.1301 20.2751 26.2346 20.4808 25.0436C20.7576 23.4397 20.0601 21.8877 18.6743 21.0246C18.3139 20.8004 18.0177 20.5289 17.9721 20.092C17.9481 19.8615 17.9667 19.604 18.0487 19.3906C18.508 18.1958 19.1499 17.1007 19.9387 16.0931C20.3733 15.5386 20.9664 15.4443 21.6423 15.7892C23.0575 16.513 24.4534 16.4728 25.775 15.585C26.85 14.8635 27.4184 13.8156 27.4787 12.5203C27.5197 11.6364 27.8591 11.1948 28.7291 11.0742C29.958 10.904 31.1907 10.8994 32.4179 11.0997C33.0915 11.2095 33.4898 11.6913 33.5068 12.3865C33.5532 14.2402 34.748 15.7466 36.5344 16.1735C37.4771 16.3985 38.4082 16.3135 39.2519 15.8309C40.026 15.3886 40.7228 15.5981 41.2076 16.2771C41.8944 17.2392 42.4875 18.2468 42.9329 19.3403C43.199 19.993 43.0064 20.5807 42.404 20.9643C41.0947 21.7964 40.4041 22.9757 40.4606 24.5379C40.5101 25.919 41.1628 26.9777 42.3174 27.7224C42.6731 27.9521 42.9739 28.2182 43.018 28.6559C43.0412 28.8863 43.025 29.1446 42.943 29.358C42.4836 30.5528 41.8425 31.6487 41.053 32.6548C40.6122 33.2177 40.0182 33.3113 39.323 32.9455C37.6874 32.0848 35.7788 32.3972 34.5376 33.7444C33.8942 34.4419 33.5408 35.2748 33.5107 36.2268C33.4828 37.1091 33.1302 37.5546 32.2625 37.6737C31.0337 37.843 29.801 37.8492 28.5737 37.6489C27.8994 37.5391 27.5003 37.0566 27.4849 36.3621C27.4431 34.5138 26.246 33.002 24.4573 32.5751C23.5053 32.3477 22.585 32.4699 21.7088 32.92C21.473 33.0406 21.2147 33.1188 21.0592 33.1806ZM25.2917 24.3554C25.2886 27.2229 27.6357 29.5823 30.4893 29.58C33.3444 29.5777 35.6922 27.2399 35.6969 24.3956C35.7015 21.5265 33.3575 19.1694 30.5001 19.1709C27.6473 19.1725 25.294 21.5141 25.2909 24.3554H25.2917Z" fill="#ED2484"/>
<path d="M25.2924 24.3554C25.2955 21.5141 27.6488 19.1725 30.5016 19.1709C33.3583 19.1694 35.703 21.5265 35.6984 24.3956C35.6938 27.2399 33.3452 29.5777 30.4908 29.58C27.6364 29.5823 25.2901 27.2229 25.2932 24.3554H25.2924ZM30.4552 28.6296C32.7667 28.6783 34.6931 26.8061 34.7433 24.4613C34.7936 22.0957 32.9399 20.1716 30.5681 20.1268C28.2187 20.0827 26.3071 21.9256 26.2491 24.2904C26.1911 26.6522 28.0594 28.5793 30.456 28.6303L30.4552 28.6296Z" fill="black"/>
</g>
<g filter="url(#filter2_d_230_27304)">
<path d="M7.24027 60.364L7.18427 60.882L7.49227 60.49L10.8523 56.696H13.4843L9.22827 61.316L13.4983 67H10.9223L7.74427 62.604L7.24027 63.108V67H5.18227V56.696H7.24027V60.364ZM13.6408 61.862C13.6408 61.1527 13.7761 60.4807 14.0468 59.846C14.3174 59.2113 14.6908 58.6513 15.1668 58.166C15.6521 57.6713 16.2121 57.284 16.8468 57.004C17.4814 56.724 18.1628 56.584 18.8908 56.584C19.6094 56.584 20.2861 56.724 20.9208 57.004C21.5554 57.284 22.1154 57.6713 22.6008 58.166C23.0954 58.6513 23.4781 59.2113 23.7488 59.846C24.0288 60.4807 24.1688 61.1527 24.1688 61.862C24.1688 62.59 24.0288 63.2713 23.7488 63.906C23.4781 64.5407 23.0954 65.1007 22.6008 65.586C22.1154 66.062 21.5554 66.4353 20.9208 66.706C20.2861 66.9767 19.6094 67.112 18.8908 67.112C18.1628 67.112 17.4814 66.9767 16.8468 66.706C16.2121 66.4353 15.6521 66.062 15.1668 65.586C14.6908 65.1007 14.3174 64.5407 14.0468 63.906C13.7761 63.2713 13.6408 62.59 13.6408 61.862ZM15.7408 61.862C15.7408 62.3193 15.8201 62.7487 15.9788 63.15C16.1468 63.542 16.3754 63.892 16.6648 64.2C16.9634 64.4987 17.3041 64.732 17.6868 64.9C18.0788 65.068 18.5034 65.152 18.9608 65.152C19.3994 65.152 19.8054 65.068 20.1788 64.9C20.5614 64.732 20.8928 64.4987 21.1728 64.2C21.4528 63.892 21.6721 63.542 21.8308 63.15C21.9894 62.7487 22.0688 62.3193 22.0688 61.862C22.0688 61.3953 21.9848 60.9613 21.8168 60.56C21.6581 60.1587 21.4341 59.8087 21.1448 59.51C20.8648 59.202 20.5334 58.964 20.1508 58.796C19.7681 58.628 19.3528 58.544 18.9048 58.544C18.4568 58.544 18.0414 58.628 17.6588 58.796C17.2761 58.964 16.9401 59.202 16.6508 59.51C16.3614 59.8087 16.1374 60.1587 15.9788 60.56C15.8201 60.9613 15.7408 61.3953 15.7408 61.862ZM35.2787 67.42L27.4667 60.364L28.0687 60.7L28.1107 67H26.0527V56.29H26.1367L33.7807 63.318L33.3327 63.122L33.2907 56.696H35.3347V67.42H35.2787ZM37.1482 56.696H44.0922V58.656H41.5862V67H39.5562V58.656H37.1482V56.696ZM44.9259 61.862C44.9259 61.1527 45.0612 60.4807 45.3319 59.846C45.6025 59.2113 45.9759 58.6513 46.4519 58.166C46.9372 57.6713 47.4972 57.284 48.1319 57.004C48.7665 56.724 49.4479 56.584 50.1759 56.584C50.8945 56.584 51.5712 56.724 52.2059 57.004C52.8405 57.284 53.4005 57.6713 53.8859 58.166C54.3805 58.6513 54.7632 59.2113 55.0339 59.846C55.3139 60.4807 55.4539 61.1527 55.4539 61.862C55.4539 62.59 55.3139 63.2713 55.0339 63.906C54.7632 64.5407 54.3805 65.1007 53.8859 65.586C53.4005 66.062 52.8405 66.4353 52.2059 66.706C51.5712 66.9767 50.8945 67.112 50.1759 67.112C49.4479 67.112 48.7665 66.9767 48.1319 66.706C47.4972 66.4353 46.9372 66.062 46.4519 65.586C45.9759 65.1007 45.6025 64.5407 45.3319 63.906C45.0612 63.2713 44.9259 62.59 44.9259 61.862ZM47.0259 61.862C47.0259 62.3193 47.1052 62.7487 47.2639 63.15C47.4319 63.542 47.6605 63.892 47.9499 64.2C48.2485 64.4987 48.5892 64.732 48.9719 64.9C49.3639 65.068 49.7885 65.152 50.2459 65.152C50.6845 65.152 51.0905 65.068 51.4639 64.9C51.8465 64.732 52.1779 64.4987 52.4579 64.2C52.7379 63.892 52.9572 63.542 53.1159 63.15C53.2745 62.7487 53.3539 62.3193 53.3539 61.862C53.3539 61.3953 53.2699 60.9613 53.1019 60.56C52.9432 60.1587 52.7192 59.8087 52.4299 59.51C52.1499 59.202 51.8185 58.964 51.4359 58.796C51.0532 58.628 50.6379 58.544 50.1899 58.544C49.7419 58.544 49.3265 58.628 48.9439 58.796C48.5612 58.964 48.2252 59.202 47.9359 59.51C47.6465 59.8087 47.4225 60.1587 47.2639 60.56C47.1052 60.9613 47.0259 61.3953 47.0259 61.862Z" fill="#F5F5F5"/>
</g>
<defs>
<filter id="filter0_d_230_27304" x="2.41862" y="0" width="56.119" height="56.119" filterUnits="userSpaceOnUse" color-interpolation-filters="sRGB">
<feFlood flood-opacity="0" result="BackgroundImageFix"/>
<feColorMatrix in="SourceAlpha" type="matrix" values="0 0 0 0 0 0 0 0 0 0 0 0 0 0 0 0 0 0 127 0" result="hardAlpha"/>
<feOffset dy="4.08138"/>
<feGaussianBlur stdDeviation="2.04069"/>
<feComposite in2="hardAlpha" operator="out"/>
<feColorMatrix type="matrix" values="0 0 0 0 0 0 0 0 0 0 0 0 0 0 0 0 0 0 0.25 0"/>
<feBlend mode="normal" in2="BackgroundImageFix" result="effect1_dropShadow_230_27304"/>
<feBlend mode="normal" in="SourceGraphic" in2="effect1_dropShadow_230_27304" result="shape"/>
</filter>
<filter id="filter1_d_230_27304" x="2.41862" y="0" width="56.119" height="56.119" filterUnits="userSpaceOnUse" color-interpolation-filters="sRGB">
<feFlood flood-opacity="0" result="BackgroundImageFix"/>
<feColorMatrix in="SourceAlpha" type="matrix" values="0 0 0 0 0 0 0 0 0 0 0 0 0 0 0 0 0 0 127 0" result="hardAlpha"/>
<feOffset dy="4.08138"/>
<feGaussianBlur stdDeviation="2.04069"/>
<feComposite in2="hardAlpha" operator="out"/>
<feColorMatrix type="matrix" values="0 0 0 0 0 0 0 0 0 0 0 0 0 0 0 0 0 0 0.25 0"/>
<feBlend mode="normal" in2="BackgroundImageFix" result="effect1_dropShadow_230_27304"/>
<feBlend mode="normal" in="SourceGraphic" in2="effect1_dropShadow_230_27304" result="shape"/>
</filter>
<filter id="filter2_d_230_27304" x="1.18228" y="55.29" width="58.2716" height="19.13" filterUnits="userSpaceOnUse" color-interpolation-filters="sRGB">
<feFlood flood-opacity="0" result="BackgroundImageFix"/>
<feColorMatrix in="SourceAlpha" type="matrix" values="0 0 0 0 0 0 0 0 0 0 0 0 0 0 0 0 0 0 127 0" result="hardAlpha"/>
<feOffset dy="3"/>
<feGaussianBlur stdDeviation="2"/>
<feComposite in2="hardAlpha" operator="out"/>
<feColorMatrix type="matrix" values="0 0 0 0 0 0 0 0 0 0 0 0 0 0 0 0 0 0 0.25 0"/>
<feBlend mode="normal" in2="BackgroundImageFix" result="effect1_dropShadow_230_27304"/>
<feBlend mode="normal" in="SourceGraphic" in2="effect1_dropShadow_230_27304" result="shape"/>
</filter>
<linearGradient id="paint0_linear_230_27304" x1="18.7441" y1="11.2238" x2="47.3138" y2="40.3036" gradientUnits="userSpaceOnUse">
<stop offset="0.0729167" stop-color="#10BC10"/>
<stop offset="1" stop-color="#FFE400"/>
</linearGradient>
</defs>
</svg>
