<svg width="65" height="80" viewBox="0 0 65 80" fill="none" xmlns="http://www.w3.org/2000/svg">
<g filter="url(#filter0_d_230_27283)">
<g filter="url(#filter1_d_230_27283)">
<circle cx="32" cy="23.5" r="23.5" fill="url(#paint0_linear_230_27283)"/>
</g>
<path d="M22 23.4981C22 19.2124 22 14.9267 22 10.641C22 10.136 22.1362 10.0047 22.6599 10.0047C26.5953 10.0047 30.5306 10.0062 34.4651 10C34.7294 10 34.9215 10.0769 35.1064 10.2548C37.4486 12.5072 39.7949 14.7565 42.1452 17.0012C42.3235 17.1713 42.3981 17.3508 42.3981 17.5924C42.3933 23.8562 42.3941 30.1201 42.3941 36.3839C42.3941 36.8633 42.249 37 41.7422 37C35.3796 37 29.0161 37 22.6535 37C22.137 37 22.0008 36.8656 22.0008 36.3567C22 32.0702 22 27.7837 22 23.4981ZM22.9834 36.0475H41.3985V17.9164C39.1787 17.9164 36.984 17.9164 34.7894 17.9164C34.2827 17.9164 34.1392 17.7804 34.1392 17.2995C34.1392 15.2825 34.1392 13.2663 34.1392 11.2493V10.9502H22.9834V36.0475ZM40.6113 16.9631C38.7847 15.2079 36.9557 13.4497 35.1266 11.6922V16.9631H40.6113Z" fill="black"/>
<path d="M22.9834 36.0482V10.951H34.1392V11.2501C34.1392 13.2671 34.1392 15.2833 34.1392 17.3003C34.1392 17.7812 34.2827 17.9172 34.7894 17.9172C36.984 17.9172 39.1787 17.9172 41.3985 17.9172V36.049H22.9834V36.0482Z" fill="#26DFD0"/>
<path d="M40.6113 16.9631H35.1266V11.6922C36.9549 13.4497 38.7847 15.2079 40.6113 16.9631Z" fill="#26DFD0"/>
<rect x="26.2976" y="23.7284" width="11.9378" height="0.915228" rx="0.457614" fill="black"/>
<rect x="26.2976" y="27.3893" width="11.9378" height="0.915228" rx="0.457614" fill="black"/>
<rect x="26.2976" y="31.0502" width="11.9378" height="0.915228" rx="0.457614" fill="black"/>
<rect x="26.2976" y="20.0675" width="4.7751" height="0.915228" rx="0.457614" fill="black"/>
</g>
<g filter="url(#filter2_d_230_27283)">
<path d="M8.06372 56.696C8.70772 56.696 9.28172 56.78 9.78572 56.948C10.2897 57.1067 10.7097 57.34 11.0457 57.648C11.3911 57.9467 11.6524 58.3107 11.8297 58.74C12.0071 59.16 12.0957 59.636 12.0957 60.168C12.0957 60.588 12.0304 61.008 11.8997 61.428C11.7784 61.848 11.5731 62.2307 11.2837 62.576C11.0037 62.9213 10.6304 63.2013 10.1637 63.416C9.69705 63.6213 9.11839 63.724 8.42772 63.724H6.97172V67H4.94172V56.696H8.06372ZM8.41372 61.764C8.72172 61.764 8.97839 61.7127 9.18372 61.61C9.38905 61.5073 9.54772 61.3767 9.65972 61.218C9.78105 61.0593 9.86505 60.896 9.91172 60.728C9.96772 60.5507 9.99572 60.3873 9.99572 60.238C9.99572 60.126 9.97705 59.986 9.93972 59.818C9.91172 59.6407 9.84639 59.4633 9.74372 59.286C9.64105 59.1087 9.48239 58.9593 9.26772 58.838C9.06239 58.7167 8.78239 58.656 8.42772 58.656H6.97172V61.764H8.41372ZM10.3177 63.024L12.8657 67H10.4997L7.89572 63.08L10.3177 63.024ZM14.3994 56.696H21.4274V58.656H16.4294V60.854H20.8534V62.814H16.4294V65.04H21.6234V67H14.3994V56.696ZM31.9416 65.964C31.8203 66.0947 31.6289 66.23 31.3676 66.37C31.1063 66.5007 30.8029 66.622 30.4576 66.734C30.1216 66.846 29.7763 66.9347 29.4216 67C29.0669 67.0747 28.7309 67.112 28.4136 67.112C27.5736 67.112 26.8176 66.9907 26.1456 66.748C25.4736 66.496 24.8996 66.1507 24.4236 65.712C23.9476 65.264 23.5836 64.7367 23.3316 64.13C23.0796 63.5233 22.9536 62.8607 22.9536 62.142C22.9536 61.1993 23.0936 60.3827 23.3736 59.692C23.6629 58.992 24.0503 58.4133 24.5356 57.956C25.0303 57.4893 25.5949 57.144 26.2296 56.92C26.8736 56.696 27.5456 56.584 28.2456 56.584C28.9083 56.584 29.5149 56.6587 30.0656 56.808C30.6163 56.948 31.0829 57.1253 31.4656 57.34L30.8076 59.23C30.6396 59.1367 30.4156 59.0433 30.1356 58.95C29.8556 58.8567 29.5709 58.782 29.2816 58.726C28.9923 58.6607 28.7356 58.628 28.5116 58.628C27.9516 58.628 27.4569 58.698 27.0276 58.838C26.5983 58.978 26.2343 59.188 25.9356 59.468C25.6463 59.748 25.4269 60.098 25.2776 60.518C25.1283 60.9287 25.0536 61.4093 25.0536 61.96C25.0536 62.4453 25.1376 62.884 25.3056 63.276C25.4736 63.6587 25.7069 63.9853 26.0056 64.256C26.3136 64.5267 26.6729 64.732 27.0836 64.872C27.5036 65.012 27.9656 65.082 28.4696 65.082C28.7589 65.082 29.0249 65.0633 29.2676 65.026C29.5103 64.9793 29.7156 64.9093 29.8836 64.816V63.57H28.1056V61.61H31.9416V65.964ZM34.1077 56.696H36.1377V65.04H40.9817V67H34.1077V56.696ZM42.9364 56.696H49.9644V58.656H44.9664V60.854H49.3904V62.814H44.9664V65.04H50.1604V67H42.9364V56.696ZM55.2426 56.696C55.8866 56.696 56.4606 56.78 56.9646 56.948C57.4686 57.1067 57.8886 57.34 58.2246 57.648C58.57 57.9467 58.8313 58.3107 59.0086 58.74C59.186 59.16 59.2746 59.636 59.2746 60.168C59.2746 60.588 59.2093 61.008 59.0786 61.428C58.9573 61.848 58.752 62.2307 58.4626 62.576C58.1826 62.9213 57.8093 63.2013 57.3426 63.416C56.876 63.6213 56.2973 63.724 55.6066 63.724H54.1506V67H52.1206V56.696H55.2426ZM55.5926 61.764C55.9006 61.764 56.1573 61.7127 56.3626 61.61C56.568 61.5073 56.7266 61.3767 56.8386 61.218C56.96 61.0593 57.044 60.896 57.0906 60.728C57.1466 60.5507 57.1746 60.3873 57.1746 60.238C57.1746 60.126 57.156 59.986 57.1186 59.818C57.0906 59.6407 57.0253 59.4633 56.9226 59.286C56.82 59.1087 56.6613 58.9593 56.4466 58.838C56.2413 58.7167 55.9613 58.656 55.6066 58.656H54.1506V61.764H55.5926ZM57.4966 63.024L60.0446 67H57.6786L55.0746 63.08L57.4966 63.024Z" fill="#F5F5F5"/>
</g>
<defs>
<filter id="filter0_d_230_27283" x="4.5" y="0" width="55" height="55" filterUnits="userSpaceOnUse" color-interpolation-filters="sRGB">
<feFlood flood-opacity="0" result="BackgroundImageFix"/>
<feColorMatrix in="SourceAlpha" type="matrix" values="0 0 0 0 0 0 0 0 0 0 0 0 0 0 0 0 0 0 127 0" result="hardAlpha"/>
<feOffset dy="4"/>
<feGaussianBlur stdDeviation="2"/>
<feComposite in2="hardAlpha" operator="out"/>
<feColorMatrix type="matrix" values="0 0 0 0 0 0 0 0 0 0 0 0 0 0 0 0 0 0 0.25 0"/>
<feBlend mode="normal" in2="BackgroundImageFix" result="effect1_dropShadow_230_27283"/>
<feBlend mode="normal" in="SourceGraphic" in2="effect1_dropShadow_230_27283" result="shape"/>
</filter>
<filter id="filter1_d_230_27283" x="4.5" y="0" width="55" height="55" filterUnits="userSpaceOnUse" color-interpolation-filters="sRGB">
<feFlood flood-opacity="0" result="BackgroundImageFix"/>
<feColorMatrix in="SourceAlpha" type="matrix" values="0 0 0 0 0 0 0 0 0 0 0 0 0 0 0 0 0 0 127 0" result="hardAlpha"/>
<feOffset dy="4"/>
<feGaussianBlur stdDeviation="2"/>
<feComposite in2="hardAlpha" operator="out"/>
<feColorMatrix type="matrix" values="0 0 0 0 0 0 0 0 0 0 0 0 0 0 0 0 0 0 0.25 0"/>
<feBlend mode="normal" in2="BackgroundImageFix" result="effect1_dropShadow_230_27283"/>
<feBlend mode="normal" in="SourceGraphic" in2="effect1_dropShadow_230_27283" result="shape"/>
</filter>
<filter id="filter2_d_230_27283" x="0.941711" y="55.584" width="63.1029" height="18.528" filterUnits="userSpaceOnUse" color-interpolation-filters="sRGB">
<feFlood flood-opacity="0" result="BackgroundImageFix"/>
<feColorMatrix in="SourceAlpha" type="matrix" values="0 0 0 0 0 0 0 0 0 0 0 0 0 0 0 0 0 0 127 0" result="hardAlpha"/>
<feOffset dy="3"/>
<feGaussianBlur stdDeviation="2"/>
<feComposite in2="hardAlpha" operator="out"/>
<feColorMatrix type="matrix" values="0 0 0 0 0 0 0 0 0 0 0 0 0 0 0 0 0 0 0.25 0"/>
<feBlend mode="normal" in2="BackgroundImageFix" result="effect1_dropShadow_230_27283"/>
<feBlend mode="normal" in="SourceGraphic" in2="effect1_dropShadow_230_27283" result="shape"/>
</filter>
<linearGradient id="paint0_linear_230_27283" x1="20.5" y1="11" x2="48.5" y2="39.5" gradientUnits="userSpaceOnUse">
<stop offset="0.0729167" stop-color="#FFE400"/>
<stop offset="1" stop-color="#FF4500"/>
</linearGradient>
</defs>
</svg>
