<svg width="63" height="84" viewBox="0 0 63 84" fill="none" xmlns="http://www.w3.org/2000/svg">
<g filter="url(#filter0_d_230_27632)">
<g filter="url(#filter1_d_230_27632)">
<circle cx="31" cy="27.5" r="23.5" fill="url(#paint0_linear_230_27632)"/>
</g>
<path d="M41.8749 17.1378C42.4653 17.1378 42.9438 16.6593 42.9438 16.0689C42.9438 15.4786 42.4653 15 41.8749 15C41.2846 15 40.806 15.4786 40.806 16.0689C40.806 16.6593 41.2846 17.1378 41.8749 17.1378Z" fill="#3A95DF" stroke="black" stroke-width="0.855137" stroke-linecap="round" stroke-linejoin="round"/>
<path d="M30.9719 39.799C37.5838 39.799 42.9438 34.4389 42.9438 27.827C42.9438 21.2151 37.5838 15.8551 30.9719 15.8551C24.36 15.8551 19 21.2151 19 27.827C19 34.4389 24.36 39.799 30.9719 39.799Z" fill="#3A95DF"/>
<path d="M30.9719 39.799C37.5838 39.799 42.9438 34.4389 42.9438 27.827C42.9438 21.2151 37.5838 15.8551 30.9719 15.8551C24.36 15.8551 19 21.2151 19 27.827C19 34.4389 24.36 39.799 30.9719 39.799Z" fill="#3A95DF" stroke="black" stroke-width="0.855137" stroke-linecap="round" stroke-linejoin="round"/>
<path d="M26.3743 36.3579C26.4627 36.3579 26.5491 36.3319 26.6227 36.2831L27.3744 35.7798C27.448 35.731 27.5344 35.705 27.6228 35.705H28.017C28.0758 35.705 28.134 35.6934 28.1883 35.6709C28.2425 35.6484 28.2919 35.6154 28.3334 35.5738C28.3749 35.5323 28.4079 35.4829 28.4303 35.4286C28.4528 35.3743 28.4643 35.3161 28.4642 35.2573V35.1769C28.4642 35.0582 28.5114 34.9443 28.5954 34.8604C28.6793 34.7764 28.7932 34.7293 28.9119 34.7293H31.2109C31.2697 34.7292 31.3279 34.7408 31.3822 34.7632C31.4365 34.7857 31.4858 34.8186 31.5273 34.8601L32.3735 35.7067V36.0321H33.0016C33.1014 36.0321 33.1983 36.0654 33.277 36.1269C33.3556 36.1883 33.4114 36.2743 33.4356 36.3711L33.5921 37.3221C33.6162 37.4189 33.672 37.5049 33.7507 37.5663C33.8293 37.6277 33.9263 37.6611 34.0261 37.6611H34.7033C34.7864 37.6611 34.8679 37.638 34.9386 37.5942C35.0093 37.5505 35.0664 37.4879 35.1035 37.4136L35.1818 37.2571C35.2189 37.1827 35.276 37.1201 35.3467 37.0764C35.4174 37.0327 35.4989 37.0095 35.582 37.0095H36.0232C36.1836 37.0095 36.3319 36.5978 36.4119 36.4584L37.5501 34.4663C37.5738 34.4245 37.5907 34.3792 37.6001 34.3321L37.8789 32.9391C37.9 32.833 37.8821 32.7229 37.8284 32.6291L36.6937 30.6426C36.6389 30.5471 36.5509 30.4751 36.4465 30.4403L35.9031 30.2591C35.822 30.232 35.7503 30.1823 35.6965 30.1159C35.6427 30.0495 35.6091 29.969 35.5995 29.8841L35.4952 28.9434C35.487 28.8691 35.4603 28.7981 35.4176 28.7368C35.3749 28.6754 35.3175 28.6258 35.2506 28.5924L35.0642 28.4992C34.9899 28.462 34.9275 28.4048 34.8838 28.3342C34.8402 28.2635 34.8171 28.182 34.8171 28.099V27.3995H34.4912L33.7272 28.6728C33.6693 28.7696 33.577 28.8411 33.4687 28.8728C33.3604 28.9045 33.2441 28.8942 33.1431 28.8438L32.5578 28.5513C32.4614 28.5031 32.3857 28.4217 32.3445 28.3221C32.3032 28.2225 32.2993 28.1114 32.3333 28.0092L32.3402 27.9895C32.3627 27.9222 32.369 27.8504 32.3584 27.7802C32.3478 27.71 32.3206 27.6433 32.2791 27.5857C32.2376 27.528 32.183 27.4811 32.1198 27.4487C32.0566 27.4163 31.9866 27.3995 31.9156 27.3995H30.8586C30.7755 27.3994 30.694 27.4226 30.6233 27.4663C30.5526 27.51 30.4955 27.5726 30.4584 27.647L30.0911 28.3829C30.0454 28.4739 29.9701 28.5466 29.8775 28.5891C29.785 28.6316 29.6807 28.6414 29.5819 28.6168L28.923 28.4521C28.8358 28.4303 28.7441 28.4352 28.6597 28.4662C28.5754 28.4973 28.5023 28.553 28.4501 28.6262L27.0631 30.5678C27.0207 30.6273 26.9643 30.6755 26.8989 30.708L24.7927 31.7607C24.687 31.8137 24.6066 31.9065 24.5691 32.0187C24.5316 32.1308 24.54 32.2533 24.5926 32.3593L25.9587 35.0914C25.9993 35.1729 26.0142 35.2647 26.0015 35.3548L25.9313 35.8461C25.9221 35.9096 25.9266 35.9744 25.9446 36.0361C25.9626 36.0977 25.9937 36.1548 26.0357 36.2033C26.0777 36.2519 26.1297 36.2908 26.1882 36.3175C26.2466 36.3442 26.3101 36.3579 26.3743 36.3579Z" fill="#10BC10" stroke="black" stroke-width="0.855137" stroke-linecap="round" stroke-linejoin="round"/>
<path d="M20.2173 22.8625L20.7102 24.8341L22.8481 25.2616L24.5584 26.9719H27.1238V25.6892L24.9859 25.2616L22.8481 23.5513V20.9859L25.4135 21.8411L26.6962 20.5584L25.3152 17.4512" fill="#10BC10"/>
<path d="M20.2173 22.8625L20.7102 24.8341L22.8481 25.2616L24.5584 26.9719H27.1238V25.6892L24.9859 25.2616L22.8481 23.5513V20.9859L25.4135 21.8411L26.6962 20.5584L25.3152 17.4512" stroke="black" stroke-width="0.855137" stroke-linecap="round" stroke-linejoin="round"/>
<path d="M30.1321 25.7888L31.8916 25.6794L33.5219 25.162" fill="#10BC10"/>
<path d="M30.1321 25.7888L31.8916 25.6794L33.5219 25.162" stroke="black" stroke-width="0.855137" stroke-linecap="round" stroke-linejoin="round"/>
<path d="M27.1238 21.8411L26.6962 22.2687L27.1238 21.8411Z" fill="#10BC10"/>
<path d="M27.1238 21.8411L26.6962 22.2687" stroke="black" stroke-width="0.855137" stroke-linecap="round" stroke-linejoin="round"/>
<path d="M32.2546 38.0887L32.6822 38.5163L32.2546 38.0887Z" fill="#3A95DF"/>
<path d="M32.2546 38.0887L32.6822 38.5163" stroke="black" stroke-width="0.855137" stroke-linecap="round" stroke-linejoin="round"/>
<path d="M37.3854 28.2546L36.9579 26.9719L35.2476 26.1168L34.82 24.8341L37.813 25.6892L38.2406 27.8271L37.3854 28.2546Z" fill="#10BC10" stroke="black" stroke-width="0.855137" stroke-linecap="round" stroke-linejoin="round"/>
<path d="M26.6962 23.9789L27.5514 24.4065L26.6962 23.9789Z" fill="#10BC10"/>
<path d="M26.6962 23.9789L27.5514 24.4065" stroke="black" stroke-width="0.855137" stroke-linecap="round" stroke-linejoin="round"/>
<path d="M29.2616 23.9789L29.6892 23.5514L29.2616 23.9789Z" fill="#10BC10"/>
<path d="M29.2616 23.9789L29.6892 23.5514" stroke="black" stroke-width="0.855137" stroke-linecap="round" stroke-linejoin="round"/>
<path d="M35.8467 15.9141C36.0992 15.9141 36.3038 15.7095 36.3038 15.4571C36.3038 15.2046 36.0992 15 35.8467 15C35.5943 15 35.3896 15.2046 35.3896 15.4571C35.3896 15.7095 35.5943 15.9141 35.8467 15.9141Z" fill="black"/>
<path d="M41.8326 21.9001C42.0851 21.9001 42.2897 21.6955 42.2897 21.443C42.2897 21.1906 42.0851 20.986 41.8326 20.986C41.5802 20.986 41.3755 21.1906 41.3755 21.443C41.3755 21.6955 41.5802 21.9001 41.8326 21.9001Z" fill="black"/>
<path d="M43.5429 18.4796C43.7953 18.4796 44 18.2749 44 18.0225C44 17.7701 43.7953 17.5654 43.5429 17.5654C43.2905 17.5654 43.0858 17.7701 43.0858 18.0225C43.0858 18.2749 43.2905 18.4796 43.5429 18.4796Z" fill="black"/>
<path fill-rule="evenodd" clip-rule="evenodd" d="M31.5 55C46.6878 55 59 42.6878 59 27.5C59 12.3122 46.6878 0 31.5 0C16.3122 0 4 12.3122 4 27.5C4 42.6878 16.3122 55 31.5 55ZM31.5 51C44.4787 51 55 40.4787 55 27.5C55 14.5213 44.4787 4 31.5 4C18.5213 4 8 14.5213 8 27.5C8 40.4787 18.5213 51 31.5 51Z" fill="white"/>
<circle cx="31.5" cy="27.5" r="23.35" stroke="#02236A" stroke-opacity="0.5" stroke-width="0.3"/>
</g>
<g filter="url(#filter2_d_230_27632)">
<path d="M15.5602 63.188C15.1682 62.9733 14.7669 62.796 14.3562 62.656C13.9549 62.516 13.5769 62.446 13.2222 62.446C12.7836 62.446 12.4382 62.5347 12.1862 62.712C11.9342 62.8893 11.8082 63.1553 11.8082 63.51C11.8082 63.7527 11.9016 63.972 12.0882 64.168C12.2842 64.3547 12.5316 64.5227 12.8302 64.672C13.1382 64.8213 13.4556 64.9567 13.7822 65.078C14.0809 65.19 14.3749 65.3253 14.6642 65.484C14.9629 65.6333 15.2289 65.8247 15.4622 66.058C15.6956 66.282 15.8822 66.5667 16.0222 66.912C16.1622 67.248 16.2322 67.6633 16.2322 68.158C16.2322 68.6807 16.0969 69.166 15.8262 69.614C15.5556 70.062 15.1589 70.426 14.6362 70.706C14.1136 70.9767 13.4696 71.112 12.7042 71.112C12.3122 71.112 11.9109 71.0747 11.5002 71C11.0989 70.916 10.7022 70.7947 10.3102 70.636C9.91824 70.468 9.54024 70.258 9.17624 70.006L10.0722 68.424C10.3149 68.6013 10.5762 68.76 10.8562 68.9C11.1456 69.0307 11.4349 69.1333 11.7242 69.208C12.0136 69.2827 12.2796 69.32 12.5222 69.32C12.7649 69.32 13.0076 69.2873 13.2502 69.222C13.5022 69.1473 13.7076 69.026 13.8662 68.858C14.0342 68.69 14.1182 68.4567 14.1182 68.158C14.1182 67.9527 14.0482 67.766 13.9082 67.598C13.7776 67.43 13.5956 67.276 13.3622 67.136C13.1382 66.996 12.8909 66.8747 12.6202 66.772C12.3029 66.6507 11.9762 66.5107 11.6402 66.352C11.3042 66.1933 10.9869 66.002 10.6882 65.778C10.3989 65.5447 10.1609 65.26 9.97424 64.924C9.79691 64.5787 9.70824 64.1587 9.70824 63.664C9.70824 63.0667 9.83891 62.5487 10.1002 62.11C10.3709 61.6713 10.7489 61.326 11.2342 61.074C11.7196 60.8127 12.2796 60.668 12.9142 60.64C13.7449 60.64 14.4169 60.738 14.9302 60.934C15.4529 61.13 15.9196 61.3633 16.3302 61.634L15.5602 63.188ZM21.2024 60.696C22.0517 60.696 22.7704 60.8407 23.3584 61.13C23.9464 61.41 24.3944 61.8113 24.7024 62.334C25.0104 62.8473 25.1644 63.4587 25.1644 64.168C25.1644 64.588 25.099 65.0127 24.9684 65.442C24.847 65.862 24.6464 66.2447 24.3664 66.59C24.0957 66.9353 23.727 67.2153 23.2604 67.43C22.803 67.6353 22.2384 67.738 21.5664 67.738H20.1104V71H18.0804V60.696H21.2024ZM21.5524 65.764C21.8604 65.764 22.117 65.7127 22.3224 65.61C22.5277 65.498 22.6864 65.3627 22.7984 65.204C22.9197 65.036 23.0037 64.8633 23.0504 64.686C23.1064 64.5087 23.1344 64.3547 23.1344 64.224C23.1344 64.1213 23.1157 63.986 23.0784 63.818C23.0504 63.6407 22.985 63.4633 22.8824 63.286C22.7797 63.1087 22.621 62.9593 22.4064 62.838C22.201 62.7167 21.921 62.656 21.5664 62.656H20.1104V65.764H21.5524ZM26.8407 60.696H33.8687V62.656H28.8707V64.854H33.2947V66.814H28.8707V69.04H34.0647V71H26.8407V60.696ZM36.025 60.696H38.055V69.04H42.899V71H36.025V60.696ZM43.6917 71L48.3397 60.29H48.4517L53.0997 71H50.7477L47.7797 63.468L49.2497 62.46L45.6937 71H43.6917ZM46.8697 67.276H49.9637L50.6777 68.984H46.2397L46.8697 67.276Z" fill="#3A95DF"/>
</g>
<defs>
<filter id="filter0_d_230_27632" x="2.38419e-07" y="0" width="63" height="63" filterUnits="userSpaceOnUse" color-interpolation-filters="sRGB">
<feFlood flood-opacity="0" result="BackgroundImageFix"/>
<feColorMatrix in="SourceAlpha" type="matrix" values="0 0 0 0 0 0 0 0 0 0 0 0 0 0 0 0 0 0 127 0" result="hardAlpha"/>
<feOffset dy="4"/>
<feGaussianBlur stdDeviation="2"/>
<feComposite in2="hardAlpha" operator="out"/>
<feColorMatrix type="matrix" values="0 0 0 0 0 0 0 0 0 0 0 0 0 0 0 0 0 0 0.25 0"/>
<feBlend mode="normal" in2="BackgroundImageFix" result="effect1_dropShadow_230_27632"/>
<feBlend mode="normal" in="SourceGraphic" in2="effect1_dropShadow_230_27632" result="shape"/>
</filter>
<filter id="filter1_d_230_27632" x="3.5" y="4" width="55" height="55" filterUnits="userSpaceOnUse" color-interpolation-filters="sRGB">
<feFlood flood-opacity="0" result="BackgroundImageFix"/>
<feColorMatrix in="SourceAlpha" type="matrix" values="0 0 0 0 0 0 0 0 0 0 0 0 0 0 0 0 0 0 127 0" result="hardAlpha"/>
<feOffset dy="4"/>
<feGaussianBlur stdDeviation="2"/>
<feComposite in2="hardAlpha" operator="out"/>
<feColorMatrix type="matrix" values="0 0 0 0 0 0 0 0 0 0 0 0 0 0 0 0 0 0 0.25 0"/>
<feBlend mode="normal" in2="BackgroundImageFix" result="effect1_dropShadow_230_27632"/>
<feBlend mode="normal" in="SourceGraphic" in2="effect1_dropShadow_230_27632" result="shape"/>
</filter>
<filter id="filter2_d_230_27632" x="5.17624" y="59.29" width="51.9235" height="18.822" filterUnits="userSpaceOnUse" color-interpolation-filters="sRGB">
<feFlood flood-opacity="0" result="BackgroundImageFix"/>
<feColorMatrix in="SourceAlpha" type="matrix" values="0 0 0 0 0 0 0 0 0 0 0 0 0 0 0 0 0 0 127 0" result="hardAlpha"/>
<feOffset dy="3"/>
<feGaussianBlur stdDeviation="2"/>
<feComposite in2="hardAlpha" operator="out"/>
<feColorMatrix type="matrix" values="0 0 0 0 0 0 0 0 0 0 0 0 0 0 0 0 0 0 0.25 0"/>
<feBlend mode="normal" in2="BackgroundImageFix" result="effect1_dropShadow_230_27632"/>
<feBlend mode="normal" in="SourceGraphic" in2="effect1_dropShadow_230_27632" result="shape"/>
</filter>
<linearGradient id="paint0_linear_230_27632" x1="19.5" y1="15" x2="47.5" y2="43.5" gradientUnits="userSpaceOnUse">
<stop offset="0.0729167" stop-color="#FFE400"/>
<stop offset="1" stop-color="#26DFD0"/>
</linearGradient>
</defs>
</svg>
