<svg width="65" height="80" viewBox="0 0 65 80" fill="none" xmlns="http://www.w3.org/2000/svg">
<g filter="url(#filter0_d_230_27346)">
<circle cx="32.0354" cy="23.5354" r="23.5354" fill="url(#paint0_linear_230_27346)"/>
</g>
<path d="M31.9034 36.924C29.3802 36.9081 27.0375 36.2517 24.8918 34.9187C24.6596 34.7742 24.4959 34.7558 24.252 34.9003C23.0226 35.6286 21.6854 36.0253 20.2572 36.0796C19.8437 36.0955 19.427 36.0395 19.0127 36.0036C18.7655 35.9819 18.5725 35.8599 18.5158 35.6019C18.4531 35.3204 18.5817 35.1249 18.8223 34.9796C19.7778 34.4042 20.6105 33.69 21.2862 32.7972C21.7188 32.2251 21.7205 32.2309 21.2937 31.6688C19.721 29.5967 18.793 27.2714 18.5659 24.6747C17.9896 18.0774 22.1765 12.0254 28.6336 10.4535C34.0207 9.14221 38.6328 10.6915 42.2893 14.8818C44.055 16.9047 45.0163 19.3135 45.3187 21.977C46.0938 28.7948 41.5427 35.1391 34.815 36.5966C33.8645 36.8029 32.884 36.8689 31.9176 37C31.9135 36.975 31.9084 36.9491 31.9043 36.924H31.9034ZM19.3844 35.4047C19.5305 35.4198 19.64 35.4373 19.7494 35.4423C21.2361 35.5041 22.6208 35.1341 23.8895 34.3799C24.4024 34.0751 24.7899 34.1093 25.2869 34.415C27.7633 35.9401 30.4677 36.5331 33.3542 36.2132C35.8782 35.9334 38.1592 35.0022 40.0777 33.3342C44.1736 29.7729 45.6619 25.2861 44.2855 20.0435C42.519 13.3175 35.6803 9.3744 28.9125 11.0064C26.1371 11.6763 23.8469 13.1437 22.0437 15.3445C19.7535 18.1408 18.8189 21.3664 19.2165 24.9529C19.4938 27.4535 20.4618 29.6818 22.0638 31.6296C22.3912 32.028 22.3995 32.2752 22.118 32.702C21.6445 33.4194 21.0865 34.0634 20.4184 34.6054C20.091 34.871 19.7519 35.1224 19.3852 35.4047H19.3844Z" fill="black"/>
<path d="M20.5411 34.7577L20.541 34.7577C20.3358 34.9242 20.1244 35.0861 19.9069 35.2519C21.297 35.2819 22.5946 34.9215 23.7884 34.2122C24.0665 34.0469 24.3289 33.9626 24.6007 33.973C24.8704 33.9834 25.1249 34.0861 25.3887 34.2488C27.8274 35.7499 30.488 36.3343 33.3316 36.0191L33.3317 36.0191C35.8195 35.7442 38.0622 34.8266 39.9481 33.1871C41.9737 31.4257 43.3467 29.4426 44.046 27.26C44.7452 25.0779 44.7749 22.6839 44.0949 20.0941C42.3564 13.474 35.625 9.58925 28.9584 11.1971L20.5411 34.7577ZM20.5411 34.7577C21.2268 34.2005 21.7986 33.5418 22.2808 32.81M20.5411 34.7577L22.2808 32.81M22.2808 32.81C22.4284 32.5862 22.5252 32.3742 22.5145 32.1459C22.5038 31.917 22.3871 31.7147 22.2142 31.5048C20.6355 29.5854 19.6834 27.3917 19.4105 24.9312C19.0187 21.3965 19.9383 18.2237 22.1953 15.4688L22.1953 15.4688M22.2808 32.81L22.1953 15.4688M22.1953 15.4688C23.9714 13.3001 26.2248 11.8566 28.9584 11.1971L22.1953 15.4688Z" fill="#AAE23B" stroke="black" stroke-width="0.392256"/>
<path d="M29.1078 22.2209V21.1H33.0801V21.4725C33.0801 24.1494 33.0743 26.8262 33.0826 29.5031C33.0877 31.0608 32.8672 30.8303 34.4098 30.8478C34.5342 30.8495 34.6587 30.8478 34.8065 30.8478V31.9829H29.112V30.8486C29.5363 30.8486 29.9589 30.8503 30.3816 30.8486C30.7298 30.847 30.8267 30.7534 30.8267 30.4093C30.8276 27.826 30.8276 25.2435 30.8267 22.6602C30.8267 22.3269 30.7173 22.2234 30.3732 22.2217C29.9589 22.2192 29.5438 22.2217 29.1078 22.2217V22.2209Z" fill="black"/>
<path d="M31.4565 14.9411C32.2775 14.9436 32.9415 15.5809 32.9281 16.3986C32.9139 17.2689 32.3134 17.8602 31.449 17.8919C30.6472 17.9212 29.9556 17.1887 29.9731 16.3911C29.9907 15.5692 30.6363 14.9386 31.4573 14.9411H31.4565Z" fill="black"/>
<g filter="url(#filter1_d_230_27346)">
<path d="M4.05195 61.862C4.05195 61.1527 4.18729 60.4807 4.45795 59.846C4.72862 59.2113 5.10195 58.6513 5.57795 58.166C6.06329 57.6713 6.62329 57.284 7.25795 57.004C7.89262 56.724 8.57395 56.584 9.30195 56.584C10.0206 56.584 10.6973 56.724 11.332 57.004C11.9666 57.284 12.5266 57.6713 13.012 58.166C13.5066 58.6513 13.8893 59.2113 14.16 59.846C14.44 60.4807 14.58 61.1527 14.58 61.862C14.58 62.59 14.44 63.2713 14.16 63.906C13.8893 64.5407 13.5066 65.1007 13.012 65.586C12.5266 66.062 11.9666 66.4353 11.332 66.706C10.6973 66.9767 10.0206 67.112 9.30195 67.112C8.57395 67.112 7.89262 66.9767 7.25795 66.706C6.62329 66.4353 6.06329 66.062 5.57795 65.586C5.10195 65.1007 4.72862 64.5407 4.45795 63.906C4.18729 63.2713 4.05195 62.59 4.05195 61.862ZM6.15195 61.862C6.15195 62.3193 6.23129 62.7487 6.38995 63.15C6.55795 63.542 6.78662 63.892 7.07595 64.2C7.37462 64.4987 7.71529 64.732 8.09795 64.9C8.48995 65.068 8.91462 65.152 9.37195 65.152C9.81062 65.152 10.2166 65.068 10.59 64.9C10.9726 64.732 11.304 64.4987 11.584 64.2C11.864 63.892 12.0833 63.542 12.242 63.15C12.4006 62.7487 12.48 62.3193 12.48 61.862C12.48 61.3953 12.396 60.9613 12.228 60.56C12.0693 60.1587 11.8453 59.8087 11.556 59.51C11.276 59.202 10.9446 58.964 10.562 58.796C10.1793 58.628 9.76395 58.544 9.31595 58.544C8.86795 58.544 8.45262 58.628 8.06995 58.796C7.68729 58.964 7.35129 59.202 7.06195 59.51C6.77262 59.8087 6.54862 60.1587 6.38995 60.56C6.23129 60.9613 6.15195 61.3953 6.15195 61.862ZM16.4638 67V56.276H16.4778L22.2038 64.396L21.3358 64.2L27.0478 56.276H27.0758V67H25.0458V60.854L25.1718 61.904L21.6858 66.86H21.6578L18.0738 61.904L18.4238 60.938V67H16.4638ZM33.382 61.862C33.382 61.1527 33.5173 60.4807 33.788 59.846C34.0586 59.2113 34.432 58.6513 34.908 58.166C35.3933 57.6713 35.9533 57.284 36.588 57.004C37.2226 56.724 37.904 56.584 38.632 56.584C39.3506 56.584 40.0273 56.724 40.662 57.004C41.2966 57.284 41.8566 57.6713 42.342 58.166C42.8366 58.6513 43.2193 59.2113 43.49 59.846C43.77 60.4807 43.91 61.1527 43.91 61.862C43.91 62.59 43.77 63.2713 43.49 63.906C43.2193 64.5407 42.8366 65.1007 42.342 65.586C41.8566 66.062 41.2966 66.4353 40.662 66.706C40.0273 66.9767 39.3506 67.112 38.632 67.112C37.904 67.112 37.2226 66.9767 36.588 66.706C35.9533 66.4353 35.3933 66.062 34.908 65.586C34.432 65.1007 34.0586 64.5407 33.788 63.906C33.5173 63.2713 33.382 62.59 33.382 61.862ZM35.482 61.862C35.482 62.3193 35.5613 62.7487 35.72 63.15C35.888 63.542 36.1166 63.892 36.406 64.2C36.7046 64.4987 37.0453 64.732 37.428 64.9C37.82 65.068 38.2446 65.152 38.702 65.152C39.1406 65.152 39.5466 65.068 39.92 64.9C40.3026 64.732 40.634 64.4987 40.914 64.2C41.194 63.892 41.4133 63.542 41.572 63.15C41.7306 62.7487 41.81 62.3193 41.81 61.862C41.81 61.3953 41.726 60.9613 41.558 60.56C41.3993 60.1587 41.1753 59.8087 40.886 59.51C40.606 59.202 40.2746 58.964 39.892 58.796C39.5093 58.628 39.094 58.544 38.646 58.544C38.198 58.544 37.7826 58.628 37.4 58.796C37.0173 58.964 36.6813 59.202 36.392 59.51C36.1026 59.8087 35.8786 60.1587 35.72 60.56C35.5613 60.9613 35.482 61.3953 35.482 61.862ZM51.2958 59.188C50.9038 58.9733 50.5025 58.796 50.0918 58.656C49.6905 58.516 49.3125 58.446 48.9578 58.446C48.5192 58.446 48.1738 58.5347 47.9218 58.712C47.6698 58.8893 47.5438 59.1553 47.5438 59.51C47.5438 59.7527 47.6372 59.972 47.8238 60.168C48.0198 60.3547 48.2672 60.5227 48.5658 60.672C48.8738 60.8213 49.1912 60.9567 49.5178 61.078C49.8165 61.19 50.1105 61.3253 50.3998 61.484C50.6985 61.6333 50.9645 61.8247 51.1978 62.058C51.4312 62.282 51.6178 62.5667 51.7578 62.912C51.8978 63.248 51.9678 63.6633 51.9678 64.158C51.9678 64.6807 51.8325 65.166 51.5618 65.614C51.2912 66.062 50.8945 66.426 50.3718 66.706C49.8492 66.9767 49.2052 67.112 48.4398 67.112C48.0478 67.112 47.6465 67.0747 47.2358 67C46.8345 66.916 46.4378 66.7947 46.0458 66.636C45.6538 66.468 45.2758 66.258 44.9118 66.006L45.8078 64.424C46.0505 64.6013 46.3118 64.76 46.5918 64.9C46.8812 65.0307 47.1705 65.1333 47.4598 65.208C47.7492 65.2827 48.0152 65.32 48.2578 65.32C48.5005 65.32 48.7432 65.2873 48.9858 65.222C49.2378 65.1473 49.4432 65.026 49.6018 64.858C49.7698 64.69 49.8538 64.4567 49.8538 64.158C49.8538 63.9527 49.7838 63.766 49.6438 63.598C49.5132 63.43 49.3312 63.276 49.0978 63.136C48.8738 62.996 48.6265 62.8747 48.3558 62.772C48.0385 62.6507 47.7118 62.5107 47.3758 62.352C47.0398 62.1933 46.7225 62.002 46.4238 61.778C46.1345 61.5447 45.8965 61.26 45.7098 60.924C45.5325 60.5787 45.4438 60.1587 45.4438 59.664C45.4438 59.0667 45.5745 58.5487 45.8358 58.11C46.1065 57.6713 46.4845 57.326 46.9698 57.074C47.4552 56.8127 48.0152 56.668 48.6498 56.64C49.4805 56.64 50.1525 56.738 50.6658 56.934C51.1885 57.13 51.6552 57.3633 52.0658 57.634L51.2958 59.188ZM59.3179 59.188C58.9259 58.9733 58.5246 58.796 58.1139 58.656C57.7126 58.516 57.3346 58.446 56.9799 58.446C56.5413 58.446 56.1959 58.5347 55.9439 58.712C55.6919 58.8893 55.5659 59.1553 55.5659 59.51C55.5659 59.7527 55.6593 59.972 55.8459 60.168C56.0419 60.3547 56.2893 60.5227 56.5879 60.672C56.8959 60.8213 57.2133 60.9567 57.5399 61.078C57.8386 61.19 58.1326 61.3253 58.4219 61.484C58.7206 61.6333 58.9866 61.8247 59.2199 62.058C59.4533 62.282 59.6399 62.5667 59.7799 62.912C59.9199 63.248 59.9899 63.6633 59.9899 64.158C59.9899 64.6807 59.8546 65.166 59.5839 65.614C59.3133 66.062 58.9166 66.426 58.3939 66.706C57.8713 66.9767 57.2273 67.112 56.4619 67.112C56.0699 67.112 55.6686 67.0747 55.2579 67C54.8566 66.916 54.4599 66.7947 54.0679 66.636C53.6759 66.468 53.2979 66.258 52.9339 66.006L53.8299 64.424C54.0726 64.6013 54.3339 64.76 54.6139 64.9C54.9033 65.0307 55.1926 65.1333 55.4819 65.208C55.7713 65.2827 56.0373 65.32 56.2799 65.32C56.5226 65.32 56.7653 65.2873 57.0079 65.222C57.2599 65.1473 57.4653 65.026 57.6239 64.858C57.7919 64.69 57.8759 64.4567 57.8759 64.158C57.8759 63.9527 57.8059 63.766 57.6659 63.598C57.5353 63.43 57.3533 63.276 57.1199 63.136C56.8959 62.996 56.6486 62.8747 56.3779 62.772C56.0606 62.6507 55.7339 62.5107 55.3979 62.352C55.0619 62.1933 54.7446 62.002 54.4459 61.778C54.1566 61.5447 53.9186 61.26 53.7319 60.924C53.5546 60.5787 53.4659 60.1587 53.4659 59.664C53.4659 59.0667 53.5966 58.5487 53.8579 58.11C54.1286 57.6713 54.5066 57.326 54.9919 57.074C55.4773 56.8127 56.0373 56.668 56.6719 56.64C57.5026 56.64 58.1746 56.738 58.6879 56.934C59.2106 57.13 59.6773 57.3633 60.0879 57.634L59.3179 59.188Z" fill="#F5F5F5"/>
</g>
<defs>
<filter id="filter0_d_230_27346" x="4.49398" y="0" width="55.0827" height="55.0827" filterUnits="userSpaceOnUse" color-interpolation-filters="sRGB">
<feFlood flood-opacity="0" result="BackgroundImageFix"/>
<feColorMatrix in="SourceAlpha" type="matrix" values="0 0 0 0 0 0 0 0 0 0 0 0 0 0 0 0 0 0 127 0" result="hardAlpha"/>
<feOffset dy="4.00602"/>
<feGaussianBlur stdDeviation="2.00301"/>
<feComposite in2="hardAlpha" operator="out"/>
<feColorMatrix type="matrix" values="0 0 0 0 0 0 0 0 0 0 0 0 0 0 0 0 0 0 0.25 0"/>
<feBlend mode="normal" in2="BackgroundImageFix" result="effect1_dropShadow_230_27346"/>
<feBlend mode="normal" in="SourceGraphic" in2="effect1_dropShadow_230_27346" result="shape"/>
</filter>
<filter id="filter1_d_230_27346" x="0.0519409" y="55.276" width="64.036" height="18.836" filterUnits="userSpaceOnUse" color-interpolation-filters="sRGB">
<feFlood flood-opacity="0" result="BackgroundImageFix"/>
<feColorMatrix in="SourceAlpha" type="matrix" values="0 0 0 0 0 0 0 0 0 0 0 0 0 0 0 0 0 0 127 0" result="hardAlpha"/>
<feOffset dy="3"/>
<feGaussianBlur stdDeviation="2"/>
<feComposite in2="hardAlpha" operator="out"/>
<feColorMatrix type="matrix" values="0 0 0 0 0 0 0 0 0 0 0 0 0 0 0 0 0 0 0.25 0"/>
<feBlend mode="normal" in2="BackgroundImageFix" result="effect1_dropShadow_230_27346"/>
<feBlend mode="normal" in="SourceGraphic" in2="effect1_dropShadow_230_27346" result="shape"/>
</filter>
<linearGradient id="paint0_linear_230_27346" x1="12.506" y1="16.0241" x2="52.5662" y2="34.0511" gradientUnits="userSpaceOnUse">
<stop offset="0.0729167" stop-color="#26DFD0"/>
<stop offset="1" stop-color="#2F54A3"/>
</linearGradient>
</defs>
</svg>
