<svg width="64" height="83" viewBox="0 0 64 83" fill="none" xmlns="http://www.w3.org/2000/svg">
<g filter="url(#filter0_d_230_27666)">
<g filter="url(#filter1_d_230_27666)">
<circle cx="32.4781" cy="26.9781" r="23.9781" fill="url(#paint0_linear_230_27666)"/>
</g>
<path d="M46.0001 22.751C45.9576 23.7261 45.5841 24.3494 44.8803 24.7771C44.0869 25.2604 43.578 25.9502 43.4373 26.8713C43.2347 28.2006 43.735 29.2307 44.8571 29.9507C45.431 30.3188 45.8246 30.7975 45.9537 31.4734C46.0334 31.8894 45.9885 32.297 45.8308 32.6921C45.3173 33.9805 44.6321 35.1722 43.7737 36.2595C43.0707 37.1496 41.9734 37.3468 40.917 36.7939C39.6271 36.1188 38.1941 36.3399 37.2406 37.3669C36.7201 37.9276 36.4626 38.6004 36.4356 39.359C36.3922 40.5848 35.7241 41.3968 34.51 41.587C33.1311 41.8028 31.743 41.8089 30.3641 41.5661C29.2737 41.3743 28.5816 40.5298 28.5592 39.4163C28.5236 37.6801 27.1819 36.3577 25.4504 36.4227C24.9957 36.4397 24.5177 36.5905 24.1048 36.7916C22.9386 37.3576 21.8907 37.1457 21.1104 36.125C20.3278 35.1011 19.6937 33.9929 19.2049 32.8012C18.7448 31.6798 19.0797 30.6165 20.1128 29.9723C21.0408 29.3939 21.5682 28.561 21.6015 27.4752C21.6363 26.3299 21.1391 25.4236 20.1592 24.8119C19.5831 24.4523 19.181 23.9798 19.0449 23.3023C18.9613 22.8855 18.9938 22.4764 19.15 22.082C19.6643 20.7836 20.3526 19.5834 21.2187 18.4883C21.9248 17.5959 23.0159 17.3995 24.0746 17.9532C25.3653 18.6275 26.7998 18.4064 27.751 17.3817C28.2715 16.821 28.5275 16.1475 28.5569 15.3896C28.604 14.1585 29.2668 13.3526 30.4817 13.1616C31.8706 12.9436 33.268 12.9412 34.6561 13.1864C35.7024 13.3704 36.4154 14.235 36.434 15.3014C36.4649 17.0724 37.8167 18.4041 39.5699 18.3259C40.0153 18.3058 40.4824 18.155 40.8876 17.9578C42.0662 17.384 43.0963 17.599 43.8982 18.6461C44.6824 19.6692 45.3173 20.779 45.7944 21.9753C45.9104 22.2653 45.9568 22.5824 46.0001 22.7517V22.751ZM23.0592 36.1806C23.2147 36.1195 23.473 36.0414 23.7088 35.92C24.5858 35.4699 25.5053 35.3478 26.4573 35.5751C28.246 36.002 29.4431 37.5139 29.4848 39.3621C29.5003 40.0566 29.8994 40.5391 30.5737 40.6489C31.801 40.8492 33.0337 40.843 34.2625 40.6737C35.1302 40.5546 35.4828 40.1092 35.5106 39.2268C35.5408 38.2748 35.895 37.4427 36.5376 36.7444C37.7788 35.3972 39.6874 35.0848 41.323 35.9455C42.0175 36.3113 42.6114 36.217 43.053 35.6548C43.8425 34.6479 44.4828 33.5521 44.943 32.3581C45.025 32.1446 45.0412 31.8863 45.018 31.6559C44.9739 31.2174 44.6731 30.9521 44.3174 30.7225C43.162 29.9777 42.5101 28.919 42.4606 27.5379C42.4041 25.9757 43.0947 24.7964 44.404 23.9643C45.0072 23.5807 45.199 22.993 44.9329 22.3403C44.4875 21.246 43.8936 20.2392 43.2076 19.2771C42.7227 18.5982 42.026 18.3886 41.2519 18.8309C40.4082 19.3127 39.4778 19.3986 38.5344 19.1735C36.748 18.7466 35.5532 17.2402 35.5068 15.3865C35.4898 14.6913 35.0915 14.2095 34.4179 14.0997C33.1907 13.9002 31.958 13.904 30.7291 14.0742C29.8591 14.1948 29.5204 14.6364 29.4787 15.5203C29.4183 16.8156 28.8499 17.8643 27.775 18.585C26.4526 19.472 25.0575 19.513 23.6423 18.7892C22.9672 18.4435 22.3733 18.5378 21.9387 19.0931C21.1499 20.1007 20.5072 21.1958 20.0487 22.3906C19.9667 22.604 19.9481 22.8623 19.9721 23.092C20.0177 23.5289 20.3139 23.8004 20.6743 24.0246C22.0601 24.8877 22.7576 26.4397 22.4808 28.0436C22.2751 29.2346 21.6317 30.1301 20.6124 30.7681C19.9999 31.1517 19.7935 31.7177 20.0409 32.3519C20.5103 33.5536 21.1545 34.6572 21.9487 35.6733C22.2024 35.9981 22.5426 36.1528 23.0592 36.1806Z" fill="black"/>
<path d="M23.0592 36.1806C22.5434 36.152 22.2024 35.9981 21.9487 35.6733C21.1545 34.6572 20.5111 33.5536 20.0409 32.3519C19.7935 31.7177 19.9992 31.1516 20.6124 30.7681C21.6317 30.1301 22.2751 29.2346 22.4808 28.0436C22.7576 26.4397 22.0601 24.8877 20.6743 24.0246C20.3139 23.8004 20.0177 23.5289 19.9721 23.092C19.9481 22.8615 19.9667 22.604 20.0487 22.3906C20.508 21.1958 21.1499 20.1007 21.9387 19.0931C22.3733 18.5386 22.9664 18.4443 23.6423 18.7892C25.0575 19.513 26.4534 19.4728 27.775 18.585C28.85 17.8635 29.4184 16.8156 29.4787 15.5203C29.5197 14.6364 29.8591 14.1948 30.7291 14.0742C31.958 13.904 33.1907 13.8994 34.4179 14.0997C35.0915 14.2095 35.4898 14.6913 35.5068 15.3865C35.5532 17.2402 36.748 18.7466 38.5344 19.1735C39.4771 19.3985 40.4082 19.3135 41.2519 18.8309C42.026 18.3886 42.7228 18.5981 43.2076 19.2771C43.8944 20.2392 44.4875 21.2468 44.9329 22.3403C45.199 22.993 45.0064 23.5807 44.404 23.9643C43.0947 24.7964 42.4041 25.9757 42.4606 27.5379C42.5101 28.919 43.1628 29.9777 44.3174 30.7224C44.6731 30.9521 44.9739 31.2182 45.018 31.6559C45.0412 31.8863 45.025 32.1446 44.943 32.358C44.4836 33.5528 43.8425 34.6487 43.053 35.6548C42.6122 36.2177 42.0182 36.3113 41.323 35.9455C39.6874 35.0848 37.7788 35.3972 36.5376 36.7444C35.8942 37.4419 35.5408 38.2748 35.5107 39.2268C35.4828 40.1091 35.1302 40.5546 34.2625 40.6737C33.0337 40.843 31.801 40.8492 30.5737 40.6489C29.8994 40.5391 29.5003 40.0566 29.4849 39.3621C29.4431 37.5138 28.246 36.002 26.4573 35.5751C25.5053 35.3477 24.585 35.4699 23.7088 35.92C23.473 36.0406 23.2147 36.1188 23.0592 36.1806ZM27.2917 27.3554C27.2886 30.2229 29.6357 32.5823 32.4893 32.58C35.3444 32.5777 37.6922 30.2399 37.6969 27.3956C37.7015 24.5265 35.3575 22.1694 32.5001 22.1709C29.6473 22.1725 27.294 24.5141 27.2909 27.3554H27.2917Z" fill="#ED2484"/>
<path d="M27.2924 27.3554C27.2955 24.5141 29.6488 22.1725 32.5016 22.1709C35.3583 22.1694 37.703 24.5265 37.6984 27.3956C37.6938 30.2399 35.3452 32.5777 32.4908 32.58C29.6364 32.5823 27.2901 30.2229 27.2932 27.3554H27.2924ZM32.4552 31.6296C34.7667 31.6783 36.6931 29.8061 36.7433 27.4613C36.7936 25.0957 34.9399 23.1716 32.5681 23.1268C30.2187 23.0827 28.3071 24.9256 28.2491 27.2904C28.1911 29.6522 30.0594 31.5793 32.456 31.6303L32.4552 31.6296Z" fill="black"/>
<path fill-rule="evenodd" clip-rule="evenodd" d="M32 55C46.9117 55 59 42.6878 59 27.5C59 12.3122 46.9117 0 32 0C17.0883 0 5 12.3122 5 27.5C5 42.6878 17.0883 55 32 55ZM32 51C44.7427 51 55.0727 40.4787 55.0727 27.5C55.0727 14.5213 44.7427 4 32 4C19.2573 4 8.92727 14.5213 8.92727 27.5C8.92727 40.4787 19.2573 51 32 51Z" fill="white"/>
<path d="M54.9227 27.5C54.9227 40.3985 44.6573 50.85 32 50.85C19.3427 50.85 9.07728 40.3985 9.07728 27.5C9.07728 14.6015 19.3427 4.15 32 4.15C44.6573 4.15 54.9227 14.6015 54.9227 27.5Z" stroke="#02236A" stroke-opacity="0.5" stroke-width="0.3"/>
</g>
<g filter="url(#filter2_d_230_27666)">
<path d="M9.24027 63.364L9.18427 63.882L9.49227 63.49L12.8523 59.696H15.4843L11.2283 64.316L15.4983 70H12.9223L9.74427 65.604L9.24027 66.108V70H7.18227V59.696H9.24027V63.364ZM15.6408 64.862C15.6408 64.1527 15.7761 63.4807 16.0468 62.846C16.3174 62.2113 16.6908 61.6513 17.1668 61.166C17.6521 60.6713 18.2121 60.284 18.8468 60.004C19.4814 59.724 20.1628 59.584 20.8908 59.584C21.6094 59.584 22.2861 59.724 22.9208 60.004C23.5554 60.284 24.1154 60.6713 24.6008 61.166C25.0954 61.6513 25.4781 62.2113 25.7488 62.846C26.0288 63.4807 26.1688 64.1527 26.1688 64.862C26.1688 65.59 26.0288 66.2713 25.7488 66.906C25.4781 67.5407 25.0954 68.1007 24.6008 68.586C24.1154 69.062 23.5554 69.4353 22.9208 69.706C22.2861 69.9767 21.6094 70.112 20.8908 70.112C20.1628 70.112 19.4814 69.9767 18.8468 69.706C18.2121 69.4353 17.6521 69.062 17.1668 68.586C16.6908 68.1007 16.3174 67.5407 16.0468 66.906C15.7761 66.2713 15.6408 65.59 15.6408 64.862ZM17.7408 64.862C17.7408 65.3193 17.8201 65.7487 17.9788 66.15C18.1468 66.542 18.3754 66.892 18.6648 67.2C18.9634 67.4987 19.3041 67.732 19.6868 67.9C20.0788 68.068 20.5034 68.152 20.9608 68.152C21.3994 68.152 21.8054 68.068 22.1788 67.9C22.5614 67.732 22.8928 67.4987 23.1728 67.2C23.4528 66.892 23.6721 66.542 23.8308 66.15C23.9894 65.7487 24.0688 65.3193 24.0688 64.862C24.0688 64.3953 23.9848 63.9613 23.8168 63.56C23.6581 63.1587 23.4341 62.8087 23.1448 62.51C22.8648 62.202 22.5334 61.964 22.1508 61.796C21.7681 61.628 21.3528 61.544 20.9048 61.544C20.4568 61.544 20.0414 61.628 19.6588 61.796C19.2761 61.964 18.9401 62.202 18.6508 62.51C18.3614 62.8087 18.1374 63.1587 17.9788 63.56C17.8201 63.9613 17.7408 64.3953 17.7408 64.862ZM37.2787 70.42L29.4667 63.364L30.0687 63.7L30.1107 70H28.0527V59.29H28.1367L35.7807 66.318L35.3327 66.122L35.2907 59.696H37.3347V70.42H37.2787ZM39.1482 59.696H46.0922V61.656H43.5862V70H41.5562V61.656H39.1482V59.696ZM46.9259 64.862C46.9259 64.1527 47.0612 63.4807 47.3319 62.846C47.6025 62.2113 47.9759 61.6513 48.4519 61.166C48.9372 60.6713 49.4972 60.284 50.1319 60.004C50.7665 59.724 51.4479 59.584 52.1759 59.584C52.8945 59.584 53.5712 59.724 54.2059 60.004C54.8405 60.284 55.4005 60.6713 55.8859 61.166C56.3805 61.6513 56.7632 62.2113 57.0339 62.846C57.3139 63.4807 57.4539 64.1527 57.4539 64.862C57.4539 65.59 57.3139 66.2713 57.0339 66.906C56.7632 67.5407 56.3805 68.1007 55.8859 68.586C55.4005 69.062 54.8405 69.4353 54.2059 69.706C53.5712 69.9767 52.8945 70.112 52.1759 70.112C51.4479 70.112 50.7665 69.9767 50.1319 69.706C49.4972 69.4353 48.9372 69.062 48.4519 68.586C47.9759 68.1007 47.6025 67.5407 47.3319 66.906C47.0612 66.2713 46.9259 65.59 46.9259 64.862ZM49.0259 64.862C49.0259 65.3193 49.1052 65.7487 49.2639 66.15C49.4319 66.542 49.6605 66.892 49.9499 67.2C50.2485 67.4987 50.5892 67.732 50.9719 67.9C51.3639 68.068 51.7885 68.152 52.2459 68.152C52.6845 68.152 53.0905 68.068 53.4639 67.9C53.8465 67.732 54.1779 67.4987 54.4579 67.2C54.7379 66.892 54.9572 66.542 55.1159 66.15C55.2745 65.7487 55.3539 65.3193 55.3539 64.862C55.3539 64.3953 55.2699 63.9613 55.1019 63.56C54.9432 63.1587 54.7192 62.8087 54.4299 62.51C54.1499 62.202 53.8185 61.964 53.4359 61.796C53.0532 61.628 52.6379 61.544 52.1899 61.544C51.7419 61.544 51.3265 61.628 50.9439 61.796C50.5612 61.964 50.2252 62.202 49.9359 62.51C49.6465 62.8087 49.4225 63.1587 49.2639 63.56C49.1052 63.9613 49.0259 64.3953 49.0259 64.862Z" fill="#F94FAF"/>
</g>
<defs>
<filter id="filter0_d_230_27666" x="0.918618" y="0" width="62.1628" height="63.1628" filterUnits="userSpaceOnUse" color-interpolation-filters="sRGB">
<feFlood flood-opacity="0" result="BackgroundImageFix"/>
<feColorMatrix in="SourceAlpha" type="matrix" values="0 0 0 0 0 0 0 0 0 0 0 0 0 0 0 0 0 0 127 0" result="hardAlpha"/>
<feOffset dy="4.08138"/>
<feGaussianBlur stdDeviation="2.04069"/>
<feComposite in2="hardAlpha" operator="out"/>
<feColorMatrix type="matrix" values="0 0 0 0 0 0 0 0 0 0 0 0 0 0 0 0 0 0 0.25 0"/>
<feBlend mode="normal" in2="BackgroundImageFix" result="effect1_dropShadow_230_27666"/>
<feBlend mode="normal" in="SourceGraphic" in2="effect1_dropShadow_230_27666" result="shape"/>
</filter>
<filter id="filter1_d_230_27666" x="4.41862" y="3" width="56.119" height="56.119" filterUnits="userSpaceOnUse" color-interpolation-filters="sRGB">
<feFlood flood-opacity="0" result="BackgroundImageFix"/>
<feColorMatrix in="SourceAlpha" type="matrix" values="0 0 0 0 0 0 0 0 0 0 0 0 0 0 0 0 0 0 127 0" result="hardAlpha"/>
<feOffset dy="4.08138"/>
<feGaussianBlur stdDeviation="2.04069"/>
<feComposite in2="hardAlpha" operator="out"/>
<feColorMatrix type="matrix" values="0 0 0 0 0 0 0 0 0 0 0 0 0 0 0 0 0 0 0.25 0"/>
<feBlend mode="normal" in2="BackgroundImageFix" result="effect1_dropShadow_230_27666"/>
<feBlend mode="normal" in="SourceGraphic" in2="effect1_dropShadow_230_27666" result="shape"/>
</filter>
<filter id="filter2_d_230_27666" x="3.18228" y="58.29" width="58.2716" height="19.13" filterUnits="userSpaceOnUse" color-interpolation-filters="sRGB">
<feFlood flood-opacity="0" result="BackgroundImageFix"/>
<feColorMatrix in="SourceAlpha" type="matrix" values="0 0 0 0 0 0 0 0 0 0 0 0 0 0 0 0 0 0 127 0" result="hardAlpha"/>
<feOffset dy="3"/>
<feGaussianBlur stdDeviation="2"/>
<feComposite in2="hardAlpha" operator="out"/>
<feColorMatrix type="matrix" values="0 0 0 0 0 0 0 0 0 0 0 0 0 0 0 0 0 0 0.25 0"/>
<feBlend mode="normal" in2="BackgroundImageFix" result="effect1_dropShadow_230_27666"/>
<feBlend mode="normal" in="SourceGraphic" in2="effect1_dropShadow_230_27666" result="shape"/>
</filter>
<linearGradient id="paint0_linear_230_27666" x1="20.7441" y1="14.2238" x2="49.3138" y2="43.3036" gradientUnits="userSpaceOnUse">
<stop offset="0.0729167" stop-color="#10BC10"/>
<stop offset="1" stop-color="#FFE400"/>
</linearGradient>
</defs>
</svg>
