<svg width="60" height="80" viewBox="0 0 60 80" fill="none" xmlns="http://www.w3.org/2000/svg">
<g filter="url(#filter0_d_207_4354)">
<g filter="url(#filter1_d_207_4354)">
<circle cx="30" cy="23.5" r="23.5" fill="url(#paint0_linear_207_4354)"/>
</g>
<path d="M40.8749 13.1378C41.4653 13.1378 41.9438 12.6593 41.9438 12.0689C41.9438 11.4786 41.4653 11 40.8749 11C40.2846 11 39.806 11.4786 39.806 12.0689C39.806 12.6593 40.2846 13.1378 40.8749 13.1378Z" fill="#3A95DF" stroke="black" stroke-width="0.855137" stroke-linecap="round" stroke-linejoin="round"/>
<path d="M29.9719 35.799C36.5838 35.799 41.9438 30.4389 41.9438 23.827C41.9438 17.2151 36.5838 11.8551 29.9719 11.8551C23.36 11.8551 18 17.2151 18 23.827C18 30.4389 23.36 35.799 29.9719 35.799Z" fill="#3A95DF"/>
<path d="M29.9719 35.799C36.5838 35.799 41.9438 30.4389 41.9438 23.827C41.9438 17.2151 36.5838 11.8551 29.9719 11.8551C23.36 11.8551 18 17.2151 18 23.827C18 30.4389 23.36 35.799 29.9719 35.799Z" fill="#3A95DF" stroke="black" stroke-width="0.855137" stroke-linecap="round" stroke-linejoin="round"/>
<path d="M25.3743 32.3579C25.4627 32.3579 25.5491 32.3319 25.6227 32.2831L26.3744 31.7798C26.448 31.731 26.5344 31.705 26.6228 31.705H27.017C27.0758 31.705 27.134 31.6934 27.1883 31.6709C27.2425 31.6484 27.2919 31.6154 27.3334 31.5738C27.3749 31.5323 27.4079 31.4829 27.4303 31.4286C27.4528 31.3743 27.4643 31.3161 27.4642 31.2573V31.1769C27.4642 31.0582 27.5114 30.9443 27.5954 30.8604C27.6793 30.7764 27.7932 30.7293 27.9119 30.7293H30.2109C30.2697 30.7292 30.3279 30.7408 30.3822 30.7632C30.4365 30.7857 30.4858 30.8186 30.5273 30.8601L31.3735 31.7067V32.0321H32.0016C32.1014 32.0321 32.1983 32.0654 32.277 32.1269C32.3556 32.1883 32.4114 32.2743 32.4356 32.3711L32.5921 33.3221C32.6162 33.4189 32.672 33.5049 32.7507 33.5663C32.8293 33.6277 32.9263 33.6611 33.0261 33.6611H33.7033C33.7864 33.6611 33.8679 33.638 33.9386 33.5942C34.0093 33.5505 34.0664 33.4879 34.1035 33.4136L34.1818 33.2571C34.2189 33.1827 34.276 33.1201 34.3467 33.0764C34.4174 33.0327 34.4989 33.0095 34.582 33.0095H35.0232C35.1836 33.0095 35.3319 32.5978 35.4119 32.4584L36.5501 30.4663C36.5738 30.4245 36.5907 30.3792 36.6001 30.3321L36.8789 28.9391C36.9 28.833 36.8821 28.7229 36.8284 28.6291L35.6937 26.6426C35.6389 26.5471 35.5509 26.4751 35.4465 26.4403L34.9031 26.2591C34.822 26.232 34.7503 26.1823 34.6965 26.1159C34.6427 26.0495 34.6091 25.969 34.5995 25.8841L34.4952 24.9434C34.487 24.8691 34.4603 24.7981 34.4176 24.7368C34.3749 24.6754 34.3175 24.6258 34.2506 24.5924L34.0642 24.4992C33.9899 24.462 33.9275 24.4048 33.8838 24.3342C33.8402 24.2635 33.8171 24.182 33.8171 24.099V23.3995H33.4912L32.7272 24.6728C32.6693 24.7696 32.577 24.8411 32.4687 24.8728C32.3604 24.9045 32.2441 24.8942 32.1431 24.8438L31.5578 24.5513C31.4614 24.5031 31.3857 24.4217 31.3445 24.3221C31.3032 24.2225 31.2993 24.1114 31.3333 24.0092L31.3402 23.9895C31.3627 23.9222 31.369 23.8504 31.3584 23.7802C31.3478 23.71 31.3206 23.6433 31.2791 23.5857C31.2376 23.528 31.183 23.4811 31.1198 23.4487C31.0566 23.4163 30.9866 23.3995 30.9156 23.3995H29.8586C29.7755 23.3994 29.694 23.4226 29.6233 23.4663C29.5526 23.51 29.4955 23.5726 29.4584 23.647L29.0911 24.3829C29.0454 24.4739 28.9701 24.5466 28.8775 24.5891C28.785 24.6316 28.6807 24.6414 28.5819 24.6168L27.923 24.4521C27.8358 24.4303 27.7441 24.4352 27.6597 24.4662C27.5754 24.4973 27.5023 24.553 27.4501 24.6262L26.0631 26.5678C26.0207 26.6273 25.9643 26.6755 25.8989 26.708L23.7927 27.7607C23.687 27.8137 23.6066 27.9065 23.5691 28.0187C23.5316 28.1308 23.54 28.2533 23.5926 28.3593L24.9587 31.0914C24.9993 31.1729 25.0142 31.2647 25.0015 31.3548L24.9313 31.8461C24.9221 31.9096 24.9266 31.9744 24.9446 32.0361C24.9626 32.0977 24.9937 32.1548 25.0357 32.2033C25.0777 32.2519 25.1297 32.2908 25.1882 32.3175C25.2466 32.3442 25.3101 32.3579 25.3743 32.3579Z" fill="#10BC10" stroke="black" stroke-width="0.855137" stroke-linecap="round" stroke-linejoin="round"/>
<path d="M19.2173 18.8625L19.7102 20.8341L21.8481 21.2616L23.5584 22.9719H26.1238V21.6892L23.9859 21.2616L21.8481 19.5513V16.9859L24.4135 17.8411L25.6962 16.5584L24.3152 13.4512" fill="#10BC10"/>
<path d="M19.2173 18.8625L19.7102 20.8341L21.8481 21.2616L23.5584 22.9719H26.1238V21.6892L23.9859 21.2616L21.8481 19.5513V16.9859L24.4135 17.8411L25.6962 16.5584L24.3152 13.4512" stroke="black" stroke-width="0.855137" stroke-linecap="round" stroke-linejoin="round"/>
<path d="M29.1321 21.7888L30.8916 21.6794L32.5219 21.162" fill="#10BC10"/>
<path d="M29.1321 21.7888L30.8916 21.6794L32.5219 21.162" stroke="black" stroke-width="0.855137" stroke-linecap="round" stroke-linejoin="round"/>
<path d="M26.1238 17.8411L25.6962 18.2687Z" fill="#10BC10"/>
<path d="M26.1238 17.8411L25.6962 18.2687" stroke="black" stroke-width="0.855137" stroke-linecap="round" stroke-linejoin="round"/>
<path d="M31.2546 34.0887L31.6822 34.5163Z" fill="#3A95DF"/>
<path d="M31.2546 34.0887L31.6822 34.5163" stroke="black" stroke-width="0.855137" stroke-linecap="round" stroke-linejoin="round"/>
<path d="M36.3854 24.2546L35.9579 22.9719L34.2476 22.1168L33.82 20.8341L36.813 21.6892L37.2406 23.8271L36.3854 24.2546Z" fill="#10BC10" stroke="black" stroke-width="0.855137" stroke-linecap="round" stroke-linejoin="round"/>
<path d="M25.6962 19.9789L26.5514 20.4065Z" fill="#10BC10"/>
<path d="M25.6962 19.9789L26.5514 20.4065" stroke="black" stroke-width="0.855137" stroke-linecap="round" stroke-linejoin="round"/>
<path d="M28.2616 19.9789L28.6892 19.5514Z" fill="#10BC10"/>
<path d="M28.2616 19.9789L28.6892 19.5514" stroke="black" stroke-width="0.855137" stroke-linecap="round" stroke-linejoin="round"/>
<path d="M34.8467 11.9141C35.0992 11.9141 35.3038 11.7095 35.3038 11.4571C35.3038 11.2046 35.0992 11 34.8467 11C34.5943 11 34.3896 11.2046 34.3896 11.4571C34.3896 11.7095 34.5943 11.9141 34.8467 11.9141Z" fill="black"/>
<path d="M40.8326 17.9001C41.0851 17.9001 41.2897 17.6955 41.2897 17.443C41.2897 17.1906 41.0851 16.986 40.8326 16.986C40.5802 16.986 40.3755 17.1906 40.3755 17.443C40.3755 17.6955 40.5802 17.9001 40.8326 17.9001Z" fill="black"/>
<path d="M42.5429 14.4796C42.7953 14.4796 43 14.2749 43 14.0225C43 13.7701 42.7953 13.5654 42.5429 13.5654C42.2905 13.5654 42.0858 13.7701 42.0858 14.0225C42.0858 14.2749 42.2905 14.4796 42.5429 14.4796Z" fill="black"/>
</g>
<g filter="url(#filter2_d_207_4354)">
<path d="M14.5602 59.188C14.1682 58.9733 13.7669 58.796 13.3562 58.656C12.9549 58.516 12.5769 58.446 12.2222 58.446C11.7836 58.446 11.4382 58.5347 11.1862 58.712C10.9342 58.8893 10.8082 59.1553 10.8082 59.51C10.8082 59.7527 10.9016 59.972 11.0882 60.168C11.2842 60.3547 11.5316 60.5227 11.8302 60.672C12.1382 60.8213 12.4556 60.9567 12.7822 61.078C13.0809 61.19 13.3749 61.3253 13.6642 61.484C13.9629 61.6333 14.2289 61.8247 14.4622 62.058C14.6956 62.282 14.8822 62.5667 15.0222 62.912C15.1622 63.248 15.2322 63.6633 15.2322 64.158C15.2322 64.6807 15.0969 65.166 14.8262 65.614C14.5556 66.062 14.1589 66.426 13.6362 66.706C13.1136 66.9767 12.4696 67.112 11.7042 67.112C11.3122 67.112 10.9109 67.0747 10.5002 67C10.0989 66.916 9.70224 66.7947 9.31024 66.636C8.91824 66.468 8.54024 66.258 8.17624 66.006L9.07224 64.424C9.31491 64.6013 9.57624 64.76 9.85624 64.9C10.1456 65.0307 10.4349 65.1333 10.7242 65.208C11.0136 65.2827 11.2796 65.32 11.5222 65.32C11.7649 65.32 12.0076 65.2873 12.2502 65.222C12.5022 65.1473 12.7076 65.026 12.8662 64.858C13.0342 64.69 13.1182 64.4567 13.1182 64.158C13.1182 63.9527 13.0482 63.766 12.9082 63.598C12.7776 63.43 12.5956 63.276 12.3622 63.136C12.1382 62.996 11.8909 62.8747 11.6202 62.772C11.3029 62.6507 10.9762 62.5107 10.6402 62.352C10.3042 62.1933 9.98691 62.002 9.68824 61.778C9.39891 61.5447 9.16091 61.26 8.97424 60.924C8.79691 60.5787 8.70824 60.1587 8.70824 59.664C8.70824 59.0667 8.83891 58.5487 9.10024 58.11C9.37091 57.6713 9.74891 57.326 10.2342 57.074C10.7196 56.8127 11.2796 56.668 11.9142 56.64C12.7449 56.64 13.4169 56.738 13.9302 56.934C14.4529 57.13 14.9196 57.3633 15.3302 57.634L14.5602 59.188ZM20.2024 56.696C21.0517 56.696 21.7704 56.8407 22.3584 57.13C22.9464 57.41 23.3944 57.8113 23.7024 58.334C24.0104 58.8473 24.1644 59.4587 24.1644 60.168C24.1644 60.588 24.099 61.0127 23.9684 61.442C23.847 61.862 23.6464 62.2447 23.3664 62.59C23.0957 62.9353 22.727 63.2153 22.2604 63.43C21.803 63.6353 21.2384 63.738 20.5664 63.738H19.1104V67H17.0804V56.696H20.2024ZM20.5524 61.764C20.8604 61.764 21.117 61.7127 21.3224 61.61C21.5277 61.498 21.6864 61.3627 21.7984 61.204C21.9197 61.036 22.0037 60.8633 22.0504 60.686C22.1064 60.5087 22.1344 60.3547 22.1344 60.224C22.1344 60.1213 22.1157 59.986 22.0784 59.818C22.0504 59.6407 21.985 59.4633 21.8824 59.286C21.7797 59.1087 21.621 58.9593 21.4064 58.838C21.201 58.7167 20.921 58.656 20.5664 58.656H19.1104V61.764H20.5524ZM25.8407 56.696H32.8687V58.656H27.8707V60.854H32.2947V62.814H27.8707V65.04H33.0647V67H25.8407V56.696ZM35.025 56.696H37.055V65.04H41.899V67H35.025V56.696ZM42.6917 67L47.3397 56.29H47.4517L52.0997 67H49.7477L46.7797 59.468L48.2497 58.46L44.6937 67H42.6917ZM45.8697 63.276H48.9637L49.6777 64.984H45.2397L45.8697 63.276Z" fill="#F5F5F5"/>
</g>
<defs>
<filter id="filter0_d_207_4354" x="2.5" y="0" width="55" height="55" filterUnits="userSpaceOnUse" color-interpolation-filters="sRGB">
<feFlood flood-opacity="0" result="BackgroundImageFix"/>
<feColorMatrix in="SourceAlpha" type="matrix" values="0 0 0 0 0 0 0 0 0 0 0 0 0 0 0 0 0 0 127 0" result="hardAlpha"/>
<feOffset dy="4"/>
<feGaussianBlur stdDeviation="2"/>
<feComposite in2="hardAlpha" operator="out"/>
<feColorMatrix type="matrix" values="0 0 0 0 0 0 0 0 0 0 0 0 0 0 0 0 0 0 0.25 0"/>
<feBlend mode="normal" in2="BackgroundImageFix" result="effect1_dropShadow_207_4354"/>
<feBlend mode="normal" in="SourceGraphic" in2="effect1_dropShadow_207_4354" result="shape"/>
</filter>
<filter id="filter1_d_207_4354" x="2.5" y="0" width="55" height="55" filterUnits="userSpaceOnUse" color-interpolation-filters="sRGB">
<feFlood flood-opacity="0" result="BackgroundImageFix"/>
<feColorMatrix in="SourceAlpha" type="matrix" values="0 0 0 0 0 0 0 0 0 0 0 0 0 0 0 0 0 0 127 0" result="hardAlpha"/>
<feOffset dy="4"/>
<feGaussianBlur stdDeviation="2"/>
<feComposite in2="hardAlpha" operator="out"/>
<feColorMatrix type="matrix" values="0 0 0 0 0 0 0 0 0 0 0 0 0 0 0 0 0 0 0.25 0"/>
<feBlend mode="normal" in2="BackgroundImageFix" result="effect1_dropShadow_207_4354"/>
<feBlend mode="normal" in="SourceGraphic" in2="effect1_dropShadow_207_4354" result="shape"/>
</filter>
<filter id="filter2_d_207_4354" x="4.17624" y="55.29" width="51.9235" height="18.822" filterUnits="userSpaceOnUse" color-interpolation-filters="sRGB">
<feFlood flood-opacity="0" result="BackgroundImageFix"/>
<feColorMatrix in="SourceAlpha" type="matrix" values="0 0 0 0 0 0 0 0 0 0 0 0 0 0 0 0 0 0 127 0" result="hardAlpha"/>
<feOffset dy="3"/>
<feGaussianBlur stdDeviation="2"/>
<feComposite in2="hardAlpha" operator="out"/>
<feColorMatrix type="matrix" values="0 0 0 0 0 0 0 0 0 0 0 0 0 0 0 0 0 0 0.25 0"/>
<feBlend mode="normal" in2="BackgroundImageFix" result="effect1_dropShadow_207_4354"/>
<feBlend mode="normal" in="SourceGraphic" in2="effect1_dropShadow_207_4354" result="shape"/>
</filter>
<linearGradient id="paint0_linear_207_4354" x1="18.5" y1="11" x2="46.5" y2="39.5" gradientUnits="userSpaceOnUse">
<stop offset="0.0729167" stop-color="#FFE400"/>
<stop offset="1" stop-color="#26DFD0"/>
</linearGradient>
</defs>
</svg>
