<svg width="65" height="84" viewBox="0 0 65 84" fill="none" xmlns="http://www.w3.org/2000/svg">
<g filter="url(#filter0_d_230_27684)">
<circle cx="32.0354" cy="27.5354" r="23.5354" fill="url(#paint0_linear_230_27684)"/>
</g>
<path d="M31.9034 40.924C29.3802 40.9081 27.0375 40.2517 24.8918 38.9187C24.6596 38.7742 24.4959 38.7558 24.252 38.9003C23.0226 39.6286 21.6854 40.0253 20.2572 40.0796C19.8437 40.0955 19.427 40.0395 19.0127 40.0036C18.7655 39.9819 18.5725 39.8599 18.5158 39.6019C18.4531 39.3204 18.5817 39.1249 18.8223 38.9796C19.7778 38.4042 20.6105 37.69 21.2862 36.7972C21.7188 36.2251 21.7205 36.2309 21.2937 35.6688C19.721 33.5967 18.793 31.2714 18.5659 28.6747C17.9896 22.0774 22.1765 16.0254 28.6336 14.4535C34.0207 13.1422 38.6328 14.6915 42.2893 18.8818C44.055 20.9047 45.0163 23.3135 45.3187 25.977C46.0938 32.7948 41.5427 39.1391 34.815 40.5966C33.8645 40.8029 32.884 40.8689 31.9176 41C31.9135 40.975 31.9084 40.9491 31.9043 40.924H31.9034ZM19.3844 39.4047C19.5305 39.4198 19.64 39.4373 19.7494 39.4423C21.2361 39.5041 22.6208 39.1341 23.8895 38.3799C24.4024 38.0751 24.7899 38.1093 25.2869 38.415C27.7633 39.9401 30.4677 40.5331 33.3542 40.2132C35.8782 39.9334 38.1592 39.0022 40.0777 37.3342C44.1736 33.7729 45.6619 29.2861 44.2855 24.0435C42.519 17.3175 35.6803 13.3744 28.9125 15.0064C26.1371 15.6763 23.8469 17.1437 22.0437 19.3445C19.7535 22.1408 18.8189 25.3664 19.2165 28.9529C19.4938 31.4535 20.4618 33.6818 22.0638 35.6296C22.3912 36.028 22.3995 36.2752 22.118 36.702C21.6445 37.4194 21.0865 38.0634 20.4184 38.6054C20.091 38.871 19.7519 39.1224 19.3852 39.4047H19.3844Z" fill="black"/>
<path d="M20.5411 38.7577L20.541 38.7577C20.3358 38.9242 20.1244 39.0861 19.9069 39.2519C21.297 39.2819 22.5946 38.9215 23.7884 38.2122C24.0665 38.0469 24.3289 37.9626 24.6007 37.973C24.8704 37.9834 25.1249 38.0861 25.3887 38.2488C27.8274 39.7499 30.488 40.3343 33.3316 40.0191L33.3317 40.0191C35.8195 39.7442 38.0622 38.8266 39.9481 37.1871C41.9737 35.4257 43.3467 33.4426 44.046 31.26C44.7452 29.0779 44.7749 26.6839 44.0949 24.0941C42.3564 17.474 35.625 13.5893 28.9584 15.1971L20.5411 38.7577ZM20.5411 38.7577C21.2268 38.2005 21.7986 37.5418 22.2808 36.81M20.5411 38.7577L22.2808 36.81M22.2808 36.81C22.4284 36.5862 22.5252 36.3742 22.5145 36.1459C22.5038 35.917 22.3871 35.7147 22.2142 35.5048C20.6355 33.5854 19.6834 31.3917 19.4105 28.9312C19.0187 25.3965 19.9383 22.2237 22.1953 19.4688L22.1953 19.4688M22.2808 36.81L22.1953 19.4688M22.1953 19.4688C23.9714 17.3001 26.2248 15.8566 28.9584 15.1971L22.1953 19.4688Z" fill="#AAE23B" stroke="black" stroke-width="0.392256"/>
<path d="M29.1078 26.2209V25.1H33.0801V25.4725C33.0801 28.1494 33.0743 30.8262 33.0826 33.5031C33.0877 35.0608 32.8672 34.8303 34.4098 34.8478C34.5342 34.8495 34.6587 34.8478 34.8065 34.8478V35.9829H29.112V34.8486C29.5363 34.8486 29.9589 34.8503 30.3816 34.8486C30.7298 34.847 30.8267 34.7534 30.8267 34.4093C30.8276 31.826 30.8276 29.2435 30.8267 26.6602C30.8267 26.3269 30.7173 26.2234 30.3732 26.2217C29.9589 26.2192 29.5438 26.2217 29.1078 26.2217V26.2209Z" fill="black"/>
<path d="M31.4565 18.9411C32.2775 18.9436 32.9415 19.5809 32.9281 20.3986C32.9139 21.2689 32.3134 21.8602 31.449 21.8919C30.6472 21.9212 29.9556 21.1887 29.9731 20.3911C29.9907 19.5692 30.6363 18.9386 31.4573 18.9411H31.4565Z" fill="black"/>
<path fill-rule="evenodd" clip-rule="evenodd" d="M32 55C46.9117 55 59 42.6878 59 27.5C59 12.3122 46.9117 0 32 0C17.0883 0 5 12.3122 5 27.5C5 42.6878 17.0883 55 32 55ZM32 51C44.7427 51 55.0727 40.4787 55.0727 27.5C55.0727 14.5213 44.7427 4 32 4C19.2573 4 8.92727 14.5213 8.92727 27.5C8.92727 40.4787 19.2573 51 32 51Z" fill="white"/>
<path d="M54.9227 27.5C54.9227 40.3985 44.6573 50.85 32 50.85C19.3427 50.85 9.07728 40.3985 9.07728 27.5C9.07728 14.6015 19.3427 4.15 32 4.15C44.6573 4.15 54.9227 14.6015 54.9227 27.5Z" stroke="#02236A" stroke-opacity="0.5" stroke-width="0.3"/>
<g filter="url(#filter1_d_230_27684)">
<path d="M4.05195 65.862C4.05195 65.1527 4.18729 64.4807 4.45795 63.846C4.72862 63.2113 5.10195 62.6513 5.57795 62.166C6.06329 61.6713 6.62329 61.284 7.25795 61.004C7.89262 60.724 8.57395 60.584 9.30195 60.584C10.0206 60.584 10.6973 60.724 11.332 61.004C11.9666 61.284 12.5266 61.6713 13.012 62.166C13.5066 62.6513 13.8893 63.2113 14.16 63.846C14.44 64.4807 14.58 65.1527 14.58 65.862C14.58 66.59 14.44 67.2713 14.16 67.906C13.8893 68.5407 13.5066 69.1007 13.012 69.586C12.5266 70.062 11.9666 70.4353 11.332 70.706C10.6973 70.9767 10.0206 71.112 9.30195 71.112C8.57395 71.112 7.89262 70.9767 7.25795 70.706C6.62329 70.4353 6.06329 70.062 5.57795 69.586C5.10195 69.1007 4.72862 68.5407 4.45795 67.906C4.18729 67.2713 4.05195 66.59 4.05195 65.862ZM6.15195 65.862C6.15195 66.3193 6.23129 66.7487 6.38995 67.15C6.55795 67.542 6.78662 67.892 7.07595 68.2C7.37462 68.4987 7.71529 68.732 8.09795 68.9C8.48995 69.068 8.91462 69.152 9.37195 69.152C9.81062 69.152 10.2166 69.068 10.59 68.9C10.9726 68.732 11.304 68.4987 11.584 68.2C11.864 67.892 12.0833 67.542 12.242 67.15C12.4006 66.7487 12.48 66.3193 12.48 65.862C12.48 65.3953 12.396 64.9613 12.228 64.56C12.0693 64.1587 11.8453 63.8087 11.556 63.51C11.276 63.202 10.9446 62.964 10.562 62.796C10.1793 62.628 9.76395 62.544 9.31595 62.544C8.86795 62.544 8.45262 62.628 8.06995 62.796C7.68729 62.964 7.35129 63.202 7.06195 63.51C6.77262 63.8087 6.54862 64.1587 6.38995 64.56C6.23129 64.9613 6.15195 65.3953 6.15195 65.862ZM16.4638 71V60.276H16.4778L22.2038 68.396L21.3358 68.2L27.0478 60.276H27.0758V71H25.0458V64.854L25.1718 65.904L21.6858 70.86H21.6578L18.0738 65.904L18.4238 64.938V71H16.4638ZM33.382 65.862C33.382 65.1527 33.5173 64.4807 33.788 63.846C34.0586 63.2113 34.432 62.6513 34.908 62.166C35.3933 61.6713 35.9533 61.284 36.588 61.004C37.2226 60.724 37.904 60.584 38.632 60.584C39.3506 60.584 40.0273 60.724 40.662 61.004C41.2966 61.284 41.8566 61.6713 42.342 62.166C42.8366 62.6513 43.2193 63.2113 43.49 63.846C43.77 64.4807 43.91 65.1527 43.91 65.862C43.91 66.59 43.77 67.2713 43.49 67.906C43.2193 68.5407 42.8366 69.1007 42.342 69.586C41.8566 70.062 41.2966 70.4353 40.662 70.706C40.0273 70.9767 39.3506 71.112 38.632 71.112C37.904 71.112 37.2226 70.9767 36.588 70.706C35.9533 70.4353 35.3933 70.062 34.908 69.586C34.432 69.1007 34.0586 68.5407 33.788 67.906C33.5173 67.2713 33.382 66.59 33.382 65.862ZM35.482 65.862C35.482 66.3193 35.5613 66.7487 35.72 67.15C35.888 67.542 36.1166 67.892 36.406 68.2C36.7046 68.4987 37.0453 68.732 37.428 68.9C37.82 69.068 38.2446 69.152 38.702 69.152C39.1406 69.152 39.5466 69.068 39.92 68.9C40.3026 68.732 40.634 68.4987 40.914 68.2C41.194 67.892 41.4133 67.542 41.572 67.15C41.7306 66.7487 41.81 66.3193 41.81 65.862C41.81 65.3953 41.726 64.9613 41.558 64.56C41.3993 64.1587 41.1753 63.8087 40.886 63.51C40.606 63.202 40.2746 62.964 39.892 62.796C39.5093 62.628 39.094 62.544 38.646 62.544C38.198 62.544 37.7826 62.628 37.4 62.796C37.0173 62.964 36.6813 63.202 36.392 63.51C36.1026 63.8087 35.8786 64.1587 35.72 64.56C35.5613 64.9613 35.482 65.3953 35.482 65.862ZM51.2958 63.188C50.9038 62.9733 50.5025 62.796 50.0918 62.656C49.6905 62.516 49.3125 62.446 48.9578 62.446C48.5192 62.446 48.1738 62.5347 47.9218 62.712C47.6698 62.8893 47.5438 63.1553 47.5438 63.51C47.5438 63.7527 47.6372 63.972 47.8238 64.168C48.0198 64.3547 48.2672 64.5227 48.5658 64.672C48.8738 64.8213 49.1912 64.9567 49.5178 65.078C49.8165 65.19 50.1105 65.3253 50.3998 65.484C50.6985 65.6333 50.9645 65.8247 51.1978 66.058C51.4312 66.282 51.6178 66.5667 51.7578 66.912C51.8978 67.248 51.9678 67.6633 51.9678 68.158C51.9678 68.6807 51.8325 69.166 51.5618 69.614C51.2912 70.062 50.8945 70.426 50.3718 70.706C49.8492 70.9767 49.2052 71.112 48.4398 71.112C48.0478 71.112 47.6465 71.0747 47.2358 71C46.8345 70.916 46.4378 70.7947 46.0458 70.636C45.6538 70.468 45.2758 70.258 44.9118 70.006L45.8078 68.424C46.0505 68.6013 46.3118 68.76 46.5918 68.9C46.8812 69.0307 47.1705 69.1333 47.4598 69.208C47.7492 69.2827 48.0152 69.32 48.2578 69.32C48.5005 69.32 48.7432 69.2873 48.9858 69.222C49.2378 69.1473 49.4432 69.026 49.6018 68.858C49.7698 68.69 49.8538 68.4567 49.8538 68.158C49.8538 67.9527 49.7838 67.766 49.6438 67.598C49.5132 67.43 49.3312 67.276 49.0978 67.136C48.8738 66.996 48.6265 66.8747 48.3558 66.772C48.0385 66.6507 47.7118 66.5107 47.3758 66.352C47.0398 66.1933 46.7225 66.002 46.4238 65.778C46.1345 65.5447 45.8965 65.26 45.7098 64.924C45.5325 64.5787 45.4438 64.1587 45.4438 63.664C45.4438 63.0667 45.5745 62.5487 45.8358 62.11C46.1065 61.6713 46.4845 61.326 46.9698 61.074C47.4552 60.8127 48.0152 60.668 48.6498 60.64C49.4805 60.64 50.1525 60.738 50.6658 60.934C51.1885 61.13 51.6552 61.3633 52.0658 61.634L51.2958 63.188ZM59.3179 63.188C58.9259 62.9733 58.5246 62.796 58.1139 62.656C57.7126 62.516 57.3346 62.446 56.9799 62.446C56.5413 62.446 56.1959 62.5347 55.9439 62.712C55.6919 62.8893 55.5659 63.1553 55.5659 63.51C55.5659 63.7527 55.6593 63.972 55.8459 64.168C56.0419 64.3547 56.2893 64.5227 56.5879 64.672C56.8959 64.8213 57.2133 64.9567 57.5399 65.078C57.8386 65.19 58.1326 65.3253 58.4219 65.484C58.7206 65.6333 58.9866 65.8247 59.2199 66.058C59.4533 66.282 59.6399 66.5667 59.7799 66.912C59.9199 67.248 59.9899 67.6633 59.9899 68.158C59.9899 68.6807 59.8546 69.166 59.5839 69.614C59.3133 70.062 58.9166 70.426 58.3939 70.706C57.8713 70.9767 57.2273 71.112 56.4619 71.112C56.0699 71.112 55.6686 71.0747 55.2579 71C54.8566 70.916 54.4599 70.7947 54.0679 70.636C53.6759 70.468 53.2979 70.258 52.9339 70.006L53.8299 68.424C54.0726 68.6013 54.3339 68.76 54.6139 68.9C54.9033 69.0307 55.1926 69.1333 55.4819 69.208C55.7713 69.2827 56.0373 69.32 56.2799 69.32C56.5226 69.32 56.7653 69.2873 57.0079 69.222C57.2599 69.1473 57.4653 69.026 57.6239 68.858C57.7919 68.69 57.8759 68.4567 57.8759 68.158C57.8759 67.9527 57.8059 67.766 57.6659 67.598C57.5353 67.43 57.3533 67.276 57.1199 67.136C56.8959 66.996 56.6486 66.8747 56.3779 66.772C56.0606 66.6507 55.7339 66.5107 55.3979 66.352C55.0619 66.1933 54.7446 66.002 54.4459 65.778C54.1566 65.5447 53.9186 65.26 53.7319 64.924C53.5546 64.5787 53.4659 64.1587 53.4659 63.664C53.4659 63.0667 53.5966 62.5487 53.8579 62.11C54.1286 61.6713 54.5066 61.326 54.9919 61.074C55.4773 60.8127 56.0373 60.668 56.6719 60.64C57.5026 60.64 58.1746 60.738 58.6879 60.934C59.2106 61.13 59.6773 61.3633 60.0879 61.634L59.3179 63.188Z" fill="#AAE23B"/>
</g>
<defs>
<filter id="filter0_d_230_27684" x="4.49398" y="4" width="55.0827" height="55.0827" filterUnits="userSpaceOnUse" color-interpolation-filters="sRGB">
<feFlood flood-opacity="0" result="BackgroundImageFix"/>
<feColorMatrix in="SourceAlpha" type="matrix" values="0 0 0 0 0 0 0 0 0 0 0 0 0 0 0 0 0 0 127 0" result="hardAlpha"/>
<feOffset dy="4.00602"/>
<feGaussianBlur stdDeviation="2.00301"/>
<feComposite in2="hardAlpha" operator="out"/>
<feColorMatrix type="matrix" values="0 0 0 0 0 0 0 0 0 0 0 0 0 0 0 0 0 0 0.25 0"/>
<feBlend mode="normal" in2="BackgroundImageFix" result="effect1_dropShadow_230_27684"/>
<feBlend mode="normal" in="SourceGraphic" in2="effect1_dropShadow_230_27684" result="shape"/>
</filter>
<filter id="filter1_d_230_27684" x="0.0519409" y="59.276" width="64.036" height="18.836" filterUnits="userSpaceOnUse" color-interpolation-filters="sRGB">
<feFlood flood-opacity="0" result="BackgroundImageFix"/>
<feColorMatrix in="SourceAlpha" type="matrix" values="0 0 0 0 0 0 0 0 0 0 0 0 0 0 0 0 0 0 127 0" result="hardAlpha"/>
<feOffset dy="3"/>
<feGaussianBlur stdDeviation="2"/>
<feComposite in2="hardAlpha" operator="out"/>
<feColorMatrix type="matrix" values="0 0 0 0 0 0 0 0 0 0 0 0 0 0 0 0 0 0 0.25 0"/>
<feBlend mode="normal" in2="BackgroundImageFix" result="effect1_dropShadow_230_27684"/>
<feBlend mode="normal" in="SourceGraphic" in2="effect1_dropShadow_230_27684" result="shape"/>
</filter>
<linearGradient id="paint0_linear_230_27684" x1="12.506" y1="20.0241" x2="52.5662" y2="38.0511" gradientUnits="userSpaceOnUse">
<stop offset="0.0729167" stop-color="#26DFD0"/>
<stop offset="1" stop-color="#2F54A3"/>
</linearGradient>
</defs>
</svg>
